<svg width="215" height="16" viewBox="0 0 215 16" fill="none" xmlns="http://www.w3.org/2000/svg">
<path d="M6 15.24C4.13333 15.24 2.75333 14.6067 1.86 13.34C0.98 12.0733 0.54 10.3 0.54 8.02C0.54 5.74 0.98 3.96667 1.86 2.7C2.75333 1.43333 4.13333 0.799999 6 0.799999C7.86667 0.799999 9.24 1.43333 10.12 2.7C11.0133 3.96667 11.46 5.74 11.46 8.02C11.46 10.3 11.0133 12.0733 10.12 13.34C9.24 14.6067 7.86667 15.24 6 15.24ZM6 12.88C6.89333 12.88 7.51333 12.5667 7.86 11.94C8.22 11.3133 8.4 10.44 8.4 9.32V6.72C8.4 5.6 8.22 4.72667 7.86 4.1C7.51333 3.47333 6.89333 3.16 6 3.16C5.10667 3.16 4.48 3.47333 4.12 4.1C3.77333 4.72667 3.6 5.6 3.6 6.72V9.32C3.6 10.44 3.77333 11.3133 4.12 11.94C4.48 12.5667 5.10667 12.88 6 12.88ZM6 9.2C5.53333 9.2 5.20667 9.10667 5.02 8.92C4.84667 8.73333 4.76 8.50667 4.76 8.24V7.8C4.76 7.53333 4.84667 7.30667 5.02 7.12C5.20667 6.93333 5.53333 6.84 6 6.84C6.46667 6.84 6.78667 6.93333 6.96 7.12C7.14667 7.30667 7.24 7.53333 7.24 7.8V8.24C7.24 8.50667 7.14667 8.73333 6.96 8.92C6.78667 9.10667 6.46667 9.2 6 9.2ZM13.8722 15V12.58H17.6322V3.22H17.4522L14.6122 6.94L12.6922 5.44L16.0322 1.04H20.6322V12.58H23.5922V15H13.8722ZM29.9844 15.24C29.2377 15.24 28.6977 15.08 28.3644 14.76C28.0444 14.4267 27.8844 14.0333 27.8844 13.58V12.88C27.8844 12.4267 28.0444 12.04 28.3644 11.72C28.6977 11.3867 29.2377 11.22 29.9844 11.22C30.731 11.22 31.2644 11.3867 31.5844 11.72C31.9177 12.04 32.0844 12.4267 32.0844 12.88V13.58C32.0844 14.0333 31.9177 14.4267 31.5844 14.76C31.2644 15.08 30.731 15.24 29.9844 15.24ZM49.2488 1.04H53.7488C55.6288 1.04 57.0221 1.64 57.9288 2.84C58.8354 4.04 59.2888 5.76667 59.2888 8.02C59.2888 10.2733 58.8354 12 57.9288 13.2C57.0221 14.4 55.6288 15 53.7488 15H49.2488V1.04ZM53.5488 12.64C54.4421 12.64 55.0954 12.3533 55.5088 11.78C55.9221 11.2067 56.1288 10.3733 56.1288 9.28V6.74C56.1288 5.66 55.9221 4.83333 55.5088 4.26C55.0954 3.68667 54.4421 3.4 53.5488 3.4H52.2088V12.64H53.5488ZM61.5609 15V1.04H70.4809V3.5H64.5609V6.7H70.2809V9.16H64.5609V12.54H70.4809V15H61.5609ZM77.7331 15.24C76.5598 15.24 75.5398 15.0467 74.6731 14.66C73.8065 14.2733 73.1065 13.7467 72.5731 13.08L74.3131 11.16C74.8198 11.72 75.3731 12.1333 75.9731 12.4C76.5865 12.6667 77.2065 12.8 77.8331 12.8C78.5531 12.8 79.0998 12.64 79.4731 12.32C79.8465 12 80.0331 11.54 80.0331 10.94C80.0331 10.4467 79.8865 10.0733 79.5931 9.82C79.3131 9.56667 78.8331 9.38667 78.1531 9.28L76.6931 9.04C75.4398 8.82667 74.5331 8.36667 73.9731 7.66C73.4131 6.94 73.1331 6.06667 73.1331 5.04C73.1331 3.69333 73.5731 2.65333 74.4531 1.92C75.3331 1.17333 76.5665 0.799999 78.1531 0.799999C79.2331 0.799999 80.1731 0.966666 80.9731 1.3C81.7731 1.63333 82.4198 2.08667 82.9131 2.66L81.2131 4.56C80.8398 4.14667 80.3998 3.82667 79.8931 3.6C79.3865 3.36 78.8131 3.24 78.1731 3.24C76.8265 3.24 76.1531 3.79333 76.1531 4.9C76.1531 5.38 76.2998 5.74 76.5931 5.98C76.8998 6.22 77.3931 6.4 78.0731 6.52L79.5331 6.78C80.6665 6.98 81.5398 7.40667 82.1531 8.06C82.7665 8.71333 83.0731 9.59333 83.0731 10.7C83.0731 11.3533 82.9598 11.96 82.7331 12.52C82.5065 13.0667 82.1665 13.5467 81.7131 13.96C81.2598 14.36 80.6998 14.6733 80.0331 14.9C79.3798 15.1267 78.6131 15.24 77.7331 15.24ZM92.6453 15L91.7653 11.64H87.9453L87.0853 15H84.0453L87.8253 1.04H92.0653L95.8453 15H92.6453ZM89.9453 3.94H89.7853L88.4253 9.22H91.3053L89.9453 3.94ZM100.418 15H97.4575V1.04H102.858C103.538 1.04 104.144 1.14667 104.678 1.36C105.211 1.56 105.658 1.85333 106.018 2.24C106.391 2.62667 106.671 3.09333 106.858 3.64C107.044 4.18667 107.138 4.8 107.138 5.48C107.138 6.46667 106.924 7.31333 106.497 8.02C106.071 8.72667 105.464 9.19333 104.678 9.42L107.418 15H104.138L101.798 9.82H100.418V15ZM102.138 7.5C102.844 7.5 103.331 7.36667 103.598 7.1C103.878 6.83333 104.018 6.39333 104.018 5.78V5.18C104.018 4.56667 103.878 4.12667 103.598 3.86C103.331 3.59333 102.844 3.46 102.138 3.46H100.418V7.5H102.138ZM112.41 15H109.45V1.04H114.85C115.53 1.04 116.136 1.14667 116.67 1.36C117.203 1.56 117.65 1.85333 118.01 2.24C118.383 2.62667 118.663 3.09333 118.85 3.64C119.036 4.18667 119.13 4.8 119.13 5.48C119.13 6.46667 118.916 7.31333 118.49 8.02C118.063 8.72667 117.456 9.19333 116.67 9.42L119.41 15H116.13L113.79 9.82H112.41V15ZM114.13 7.5C114.836 7.5 115.323 7.36667 115.59 7.1C115.87 6.83333 116.01 6.39333 116.01 5.78V5.18C116.01 4.56667 115.87 4.12667 115.59 3.86C115.323 3.59333 114.836 3.46 114.13 3.46H112.41V7.5H114.13ZM125.922 15.24C124.055 15.24 122.675 14.6067 121.782 13.34C120.902 12.0733 120.462 10.3 120.462 8.02C120.462 5.74 120.902 3.96667 121.782 2.7C122.675 1.43333 124.055 0.799999 125.922 0.799999C127.789 0.799999 129.162 1.43333 130.042 2.7C130.935 3.96667 131.382 5.74 131.382 8.02C131.382 10.3 130.935 12.0733 130.042 13.34C129.162 14.6067 127.789 15.24 125.922 15.24ZM125.922 12.82C126.775 12.82 127.362 12.5067 127.682 11.88C128.015 11.24 128.182 10.3533 128.182 9.22V6.8C128.182 5.68 128.015 4.80667 127.682 4.18C127.362 3.54 126.775 3.22 125.922 3.22C125.069 3.22 124.475 3.54 124.142 4.18C123.822 4.80667 123.662 5.68 123.662 6.8V9.24C123.662 10.36 123.822 11.24 124.142 11.88C124.475 12.5067 125.069 12.82 125.922 12.82ZM133.754 15V1.04H136.774V12.54H142.774V15H133.754ZM145.746 15V1.04H148.766V12.54H154.766V15H145.746ZM161.898 15.24C160.032 15.24 158.652 14.6067 157.758 13.34C156.878 12.0733 156.438 10.3 156.438 8.02C156.438 5.74 156.878 3.96667 157.758 2.7C158.652 1.43333 160.032 0.799999 161.898 0.799999C163.765 0.799999 165.138 1.43333 166.018 2.7C166.912 3.96667 167.358 5.74 167.358 8.02C167.358 10.3 166.912 12.0733 166.018 13.34C165.138 14.6067 163.765 15.24 161.898 15.24ZM161.898 12.82C162.752 12.82 163.338 12.5067 163.658 11.88C163.992 11.24 164.158 10.3533 164.158 9.22V6.8C164.158 5.68 163.992 4.80667 163.658 4.18C163.338 3.54 162.752 3.22 161.898 3.22C161.045 3.22 160.452 3.54 160.118 4.18C159.798 4.80667 159.638 5.68 159.638 6.8V9.24C159.638 10.36 159.798 11.24 160.118 11.88C160.452 12.5067 161.045 12.82 161.898 12.82ZM180.963 15L180.103 1.04H182.683L183.083 9.4L183.203 12.04H183.383L184.583 4.08H187.283L188.483 12.04H188.663L188.783 9.48L189.183 1.04H191.663L190.803 15H187.003L185.983 7.3H185.783L184.763 15H180.963ZM193.475 15V1.04H202.395V3.5H196.475V6.7H202.195V9.16H196.475V12.54H202.395V15H193.475ZM205.407 1.04H210.307C211.681 1.04 212.727 1.37333 213.447 2.04C214.181 2.70667 214.547 3.61333 214.547 4.76C214.547 5.56 214.347 6.2 213.947 6.68C213.561 7.14667 213.001 7.48667 212.267 7.7V7.82C213.134 8.03333 213.801 8.40667 214.267 8.94C214.747 9.47333 214.987 10.2133 214.987 11.16C214.987 12.3333 214.614 13.2667 213.867 13.96C213.134 14.6533 212.101 15 210.767 15H205.407V1.04ZM209.847 12.9C210.567 12.9 211.094 12.78 211.427 12.54C211.761 12.3 211.927 11.86 211.927 11.22V10.64C211.927 10 211.761 9.56 211.427 9.32C211.094 9.08 210.567 8.96 209.847 8.96H208.327V12.9H209.847ZM209.467 6.96C210.174 6.96 210.687 6.84667 211.007 6.62C211.327 6.38 211.487 5.95333 211.487 5.34V4.74C211.487 4.12667 211.327 3.70667 211.007 3.48C210.687 3.25333 210.174 3.14 209.467 3.14H208.327V6.96H209.467Z" fill="#18A0FB"/>
</svg>
