<svg width="19" height="30" viewBox="0 0 19 30" fill="none" xmlns="http://www.w3.org/2000/svg">
<path fill-rule="evenodd" clip-rule="evenodd" d="M15.6665 8.33333V20.8333C15.6665 24.055 13.0548 26.6667 9.83317 26.6667C6.61151 26.6667 3.99984 24.055 3.99984 20.8333V6.66667C3.99984 4.82572 5.49222 3.33333 7.33317 3.33333C9.17412 3.33333 10.6665 4.82572 10.6665 6.66667V19.1667C10.6665 19.6269 10.2934 20 9.83317 20C9.37293 20 8.99984 19.6269 8.99984 19.1667V8.33333C8.99984 7.41286 8.25365 6.66667 7.33317 6.66667C6.4127 6.66667 5.6665 7.41286 5.6665 8.33333V19.1667C5.6665 21.4679 7.53198 23.3333 9.83317 23.3333C12.1344 23.3333 13.9998 21.4679 13.9998 19.1667V6.66667C13.9998 2.98477 11.0151 0 7.33317 0C3.65127 0 0.666504 2.98477 0.666504 6.66667V20.8333C0.666504 25.8959 4.77056 30 9.83317 30C14.8958 30 18.9998 25.8959 18.9998 20.8333V8.33333C18.9998 7.41286 18.2536 6.66667 17.3332 6.66667C16.4127 6.66667 15.6665 7.41286 15.6665 8.33333Z" fill="#546FFD"/>
</svg>
