<svg width="430" height="110" viewBox="0 0 430 110" fill="none" xmlns="http://www.w3.org/2000/svg">
<path d="M239.999 91.3584L240.799 93.7256L239.999 91.3584ZM428.851 20.1119C429.793 19.1009 429.739 17.519 428.73 16.5786L412.284 1.25449C411.275 0.314126 409.693 0.371365 408.751 1.38234C407.808 2.39332 407.863 3.97519 408.872 4.91556L423.49 18.537L409.841 33.1813C408.898 34.1923 408.953 35.7741 409.962 36.7145C410.971 37.6549 412.553 37.5976 413.495 36.5866L428.851 20.1119ZM0.842394 105.783C26.4118 106.996 70.0395 109.525 115.38 108.991C160.648 108.458 207.955 104.875 240.799 93.7256L239.199 88.9913C207.17 99.8643 160.561 103.459 115.331 103.991C70.1734 104.523 26.7209 102.004 1.08876 100.789L0.842394 105.783ZM240.799 93.7256C281.598 79.8756 309.61 62.1674 336.562 47.7987C363.512 33.4315 389.606 22.2645 427.109 20.9075L426.938 15.9108C388.358 17.3067 361.486 28.8503 334.217 43.3875C306.951 57.9232 279.492 75.3133 239.199 88.9913L240.799 93.7256Z" fill="#546FFD"/>
</svg>
