<svg width="419" height="251" viewBox="0 0 419 251" fill="none" xmlns="http://www.w3.org/2000/svg">
<path d="M157.395 93L159.415 91.5231L157.395 93ZM418.155 233.182C419.086 232.161 419.014 230.579 417.995 229.65L401.378 214.512C400.358 213.583 398.777 213.658 397.846 214.68C396.915 215.701 396.987 217.282 398.007 218.211L412.777 231.668L399.293 246.464C398.362 247.485 398.434 249.066 399.453 249.995C400.473 250.924 402.054 250.849 402.985 249.828L418.155 233.182ZM0.3175 5.49723C51.063 7.88812 115.631 40.0543 155.375 94.4769L159.415 91.5231C118.827 35.9457 52.8955 2.96847 0.562383 0.502774L0.3175 5.49723ZM155.375 94.4769C178.559 126.224 198.849 163.527 235.708 191.489C272.765 219.601 326.407 238.267 416.423 233.997L416.195 229.003C327.01 233.233 274.621 214.727 238.734 187.503C202.649 160.129 183.082 123.932 159.415 91.5231L155.375 94.4769Z" fill="#546FFD"/>
</svg>
