<svg width="416" height="159" viewBox="0 0 416 159" fill="none" xmlns="http://www.w3.org/2000/svg">
<path d="M153.025 62.5L154.328 60.3638L153.025 62.5ZM415.159 140.681C416.089 139.66 416.017 138.079 414.997 137.15L398.375 122.017C397.355 121.088 395.774 121.164 394.843 122.186C393.913 123.207 393.985 124.789 395.005 125.717L409.78 139.169L396.3 153.969C395.37 154.991 395.442 156.572 396.462 157.501C397.482 158.429 399.063 158.354 399.994 157.332L415.159 140.681ZM0.0452729 5.49719C50.561 7.89296 95.5154 30.4271 151.722 64.6362L154.328 60.3638C98.081 26.1303 52.1789 2.96363 0.291641 0.502811L0.0452729 5.49719ZM151.722 64.6362C165.579 73.07 177.539 82.5114 190.765 92.0228C203.939 101.497 218.197 110.904 236.338 118.972C272.647 135.12 324.177 145.758 413.426 141.497L413.197 136.503C324.42 140.742 273.738 130.13 238.377 114.403C220.682 106.533 206.739 97.3466 193.689 87.9616C180.691 78.6136 168.403 68.93 154.328 60.3638L151.722 64.6362Z" fill="#546FFD"/>
</svg>
