<svg width="429" height="58" viewBox="0 0 429 58" fill="none" xmlns="http://www.w3.org/2000/svg">
<path d="M191.263 45L190.797 47.457L191.263 45ZM427.817 38.4258C428.606 37.2916 428.328 35.7339 427.195 34.9464L408.738 22.1141C407.605 21.3266 406.047 21.6077 405.257 22.7418C404.468 23.876 404.746 25.4337 405.879 26.2212L422.285 37.6277L410.847 54.056C410.058 55.1902 410.336 56.7479 411.468 57.5354C412.601 58.3228 414.159 58.0418 414.949 56.9076L427.817 38.4258ZM0.842148 5.37414C26.1402 6.57393 56.3639 13.8164 89.014 22.4436C121.567 31.045 156.47 41.005 190.797 47.457L191.73 42.543C157.635 36.1346 122.991 26.2473 90.2999 17.6093C57.7067 8.99716 26.992 1.60827 1.08852 0.379764L0.842148 5.37414ZM190.797 47.457C271.056 62.5423 340.172 54.9765 426.205 39.4602L425.327 34.5397C339.474 50.0235 271.08 57.4577 191.73 42.543L190.797 47.457Z" fill="#546FFD"/>
</svg>
