<svg width="160" height="33" viewBox="0 0 160 33" fill="none" xmlns="http://www.w3.org/2000/svg">
<path d="M13.3155 23.1C13.4251 23.54 13.4799 24.09 13.4799 24.75C13.4799 25.3825 13.4251 25.9325 13.3155 26.4H0.164389C0.0547965 25.9325 0 25.3825 0 24.75C0 24.09 0.0547965 23.54 0.164389 23.1H13.3155Z" fill="#546FFD"/>
<path d="M27.0913 6.59999C26.9817 6.13249 26.9269 5.58249 26.9269 4.94999C26.9269 4.28999 26.9817 3.73999 27.0913 3.29999H30.3791C30.4887 3.73999 30.5435 4.28999 30.5435 4.94999C30.5435 5.58249 30.4887 6.13249 30.3791 6.59999H27.0913ZM33.6669 23.1C33.7765 23.54 33.8313 24.09 33.8313 24.75C33.8313 25.3825 33.7765 25.9325 33.6669 26.4H23.8035C23.694 25.9325 23.6392 25.3825 23.6392 24.75C23.6392 24.09 23.694 23.54 23.8035 23.1H27.0913C26.9817 22.6325 26.9269 22.0825 26.9269 21.45C26.9269 20.79 26.9817 20.24 27.0913 19.8C26.9817 19.3325 26.9269 18.7825 26.9269 18.15C26.9269 17.49 26.9817 16.94 27.0913 16.5C26.9817 16.0325 26.9269 15.4825 26.9269 14.85C26.9269 14.19 26.9817 13.64 27.0913 13.2H24.6255C24.5159 12.7325 24.4611 12.1825 24.4611 11.55C24.4611 10.89 24.5159 10.34 24.6255 9.89999H30.3791C30.4887 10.34 30.5435 10.89 30.5435 11.55C30.5435 12.1825 30.4887 12.7325 30.3791 13.2C30.4887 13.64 30.5435 14.19 30.5435 14.85C30.5435 15.4825 30.4887 16.0325 30.3791 16.5C30.4887 16.94 30.5435 17.49 30.5435 18.15C30.5435 18.7825 30.4887 19.3325 30.3791 19.8C30.4887 20.24 30.5435 20.79 30.5435 21.45C30.5435 22.0825 30.4887 22.6325 30.3791 23.1H33.6669Z" fill="#546FFD"/>
<path d="M40.8339 11.55C40.8339 12.1825 40.7791 12.7325 40.6695 13.2H41.9024C42.012 13.64 42.0668 14.19 42.0668 14.85C42.0668 15.4825 42.012 16.0325 41.9024 16.5C42.012 16.94 42.0668 17.49 42.0668 18.15C42.0668 18.7825 42.012 19.3325 41.9024 19.8C42.012 20.24 42.0668 20.79 42.0668 21.45C42.0668 22.0825 42.012 22.6325 41.9024 23.1C42.012 23.54 42.0668 24.09 42.0668 24.75C42.0668 25.3825 42.012 25.9325 41.9024 26.4H38.6146C38.5051 25.9325 38.4503 25.3825 38.4503 24.75C38.4503 24.09 38.5051 23.54 38.6146 23.1C38.5051 22.6325 38.4503 22.0825 38.4503 21.45C38.4503 20.79 38.5051 20.24 38.6146 19.8C38.5051 19.3325 38.4503 18.7825 38.4503 18.15C38.4503 17.49 38.5051 16.94 38.6146 16.5C38.5051 16.0325 38.4503 15.4825 38.4503 14.85C38.4503 14.19 38.5051 13.64 38.6146 13.2C38.5051 12.7325 38.4503 12.1825 38.4503 11.55C38.4503 10.89 38.5051 10.34 38.6146 9.89999H40.6695C40.7791 10.34 40.8339 10.89 40.8339 11.55ZM45.3546 11.55C45.3546 12.1825 45.2998 12.7325 45.1902 13.2H46.4231C46.5327 13.64 46.5875 14.19 46.5875 14.85C46.5875 15.4825 46.5327 16.0325 46.4231 16.5C46.5327 16.94 46.5875 17.49 46.5875 18.15C46.5875 18.7825 46.5327 19.3325 46.4231 19.8C46.5327 20.24 46.5875 20.79 46.5875 21.45C46.5875 22.0825 46.5327 22.6325 46.4231 23.1C46.5327 23.54 46.5875 24.09 46.5875 24.75C46.5875 25.3825 46.5327 25.9325 46.4231 26.4H43.9573C43.8477 25.9325 43.7929 25.3825 43.7929 24.75C43.7929 24.09 43.8477 23.54 43.9573 23.1C43.8477 22.6325 43.7929 22.0825 43.7929 21.45C43.7929 20.79 43.8477 20.24 43.9573 19.8C43.8477 19.3325 43.7929 18.7825 43.7929 18.15C43.7929 17.49 43.8477 16.94 43.9573 16.5C43.8477 16.0325 43.7929 15.4825 43.7929 14.85C43.7929 14.19 43.8477 13.64 43.9573 13.2H41.9024C41.7928 12.7325 41.738 12.1825 41.738 11.55C41.738 10.89 41.7928 10.34 41.9024 9.89999H45.1902C45.2998 10.34 45.3546 10.89 45.3546 11.55ZM51.7658 16.5C51.8754 16.94 51.9302 17.49 51.9302 18.15C51.9302 18.7825 51.8754 19.3325 51.7658 19.8C51.8754 20.24 51.9302 20.79 51.9302 21.45C51.9302 22.0825 51.8754 22.6325 51.7658 23.1C51.8754 23.54 51.9302 24.09 51.9302 24.75C51.9302 25.3825 51.8754 25.9325 51.7658 26.4H48.478C48.3684 25.9325 48.3136 25.3825 48.3136 24.75C48.3136 24.09 48.3684 23.54 48.478 23.1C48.3684 22.6325 48.3136 22.0825 48.3136 21.45C48.3136 20.79 48.3684 20.24 48.478 19.8C48.3684 19.3325 48.3136 18.7825 48.3136 18.15C48.3136 17.49 48.3684 16.94 48.478 16.5C48.3684 16.0325 48.3136 15.4825 48.3136 14.85C48.3136 14.19 48.3684 13.64 48.478 13.2H46.4231C46.3135 12.7325 46.2588 12.1825 46.2588 11.55C46.2588 10.89 46.3135 10.34 46.4231 9.89999H50.1219C50.2315 10.34 50.2863 10.89 50.2863 11.55C50.2863 12.1825 50.2315 12.7325 50.1219 13.2H51.7658C51.8754 13.64 51.9302 14.19 51.9302 14.85C51.9302 15.4825 51.8754 16.0325 51.7658 16.5Z" fill="#546FFD"/>
<path d="M68.3852 18.15C68.3852 18.7825 68.3304 19.3325 68.2208 19.8H66.5769C66.6865 20.24 66.7413 20.79 66.7413 21.45C66.7413 22.0825 66.6865 22.6325 66.5769 23.1H64.933C65.0426 23.54 65.0974 24.09 65.0974 24.75C65.0974 25.3825 65.0426 25.9325 64.933 26.4H58.3574C58.467 26.84 58.5218 27.39 58.5218 28.05C58.5218 28.6825 58.467 29.2325 58.3574 29.7C58.467 30.14 58.5218 30.69 58.5218 31.35C58.5218 31.9825 58.467 32.5325 58.3574 33H55.0696C54.96 32.5325 54.9052 31.9825 54.9052 31.35C54.9052 30.69 54.96 30.14 55.0696 29.7C54.96 29.2325 54.9052 28.6825 54.9052 28.05C54.9052 27.39 54.96 26.84 55.0696 26.4C54.96 25.9325 54.9052 25.3825 54.9052 24.75C54.9052 24.09 54.96 23.54 55.0696 23.1C54.96 22.6325 54.9052 22.0825 54.9052 21.45C54.9052 20.79 54.96 20.24 55.0696 19.8C54.96 19.3325 54.9052 18.7825 54.9052 18.15C54.9052 17.49 54.96 16.94 55.0696 16.5C54.96 16.0325 54.9052 15.4825 54.9052 14.85C54.9052 14.19 54.96 13.64 55.0696 13.2C54.96 12.7325 54.9052 12.1825 54.9052 11.55C54.9052 10.89 54.96 10.34 55.0696 9.89999H58.3574C58.467 10.34 58.5218 10.89 58.5218 11.55C58.5218 12.1825 58.467 12.7325 58.3574 13.2H60.0013C60.1109 13.64 60.1657 14.19 60.1657 14.85C60.1657 15.4825 60.1109 16.0325 60.0013 16.5H58.3574C58.467 16.94 58.5218 17.49 58.5218 18.15C58.5218 18.7825 58.467 19.3325 58.3574 19.8C58.467 20.24 58.5218 20.79 58.5218 21.45C58.5218 22.0825 58.467 22.6325 58.3574 23.1H63.2891C63.1795 22.6325 63.1247 22.0825 63.1247 21.45C63.1247 20.79 63.1795 20.24 63.2891 19.8H64.933C64.8234 19.3325 64.7686 18.7825 64.7686 18.15C64.7686 17.49 64.8234 16.94 64.933 16.5H63.2891C63.1795 16.0325 63.1247 15.4825 63.1247 14.85C63.1247 14.19 63.1795 13.64 63.2891 13.2H60.0013C59.8917 12.7325 59.8369 12.1825 59.8369 11.55C59.8369 10.89 59.8917 10.34 60.0013 9.89999H64.933C65.0426 10.34 65.0974 10.89 65.0974 11.55C65.0974 12.1825 65.0426 12.7325 64.933 13.2H66.5769C66.6865 13.64 66.7413 14.19 66.7413 14.85C66.7413 15.4825 66.6865 16.0325 66.5769 16.5H68.2208C68.3304 16.94 68.3852 17.49 68.3852 18.15Z" fill="#546FFD"/>
<path d="M81.7505 26.4C81.8601 26.84 81.9149 27.39 81.9149 28.05C81.9149 28.6825 81.8601 29.2325 81.7505 29.7H75.9969C75.8873 29.2325 75.8325 28.6825 75.8325 28.05C75.8325 27.39 75.8873 26.84 75.9969 26.4C75.8873 25.9325 75.8325 25.3825 75.8325 24.75C75.8325 24.09 75.8873 23.54 75.9969 23.1C75.8873 22.6325 75.8325 22.0825 75.8325 21.45C75.8325 20.79 75.8873 20.24 75.9969 19.8C75.8873 19.3325 75.8325 18.7825 75.8325 18.15C75.8325 17.49 75.8873 16.94 75.9969 16.5C75.8873 16.0325 75.8325 15.4825 75.8325 14.85C75.8325 14.19 75.8873 13.64 75.9969 13.2C75.8873 12.7325 75.8325 12.1825 75.8325 11.55C75.8325 10.89 75.8873 10.34 75.9969 9.9C75.8873 9.4325 75.8325 8.8825 75.8325 8.25C75.8325 7.59 75.8873 7.04 75.9969 6.6C75.8873 6.1325 75.8325 5.5825 75.8325 4.95C75.8325 4.29 75.8873 3.74 75.9969 3.3C75.8873 2.8325 75.8325 2.2825 75.8325 1.65C75.8325 0.990001 75.8873 0.440001 75.9969 0H81.7505C81.8601 0.440001 81.9149 0.990001 81.9149 1.65C81.9149 2.2825 81.8601 2.8325 81.7505 3.3H79.2847C79.3943 3.74 79.4491 4.29 79.4491 4.95C79.4491 5.5825 79.3943 6.1325 79.2847 6.6C79.3943 7.04 79.4491 7.59 79.4491 8.25C79.4491 8.8825 79.3943 9.4325 79.2847 9.9C79.3943 10.34 79.4491 10.89 79.4491 11.55C79.4491 12.1825 79.3943 12.7325 79.2847 13.2C79.3943 13.64 79.4491 14.19 79.4491 14.85C79.4491 15.4825 79.3943 16.0325 79.2847 16.5C79.3943 16.94 79.4491 17.49 79.4491 18.15C79.4491 18.7825 79.3943 19.3325 79.2847 19.8C79.3943 20.24 79.4491 20.79 79.4491 21.45C79.4491 22.0825 79.3943 22.6325 79.2847 23.1C79.3943 23.54 79.4491 24.09 79.4491 24.75C79.4491 25.3825 79.3943 25.9325 79.2847 26.4H81.7505Z" fill="#FB6376"/>
<path d="M145.041 3.3C145.15 3.74 145.205 4.29 145.205 4.95C145.205 5.5825 145.15 6.1325 145.041 6.6C145.15 7.04 145.205 7.59 145.205 8.25C145.205 8.8825 145.15 9.4325 145.041 9.9C145.15 10.34 145.205 10.89 145.205 11.55C145.205 12.1825 145.15 12.7325 145.041 13.2C145.15 13.64 145.205 14.19 145.205 14.85C145.205 15.4825 145.15 16.0325 145.041 16.5C145.15 16.94 145.205 17.49 145.205 18.15C145.205 18.7825 145.15 19.3325 145.041 19.8C145.15 20.24 145.205 20.79 145.205 21.45C145.205 22.0825 145.15 22.6325 145.041 23.1C145.15 23.54 145.205 24.09 145.205 24.75C145.205 25.3825 145.15 25.9325 145.041 26.4C145.15 26.84 145.205 27.39 145.205 28.05C145.205 28.6825 145.15 29.2325 145.041 29.7H139.287C139.177 29.2325 139.123 28.6825 139.123 28.05C139.123 27.39 139.177 26.84 139.287 26.4H141.753C141.643 25.9325 141.588 25.3825 141.588 24.75C141.588 24.09 141.643 23.54 141.753 23.1C141.643 22.6325 141.588 22.0825 141.588 21.45C141.588 20.79 141.643 20.24 141.753 19.8C141.643 19.3325 141.588 18.7825 141.588 18.15C141.588 17.49 141.643 16.94 141.753 16.5C141.643 16.0325 141.588 15.4825 141.588 14.85C141.588 14.19 141.643 13.64 141.753 13.2C141.643 12.7325 141.588 12.1825 141.588 11.55C141.588 10.89 141.643 10.34 141.753 9.9C141.643 9.4325 141.588 8.8825 141.588 8.25C141.588 7.59 141.643 7.04 141.753 6.6C141.643 6.1325 141.588 5.5825 141.588 4.95C141.588 4.29 141.643 3.74 141.753 3.3H139.287C139.177 2.8325 139.123 2.2825 139.123 1.65C139.123 0.990001 139.177 0.440001 139.287 0H145.041C145.15 0.440001 145.205 0.990001 145.205 1.65C145.205 2.2825 145.15 2.8325 145.041 3.3Z" fill="#FB6376"/>
<path d="M160 8.25001C160 8.88251 159.945 9.43251 159.836 9.90001C159.945 10.34 160 10.89 160 11.55C160 12.1825 159.945 12.7325 159.836 13.2H155.726C155.616 12.7325 155.562 12.1825 155.562 11.55C155.562 10.89 155.616 10.34 155.726 9.90001C155.616 9.43251 155.562 8.88251 155.562 8.25001C155.562 7.59001 155.616 7.04001 155.726 6.60001H159.836C159.945 7.04001 160 7.59001 160 8.25001ZM159.836 19.8C159.945 20.24 160 20.79 160 21.45C160 22.0825 159.945 22.6325 159.836 23.1C159.945 23.54 160 24.09 160 24.75C160 25.3825 159.945 25.9325 159.836 26.4C159.945 26.84 160 27.39 160 28.05C160 28.6825 159.945 29.2325 159.836 29.7H158.192C158.301 30.14 158.356 30.69 158.356 31.35C158.356 31.9825 158.301 32.5325 158.192 33H155.726C155.616 32.5325 155.562 31.9825 155.562 31.35C155.562 30.69 155.616 30.14 155.726 29.7H157.37C157.26 29.2325 157.205 28.6825 157.205 28.05C157.205 27.39 157.26 26.84 157.37 26.4H155.726C155.616 25.9325 155.562 25.3825 155.562 24.75C155.562 24.09 155.616 23.54 155.726 23.1C155.616 22.6325 155.562 22.0825 155.562 21.45C155.562 20.79 155.616 20.24 155.726 19.8H159.836Z" fill="white"/>
<path d="M101.888 23.1C101.998 23.54 102.053 24.09 102.053 24.75C102.053 25.3825 101.998 25.9325 101.888 26.4H98.6005C98.4909 25.9325 98.4361 25.3825 98.4361 24.75C98.4361 24.09 98.4909 23.54 98.6005 23.1H96.9566C96.847 22.6325 96.7922 22.0825 96.7922 21.45C96.7922 20.79 96.847 20.24 96.9566 19.8H92.0249C92.1345 20.24 92.1893 20.79 92.1893 21.45C92.1893 22.0825 92.1345 22.6325 92.0249 23.1H96.9566C97.0662 23.54 97.121 24.09 97.121 24.75C97.121 25.3825 97.0662 25.9325 96.9566 26.4H90.381C90.2714 25.9325 90.2166 25.3825 90.2166 24.75C90.2166 24.09 90.2714 23.54 90.381 23.1H88.7371C88.6276 22.6325 88.5728 22.0825 88.5728 21.45C88.5728 20.79 88.6276 20.24 88.7371 19.8H90.381C90.2714 19.3325 90.2166 18.7825 90.2166 18.15C90.2166 17.49 90.2714 16.94 90.381 16.5H96.9566C96.847 16.0325 96.7922 15.4825 96.7922 14.85C96.7922 14.19 96.847 13.64 96.9566 13.2H91.203C91.0934 12.7325 91.0386 12.1825 91.0386 11.55C91.0386 10.89 91.0934 10.34 91.203 9.89999H98.6005C98.7101 10.34 98.7649 10.89 98.7649 11.55C98.7649 12.1825 98.7101 12.7325 98.6005 13.2H100.244C100.354 13.64 100.409 14.19 100.409 14.85C100.409 15.4825 100.354 16.0325 100.244 16.5C100.354 16.94 100.409 17.49 100.409 18.15C100.409 18.7825 100.354 19.3325 100.244 19.8C100.354 20.24 100.409 20.79 100.409 21.45C100.409 22.0825 100.354 22.6325 100.244 23.1H101.888Z" fill="#FB6376"/>
<path d="M118.343 19.8C118.453 20.24 118.508 20.79 118.508 21.45C118.508 22.0825 118.453 22.6325 118.343 23.1H116.699C116.809 23.54 116.864 24.09 116.864 24.75C116.864 25.3825 116.809 25.9325 116.699 26.4H108.48C108.37 25.9325 108.316 25.3825 108.316 24.75C108.316 24.09 108.37 23.54 108.48 23.1H106.836C106.726 22.6325 106.672 22.0825 106.672 21.45C106.672 20.79 106.726 20.24 106.836 19.8H105.192C105.083 19.3325 105.028 18.7825 105.028 18.15C105.028 17.49 105.083 16.94 105.192 16.5H106.836C106.726 16.0325 106.672 15.4825 106.672 14.85C106.672 14.19 106.726 13.64 106.836 13.2H108.48C108.37 12.7325 108.316 12.1825 108.316 11.55C108.316 10.89 108.37 10.34 108.48 9.89999H116.699C116.809 10.34 116.864 10.89 116.864 11.55C116.864 12.1825 116.809 12.7325 116.699 13.2H118.343C118.453 13.64 118.508 14.19 118.508 14.85C118.508 15.4825 118.453 16.0325 118.343 16.5H115.055C114.946 16.0325 114.891 15.4825 114.891 14.85C114.891 14.19 114.946 13.64 115.055 13.2H110.124C110.233 13.64 110.288 14.19 110.288 14.85C110.288 15.4825 110.233 16.0325 110.124 16.5H108.48C108.59 16.94 108.644 17.49 108.644 18.15C108.644 18.7825 108.59 19.3325 108.48 19.8H110.124C110.233 20.24 110.288 20.79 110.288 21.45C110.288 22.0825 110.233 22.6325 110.124 23.1H115.055C114.946 22.6325 114.891 22.0825 114.891 21.45C114.891 20.79 114.946 20.24 115.055 19.8H118.343Z" fill="#FB6376"/>
<path d="M133.154 23.1C133.264 23.54 133.319 24.09 133.319 24.75C133.319 25.3825 133.264 25.9325 133.154 26.4H126.579C126.469 25.9325 126.414 25.3825 126.414 24.75C126.414 24.09 126.469 23.54 126.579 23.1H124.935C124.825 22.6325 124.771 22.0825 124.771 21.45C124.771 20.79 124.825 20.24 124.935 19.8C124.825 19.3325 124.771 18.7825 124.771 18.15C124.771 17.49 124.825 16.94 124.935 16.5C124.825 16.0325 124.771 15.4825 124.771 14.85C124.771 14.19 124.825 13.64 124.935 13.2H121.647C121.538 12.7325 121.483 12.1825 121.483 11.55C121.483 10.89 121.538 10.34 121.647 9.89999H124.935C124.825 9.43249 124.771 8.88249 124.771 8.24999C124.771 7.58999 124.825 7.03999 124.935 6.59999C124.825 6.13249 124.771 5.58249 124.771 4.94999C124.771 4.28999 124.825 3.73999 124.935 3.29999H128.223C128.332 3.73999 128.387 4.28999 128.387 4.94999C128.387 5.58249 128.332 6.13249 128.223 6.59999C128.332 7.03999 128.387 7.58999 128.387 8.24999C128.387 8.88249 128.332 9.43249 128.223 9.89999H133.154C133.264 10.34 133.319 10.89 133.319 11.55C133.319 12.1825 133.264 12.7325 133.154 13.2H128.223C128.332 13.64 128.387 14.19 128.387 14.85C128.387 15.4825 128.332 16.0325 128.223 16.5C128.332 16.94 128.387 17.49 128.387 18.15C128.387 18.7825 128.332 19.3325 128.223 19.8C128.332 20.24 128.387 20.79 128.387 21.45C128.387 22.0825 128.332 22.6325 128.223 23.1H133.154Z" fill="#FB6376"/>
</svg>
