<svg width="274" height="139" viewBox="0 0 274 139" fill="none" xmlns="http://www.w3.org/2000/svg">
<path d="M1.4 15V1.04H3.08V13.54H9.7V15H1.4ZM16.9922 15.24C16.2722 15.24 15.6189 15.1133 15.0322 14.86C14.4589 14.6067 13.9655 14.2467 13.5522 13.78C13.1522 13.3 12.8455 12.7333 12.6322 12.08C12.4189 11.4133 12.3122 10.6667 12.3122 9.84C12.3122 9.02667 12.4189 8.28667 12.6322 7.62C12.8455 6.95333 13.1522 6.38667 13.5522 5.92C13.9655 5.44 14.4589 5.07333 15.0322 4.82C15.6189 4.56667 16.2722 4.44 16.9922 4.44C17.7122 4.44 18.3589 4.56667 18.9322 4.82C19.5189 5.07333 20.0122 5.44 20.4122 5.92C20.8255 6.38667 21.1389 6.95333 21.3522 7.62C21.5655 8.28667 21.6722 9.02667 21.6722 9.84C21.6722 10.6667 21.5655 11.4133 21.3522 12.08C21.1389 12.7333 20.8255 13.3 20.4122 13.78C20.0122 14.2467 19.5189 14.6067 18.9322 14.86C18.3589 15.1133 17.7122 15.24 16.9922 15.24ZM16.9922 13.86C17.8855 13.86 18.6055 13.5933 19.1522 13.06C19.6989 12.5267 19.9722 11.7 19.9722 10.58V9.1C19.9722 7.98 19.6989 7.15333 19.1522 6.62C18.6055 6.08667 17.8855 5.82 16.9922 5.82C16.0989 5.82 15.3789 6.08667 14.8322 6.62C14.2855 7.15333 14.0122 7.98 14.0122 9.1V10.58C14.0122 11.7 14.2855 12.5267 14.8322 13.06C15.3789 13.5933 16.0989 13.86 16.9922 13.86ZM24.5244 13.64H27.5444V6.04H24.5244V4.68H29.1444V7.28H29.2444C29.4577 6.46667 29.8577 5.83333 30.4444 5.38C31.0444 4.91333 31.8044 4.68 32.7244 4.68H34.1644V6.28H32.2244C31.3044 6.28 30.5577 6.54667 29.9844 7.08C29.4244 7.61333 29.1444 8.31333 29.1444 9.18V13.64H33.1444V15H24.5244V13.64ZM41.1566 15.24C40.4099 15.24 39.7366 15.1133 39.1366 14.86C38.5499 14.6067 38.0432 14.2467 37.6166 13.78C37.2032 13.3 36.8832 12.7333 36.6566 12.08C36.4299 11.4133 36.3166 10.6733 36.3166 9.86C36.3166 9.03333 36.4299 8.28667 36.6566 7.62C36.8966 6.95333 37.2232 6.38667 37.6366 5.92C38.0499 5.44 38.5432 5.07333 39.1166 4.82C39.7032 4.56667 40.3499 4.44 41.0566 4.44C41.7499 4.44 42.3766 4.56667 42.9366 4.82C43.5099 5.07333 43.9966 5.42667 44.3966 5.88C44.7966 6.32 45.1032 6.84667 45.3166 7.46C45.5299 8.07333 45.6366 8.74667 45.6366 9.48V10.24H37.9966V10.72C37.9966 11.1733 38.0699 11.5933 38.2166 11.98C38.3632 12.3667 38.5699 12.7 38.8366 12.98C39.1166 13.26 39.4499 13.48 39.8366 13.64C40.2366 13.7867 40.6766 13.86 41.1566 13.86C41.8499 13.86 42.4499 13.7 42.9566 13.38C43.4632 13.06 43.8499 12.62 44.1166 12.06L45.2966 12.86C44.9899 13.5533 44.4766 14.1267 43.7566 14.58C43.0499 15.02 42.1832 15.24 41.1566 15.24ZM41.0566 5.76C40.6166 5.76 40.2099 5.84 39.8366 6C39.4632 6.16 39.1366 6.38 38.8566 6.66C38.5899 6.94 38.3766 7.27333 38.2166 7.66C38.0699 8.03333 37.9966 8.44667 37.9966 8.9V9.04H43.9166V8.82C43.9166 8.36667 43.8432 7.95333 43.6966 7.58C43.5632 7.20667 43.3699 6.88667 43.1166 6.62C42.8766 6.34 42.5766 6.12667 42.2166 5.98C41.8699 5.83333 41.4832 5.76 41.0566 5.76ZM48.0488 15V4.68H49.5288V5.88H49.6087C49.7688 5.48 49.9954 5.14 50.2888 4.86C50.5821 4.58 51.0154 4.44 51.5888 4.44C52.1888 4.44 52.6354 4.59333 52.9288 4.9C53.2221 5.19333 53.4021 5.58 53.4688 6.06H53.5288C53.7154 5.59333 53.9821 5.20667 54.3288 4.9C54.6754 4.59333 55.1554 4.44 55.7688 4.44C56.6088 4.44 57.1688 4.73333 57.4488 5.32C57.7421 5.90667 57.8888 6.74667 57.8888 7.84V15H56.4088V8.1C56.4088 7.22 56.3154 6.61333 56.1288 6.28C55.9554 5.93333 55.6288 5.76 55.1488 5.76C54.7221 5.76 54.3754 5.9 54.1088 6.18C53.8421 6.44667 53.7088 6.86 53.7088 7.42V15H52.2288V8.1C52.2288 7.22 52.1354 6.61333 51.9488 6.28C51.7754 5.93333 51.4554 5.76 50.9888 5.76C50.5621 5.76 50.2088 5.9 49.9288 6.18C49.6621 6.44667 49.5288 6.86 49.5288 7.42V15H48.0488ZM77.5931 2.4C77.1265 2.4 76.7998 2.30667 76.6131 2.12C76.4265 1.92 76.3331 1.67333 76.3331 1.38V1.06C76.3331 0.766666 76.4265 0.526666 76.6131 0.339999C76.7998 0.139999 77.1265 0.0399995 77.5931 0.0399995C78.0598 0.0399995 78.3865 0.139999 78.5731 0.339999C78.7598 0.526666 78.8531 0.766666 78.8531 1.06V1.38C78.8531 1.67333 78.7598 1.92 78.5731 2.12C78.3865 2.30667 78.0598 2.4 77.5931 2.4ZM73.0731 13.64H76.7931V6.04H73.0731V4.68H78.3931V13.64H81.8731V15H73.0731V13.64ZM84.8453 4.68H86.4453V6.36H86.5253C87.192 5.08 88.252 4.44 89.7053 4.44C90.972 4.44 91.9586 4.91333 92.6653 5.86C93.3853 6.80667 93.7453 8.13333 93.7453 9.84C93.7453 11.5467 93.3853 12.8733 92.6653 13.82C91.9586 14.7667 90.972 15.24 89.7053 15.24C88.252 15.24 87.192 14.6 86.5253 13.32H86.4453V19H84.8453V4.68ZM89.0853 13.82C90.0186 13.82 90.7386 13.54 91.2453 12.98C91.7653 12.4067 92.0253 11.6533 92.0253 10.72V8.96C92.0253 8.02667 91.7653 7.28 91.2453 6.72C90.7386 6.14667 90.0186 5.86 89.0853 5.86C88.7253 5.86 88.3853 5.90667 88.0653 6C87.7453 6.09333 87.4653 6.23333 87.2253 6.42C86.9853 6.59333 86.792 6.81333 86.6453 7.08C86.512 7.33333 86.4453 7.63333 86.4453 7.98V11.7C86.4453 12.0467 86.512 12.3533 86.6453 12.62C86.792 12.8733 86.9853 13.0933 87.2253 13.28C87.4653 13.4533 87.7453 13.5867 88.0653 13.68C88.3853 13.7733 88.7253 13.82 89.0853 13.82ZM101.058 15.24C99.9775 15.24 99.0442 15.06 98.2575 14.7C97.4842 14.3267 96.8242 13.8333 96.2775 13.22L97.3575 12.28C97.8508 12.8 98.3908 13.2 98.9775 13.48C99.5642 13.76 100.271 13.9 101.098 13.9C101.898 13.9 102.551 13.76 103.058 13.48C103.578 13.1867 103.838 12.7333 103.838 12.12C103.838 11.8533 103.784 11.6333 103.678 11.46C103.584 11.2733 103.451 11.1267 103.278 11.02C103.104 10.9133 102.911 10.8333 102.698 10.78C102.484 10.7133 102.258 10.66 102.018 10.62L100.398 10.38C100.038 10.3267 99.6442 10.2533 99.2175 10.16C98.8042 10.0667 98.4242 9.92 98.0775 9.72C97.7308 9.50667 97.4375 9.22667 97.1975 8.88C96.9708 8.53333 96.8575 8.08 96.8575 7.52C96.8575 7 96.9575 6.55333 97.1575 6.18C97.3708 5.79333 97.6642 5.47333 98.0375 5.22C98.4108 4.95333 98.8508 4.76 99.3575 4.64C99.8642 4.50667 100.418 4.44 101.018 4.44C101.951 4.44 102.758 4.58667 103.438 4.88C104.131 5.17333 104.724 5.58 105.217 6.1L104.178 7.08C104.058 6.93333 103.904 6.78667 103.718 6.64C103.544 6.48 103.324 6.34 103.058 6.22C102.804 6.08667 102.504 5.98 102.158 5.9C101.811 5.82 101.411 5.78 100.958 5.78C100.144 5.78 99.5175 5.92 99.0775 6.2C98.6508 6.48 98.4375 6.88667 98.4375 7.42C98.4375 7.68667 98.4842 7.91333 98.5775 8.1C98.6842 8.27333 98.8242 8.41333 98.9975 8.52C99.1708 8.62667 99.3642 8.71333 99.5775 8.78C99.8042 8.83333 100.031 8.88 100.258 8.92L101.878 9.16C102.251 9.21333 102.644 9.28667 103.058 9.38C103.471 9.47333 103.851 9.62667 104.198 9.84C104.544 10.04 104.831 10.3133 105.058 10.66C105.298 11.0067 105.418 11.46 105.418 12.02C105.418 13.0467 105.018 13.84 104.218 14.4C103.431 14.96 102.378 15.24 101.058 15.24ZM115.37 13.32H115.29C115.183 13.5733 115.05 13.82 114.89 14.06C114.73 14.2867 114.53 14.4867 114.29 14.66C114.063 14.8333 113.79 14.9733 113.47 15.08C113.15 15.1867 112.776 15.24 112.35 15.24C111.27 15.24 110.403 14.9 109.75 14.22C109.096 13.5267 108.77 12.5533 108.77 11.3V4.68H110.37V11.02C110.37 11.9667 110.576 12.6733 110.99 13.14C111.403 13.5933 112.01 13.82 112.81 13.82C113.13 13.82 113.443 13.78 113.75 13.7C114.056 13.62 114.33 13.5 114.57 13.34C114.81 13.18 115.003 12.98 115.15 12.74C115.296 12.4867 115.37 12.1867 115.37 11.84V4.68H116.97V15H115.37V13.32ZM120.002 15V4.68H121.482V5.88H121.562C121.722 5.48 121.949 5.14 122.242 4.86C122.535 4.58 122.969 4.44 123.542 4.44C124.142 4.44 124.589 4.59333 124.882 4.9C125.175 5.19333 125.355 5.58 125.422 6.06H125.482C125.669 5.59333 125.935 5.20667 126.282 4.9C126.629 4.59333 127.109 4.44 127.722 4.44C128.562 4.44 129.122 4.73333 129.402 5.32C129.695 5.90667 129.842 6.74667 129.842 7.84V15H128.362V8.1C128.362 7.22 128.269 6.61333 128.082 6.28C127.909 5.93333 127.582 5.76 127.102 5.76C126.675 5.76 126.329 5.9 126.062 6.18C125.795 6.44667 125.662 6.86 125.662 7.42V15H124.182V8.1C124.182 7.22 124.089 6.61333 123.902 6.28C123.729 5.93333 123.409 5.76 122.942 5.76C122.515 5.76 122.162 5.9 121.882 6.18C121.615 6.44667 121.482 6.86 121.482 7.42V15H120.002ZM151.406 13.32H151.326C150.66 14.6 149.6 15.24 148.146 15.24C146.88 15.24 145.886 14.7667 145.166 13.82C144.46 12.8733 144.106 11.5467 144.106 9.84C144.106 8.13333 144.46 6.80667 145.166 5.86C145.886 4.91333 146.88 4.44 148.146 4.44C149.6 4.44 150.66 5.08 151.326 6.36H151.406V0.2H153.006V15H151.406V13.32ZM148.766 13.82C149.126 13.82 149.466 13.7733 149.786 13.68C150.106 13.5867 150.386 13.4533 150.626 13.28C150.866 13.0933 151.053 12.8733 151.186 12.62C151.333 12.3533 151.406 12.0467 151.406 11.7V7.98C151.406 7.63333 151.333 7.33333 151.186 7.08C151.053 6.81333 150.866 6.59333 150.626 6.42C150.386 6.23333 150.106 6.09333 149.786 6C149.466 5.90667 149.126 5.86 148.766 5.86C147.833 5.86 147.106 6.14667 146.586 6.72C146.08 7.28 145.826 8.02667 145.826 8.96V10.72C145.826 11.6533 146.08 12.4067 146.586 12.98C147.106 13.54 147.833 13.82 148.766 13.82ZM160.898 15.24C160.178 15.24 159.525 15.1133 158.938 14.86C158.365 14.6067 157.872 14.2467 157.458 13.78C157.058 13.3 156.752 12.7333 156.538 12.08C156.325 11.4133 156.218 10.6667 156.218 9.84C156.218 9.02667 156.325 8.28667 156.538 7.62C156.752 6.95333 157.058 6.38667 157.458 5.92C157.872 5.44 158.365 5.07333 158.938 4.82C159.525 4.56667 160.178 4.44 160.898 4.44C161.618 4.44 162.265 4.56667 162.838 4.82C163.425 5.07333 163.918 5.44 164.318 5.92C164.732 6.38667 165.045 6.95333 165.258 7.62C165.472 8.28667 165.578 9.02667 165.578 9.84C165.578 10.6667 165.472 11.4133 165.258 12.08C165.045 12.7333 164.732 13.3 164.318 13.78C163.918 14.2467 163.425 14.6067 162.838 14.86C162.265 15.1133 161.618 15.24 160.898 15.24ZM160.898 13.86C161.792 13.86 162.512 13.5933 163.058 13.06C163.605 12.5267 163.878 11.7 163.878 10.58V9.1C163.878 7.98 163.605 7.15333 163.058 6.62C162.512 6.08667 161.792 5.82 160.898 5.82C160.005 5.82 159.285 6.08667 158.738 6.62C158.192 7.15333 157.918 7.98 157.918 9.1V10.58C157.918 11.7 158.192 12.5267 158.738 13.06C159.285 13.5933 160.005 13.86 160.898 13.86ZM168.491 13.64H172.091V1.56H168.491V0.2H173.691V13.64H177.291V15H168.491V13.64ZM184.883 15.24C184.163 15.24 183.509 15.1133 182.923 14.86C182.349 14.6067 181.856 14.2467 181.443 13.78C181.043 13.3 180.736 12.7333 180.523 12.08C180.309 11.4133 180.203 10.6667 180.203 9.84C180.203 9.02667 180.309 8.28667 180.523 7.62C180.736 6.95333 181.043 6.38667 181.443 5.92C181.856 5.44 182.349 5.07333 182.923 4.82C183.509 4.56667 184.163 4.44 184.883 4.44C185.603 4.44 186.249 4.56667 186.823 4.82C187.409 5.07333 187.903 5.44 188.303 5.92C188.716 6.38667 189.029 6.95333 189.243 7.62C189.456 8.28667 189.563 9.02667 189.563 9.84C189.563 10.6667 189.456 11.4133 189.243 12.08C189.029 12.7333 188.716 13.3 188.303 13.78C187.903 14.2467 187.409 14.6067 186.823 14.86C186.249 15.1133 185.603 15.24 184.883 15.24ZM184.883 13.86C185.776 13.86 186.496 13.5933 187.043 13.06C187.589 12.5267 187.863 11.7 187.863 10.58V9.1C187.863 7.98 187.589 7.15333 187.043 6.62C186.496 6.08667 185.776 5.82 184.883 5.82C183.989 5.82 183.269 6.08667 182.723 6.62C182.176 7.15333 181.903 7.98 181.903 9.1V10.58C181.903 11.7 182.176 12.5267 182.723 13.06C183.269 13.5933 183.989 13.86 184.883 13.86ZM192.415 13.64H195.435V6.04H192.415V4.68H197.035V7.28H197.135C197.348 6.46667 197.748 5.83333 198.335 5.38C198.935 4.91333 199.695 4.68 200.615 4.68H202.055V6.28H200.115C199.195 6.28 198.448 6.54667 197.875 7.08C197.315 7.61333 197.035 8.31333 197.035 9.18V13.64H201.035V15H192.415V13.64ZM220.979 15.24C219.899 15.24 218.966 15.06 218.179 14.7C217.406 14.3267 216.746 13.8333 216.199 13.22L217.279 12.28C217.773 12.8 218.313 13.2 218.899 13.48C219.486 13.76 220.193 13.9 221.019 13.9C221.819 13.9 222.473 13.76 222.979 13.48C223.499 13.1867 223.759 12.7333 223.759 12.12C223.759 11.8533 223.706 11.6333 223.599 11.46C223.506 11.2733 223.373 11.1267 223.199 11.02C223.026 10.9133 222.833 10.8333 222.619 10.78C222.406 10.7133 222.179 10.66 221.939 10.62L220.319 10.38C219.959 10.3267 219.566 10.2533 219.139 10.16C218.726 10.0667 218.346 9.92 217.999 9.72C217.653 9.50667 217.359 9.22667 217.119 8.88C216.893 8.53333 216.779 8.08 216.779 7.52C216.779 7 216.879 6.55333 217.079 6.18C217.293 5.79333 217.586 5.47333 217.959 5.22C218.333 4.95333 218.773 4.76 219.279 4.64C219.786 4.50667 220.339 4.44 220.939 4.44C221.873 4.44 222.679 4.58667 223.359 4.88C224.053 5.17333 224.646 5.58 225.139 6.1L224.099 7.08C223.979 6.93333 223.826 6.78667 223.639 6.64C223.466 6.48 223.246 6.34 222.979 6.22C222.726 6.08667 222.426 5.98 222.079 5.9C221.733 5.82 221.333 5.78 220.879 5.78C220.066 5.78 219.439 5.92 218.999 6.2C218.573 6.48 218.359 6.88667 218.359 7.42C218.359 7.68667 218.406 7.91333 218.499 8.1C218.606 8.27333 218.746 8.41333 218.919 8.52C219.093 8.62667 219.286 8.71333 219.499 8.78C219.726 8.83333 219.953 8.88 220.179 8.92L221.799 9.16C222.173 9.21333 222.566 9.28667 222.979 9.38C223.393 9.47333 223.773 9.62667 224.119 9.84C224.466 10.04 224.753 10.3133 224.979 10.66C225.219 11.0067 225.339 11.46 225.339 12.02C225.339 13.0467 224.939 13.84 224.139 14.4C223.353 14.96 222.299 15.24 220.979 15.24ZM233.492 2.4C233.025 2.4 232.698 2.30667 232.512 2.12C232.325 1.92 232.232 1.67333 232.232 1.38V1.06C232.232 0.766666 232.325 0.526666 232.512 0.339999C232.698 0.139999 233.025 0.0399995 233.492 0.0399995C233.958 0.0399995 234.285 0.139999 234.472 0.339999C234.658 0.526666 234.752 0.766666 234.752 1.06V1.38C234.752 1.67333 234.658 1.92 234.472 2.12C234.285 2.30667 233.958 2.4 233.492 2.4ZM228.972 13.64H232.692V6.04H228.972V4.68H234.292V13.64H237.772V15H228.972V13.64ZM245.344 15C244.557 15 243.977 14.78 243.604 14.34C243.244 13.9 243.064 13.3333 243.064 12.64V6.04H239.624V4.68H242.184C242.53 4.68 242.77 4.61333 242.904 4.48C243.05 4.33333 243.124 4.08667 243.124 3.74V1.04H244.664V4.68H249.364V6.04H244.664V13.64H249.364V15H245.344ZM8.9 45C8.27333 45 7.82667 44.84 7.56 44.52C7.29333 44.2 7.12667 43.8 7.06 43.32H6.96C6.73333 43.92 6.36667 44.3933 5.86 44.74C5.36667 45.0733 4.7 45.24 3.86 45.24C2.78 45.24 1.92 44.96 1.28 44.4C0.64 43.84 0.32 43.0733 0.32 42.1C0.32 41.14 0.666667 40.4 1.36 39.88C2.06667 39.36 3.2 39.1 4.76 39.1H6.96V38.08C6.96 37.32 6.74667 36.7533 6.32 36.38C5.89333 35.9933 5.28667 35.8 4.5 35.8C3.80667 35.8 3.24 35.94 2.8 36.22C2.36 36.4867 2.00667 36.8533 1.74 37.32L0.66 36.52C0.793333 36.2533 0.973333 35.9933 1.2 35.74C1.42667 35.4867 1.70667 35.2667 2.04 35.08C2.37333 34.88 2.75333 34.7267 3.18 34.62C3.60667 34.5 4.08 34.44 4.6 34.44C5.81333 34.44 6.77333 34.7467 7.48 35.36C8.2 35.9733 8.56 36.8267 8.56 37.92V43.6H10V45H8.9ZM4.14 43.9C4.55333 43.9 4.92667 43.8533 5.26 43.76C5.60667 43.6533 5.90667 43.52 6.16 43.36C6.41333 43.1867 6.60667 42.9867 6.74 42.76C6.88667 42.52 6.96 42.2667 6.96 42V40.3H4.76C3.8 40.3 3.1 40.4333 2.66 40.7C2.22 40.9667 2 41.3533 2 41.86V42.28C2 42.8133 2.18667 43.22 2.56 43.5C2.94667 43.7667 3.47333 43.9 4.14 43.9ZM12.0722 45V34.68H13.5522V35.88H13.6322C13.7922 35.48 14.0189 35.14 14.3122 34.86C14.6055 34.58 15.0389 34.44 15.6122 34.44C16.2122 34.44 16.6589 34.5933 16.9522 34.9C17.2455 35.1933 17.4255 35.58 17.4922 36.06H17.5522C17.7389 35.5933 18.0055 35.2067 18.3522 34.9C18.6989 34.5933 19.1789 34.44 19.7922 34.44C20.6322 34.44 21.1922 34.7333 21.4722 35.32C21.7655 35.9067 21.9122 36.7467 21.9122 37.84V45H20.4322V38.1C20.4322 37.22 20.3389 36.6133 20.1522 36.28C19.9789 35.9333 19.6522 35.76 19.1722 35.76C18.7455 35.76 18.3989 35.9 18.1322 36.18C17.8655 36.4467 17.7322 36.86 17.7322 37.42V45H16.2522V38.1C16.2522 37.22 16.1589 36.6133 15.9722 36.28C15.7989 35.9333 15.4789 35.76 15.0122 35.76C14.5855 35.76 14.2322 35.9 13.9522 36.18C13.6855 36.4467 13.5522 36.86 13.5522 37.42V45H12.0722ZM29.1644 45.24C28.4177 45.24 27.7444 45.1133 27.1444 44.86C26.5577 44.6067 26.051 44.2467 25.6244 43.78C25.211 43.3 24.891 42.7333 24.6644 42.08C24.4377 41.4133 24.3244 40.6733 24.3244 39.86C24.3244 39.0333 24.4377 38.2867 24.6644 37.62C24.9044 36.9533 25.231 36.3867 25.6444 35.92C26.0577 35.44 26.551 35.0733 27.1244 34.82C27.711 34.5667 28.3577 34.44 29.0644 34.44C29.7577 34.44 30.3844 34.5667 30.9444 34.82C31.5177 35.0733 32.0044 35.4267 32.4044 35.88C32.8044 36.32 33.111 36.8467 33.3244 37.46C33.5377 38.0733 33.6444 38.7467 33.6444 39.48V40.24H26.0044V40.72C26.0044 41.1733 26.0777 41.5933 26.2244 41.98C26.371 42.3667 26.5777 42.7 26.8444 42.98C27.1244 43.26 27.4577 43.48 27.8444 43.64C28.2444 43.7867 28.6844 43.86 29.1644 43.86C29.8577 43.86 30.4577 43.7 30.9644 43.38C31.471 43.06 31.8577 42.62 32.1244 42.06L33.3044 42.86C32.9977 43.5533 32.4844 44.1267 31.7644 44.58C31.0577 45.02 30.191 45.24 29.1644 45.24ZM29.0644 35.76C28.6244 35.76 28.2177 35.84 27.8444 36C27.471 36.16 27.1444 36.38 26.8644 36.66C26.5977 36.94 26.3844 37.2733 26.2244 37.66C26.0777 38.0333 26.0044 38.4467 26.0044 38.9V39.04H31.9244V38.82C31.9244 38.3667 31.851 37.9533 31.7044 37.58C31.571 37.2067 31.3777 36.8867 31.1244 36.62C30.8844 36.34 30.5844 36.1267 30.2244 35.98C29.8777 35.8333 29.491 35.76 29.0644 35.76ZM41.4766 45C40.6899 45 40.1099 44.78 39.7366 44.34C39.3766 43.9 39.1966 43.3333 39.1966 42.64V36.04H35.7566V34.68H38.3166C38.6632 34.68 38.9032 34.6133 39.0366 34.48C39.1832 34.3333 39.2566 34.0867 39.2566 33.74V31.04H40.7966V34.68H45.4966V36.04H40.7966V43.64H45.4966V45H41.4766ZM52.1087 42.28H54.6888L52.3888 47.82H51.0488L52.1087 42.28ZM77.3131 45.24C76.5665 45.24 75.8998 45.1133 75.3131 44.86C74.7398 44.5933 74.2531 44.2267 73.8531 43.76C73.4531 43.2933 73.1465 42.7267 72.9331 42.06C72.7331 41.3933 72.6331 40.6533 72.6331 39.84C72.6331 39.0267 72.7398 38.2867 72.9531 37.62C73.1665 36.9533 73.4731 36.3867 73.8731 35.92C74.2731 35.44 74.7598 35.0733 75.3331 34.82C75.9065 34.5667 76.5598 34.44 77.2931 34.44C78.2931 34.44 79.1065 34.66 79.7331 35.1C80.3598 35.54 80.8198 36.1133 81.1131 36.82L79.8331 37.5C79.6465 36.9667 79.3331 36.5533 78.8931 36.26C78.4665 35.9667 77.9331 35.82 77.2931 35.82C76.8265 35.82 76.4065 35.9 76.0331 36.06C75.6731 36.2067 75.3665 36.42 75.1131 36.7C74.8598 36.98 74.6665 37.3133 74.5331 37.7C74.4131 38.0867 74.3531 38.5067 74.3531 38.96V40.72C74.3531 41.1733 74.4131 41.5933 74.5331 41.98C74.6665 42.3667 74.8598 42.7 75.1131 42.98C75.3665 43.26 75.6798 43.48 76.0531 43.64C76.4265 43.7867 76.8531 43.86 77.3331 43.86C78.0265 43.86 78.5998 43.7 79.0531 43.38C79.5065 43.06 79.8665 42.62 80.1331 42.06L81.2731 42.84C80.9665 43.5333 80.4865 44.1067 79.8331 44.56C79.1931 45.0133 78.3531 45.24 77.3131 45.24ZM88.9453 45.24C88.2253 45.24 87.572 45.1133 86.9853 44.86C86.412 44.6067 85.9186 44.2467 85.5053 43.78C85.1053 43.3 84.7986 42.7333 84.5853 42.08C84.372 41.4133 84.2653 40.6667 84.2653 39.84C84.2653 39.0267 84.372 38.2867 84.5853 37.62C84.7986 36.9533 85.1053 36.3867 85.5053 35.92C85.9186 35.44 86.412 35.0733 86.9853 34.82C87.572 34.5667 88.2253 34.44 88.9453 34.44C89.6653 34.44 90.312 34.5667 90.8853 34.82C91.472 35.0733 91.9653 35.44 92.3653 35.92C92.7786 36.3867 93.092 36.9533 93.3053 37.62C93.5186 38.2867 93.6253 39.0267 93.6253 39.84C93.6253 40.6667 93.5186 41.4133 93.3053 42.08C93.092 42.7333 92.7786 43.3 92.3653 43.78C91.9653 44.2467 91.472 44.6067 90.8853 44.86C90.312 45.1133 89.6653 45.24 88.9453 45.24ZM88.9453 43.86C89.8386 43.86 90.5586 43.5933 91.1053 43.06C91.652 42.5267 91.9253 41.7 91.9253 40.58V39.1C91.9253 37.98 91.652 37.1533 91.1053 36.62C90.5586 36.0867 89.8386 35.82 88.9453 35.82C88.052 35.82 87.332 36.0867 86.7853 36.62C86.2386 37.1533 85.9653 37.98 85.9653 39.1V40.58C85.9653 41.7 86.2386 42.5267 86.7853 43.06C87.332 43.5933 88.052 43.86 88.9453 43.86ZM96.8975 45V34.68H98.4975V36.36H98.5775C98.6842 36.1067 98.8175 35.8667 98.9775 35.64C99.1375 35.4 99.3308 35.1933 99.5575 35.02C99.7975 34.8467 100.078 34.7067 100.398 34.6C100.718 34.4933 101.091 34.44 101.518 34.44C102.598 34.44 103.464 34.7867 104.118 35.48C104.771 36.16 105.098 37.1267 105.098 38.38V45H103.498V38.66C103.498 37.7133 103.291 37.0133 102.878 36.56C102.464 36.0933 101.858 35.86 101.058 35.86C100.738 35.86 100.424 35.9 100.118 35.98C99.8108 36.06 99.5375 36.18 99.2975 36.34C99.0575 36.5 98.8642 36.7067 98.7175 36.96C98.5708 37.2133 98.4975 37.5067 98.4975 37.84V45H96.8975ZM113.05 45.24C111.97 45.24 111.036 45.06 110.25 44.7C109.476 44.3267 108.816 43.8333 108.27 43.22L109.35 42.28C109.843 42.8 110.383 43.2 110.97 43.48C111.556 43.76 112.263 43.9 113.09 43.9C113.89 43.9 114.543 43.76 115.05 43.48C115.57 43.1867 115.83 42.7333 115.83 42.12C115.83 41.8533 115.776 41.6333 115.67 41.46C115.576 41.2733 115.443 41.1267 115.27 41.02C115.096 40.9133 114.903 40.8333 114.69 40.78C114.476 40.7133 114.25 40.66 114.01 40.62L112.39 40.38C112.03 40.3267 111.636 40.2533 111.21 40.16C110.796 40.0667 110.416 39.92 110.07 39.72C109.723 39.5067 109.43 39.2267 109.19 38.88C108.963 38.5333 108.85 38.08 108.85 37.52C108.85 37 108.95 36.5533 109.15 36.18C109.363 35.7933 109.656 35.4733 110.03 35.22C110.403 34.9533 110.843 34.76 111.35 34.64C111.856 34.5067 112.41 34.44 113.01 34.44C113.943 34.44 114.75 34.5867 115.43 34.88C116.123 35.1733 116.716 35.58 117.21 36.1L116.17 37.08C116.05 36.9333 115.896 36.7867 115.71 36.64C115.536 36.48 115.316 36.34 115.05 36.22C114.796 36.0867 114.496 35.98 114.15 35.9C113.803 35.82 113.403 35.78 112.95 35.78C112.136 35.78 111.51 35.92 111.07 36.2C110.643 36.48 110.43 36.8867 110.43 37.42C110.43 37.6867 110.476 37.9133 110.57 38.1C110.676 38.2733 110.816 38.4133 110.99 38.52C111.163 38.6267 111.356 38.7133 111.57 38.78C111.796 38.8333 112.023 38.88 112.25 38.92L113.87 39.16C114.243 39.2133 114.636 39.2867 115.05 39.38C115.463 39.4733 115.843 39.6267 116.19 39.84C116.536 40.04 116.823 40.3133 117.05 40.66C117.29 41.0067 117.41 41.46 117.41 42.02C117.41 43.0467 117.01 43.84 116.21 44.4C115.423 44.96 114.37 45.24 113.05 45.24ZM125.102 45.24C124.355 45.24 123.682 45.1133 123.082 44.86C122.495 44.6067 121.989 44.2467 121.562 43.78C121.149 43.3 120.829 42.7333 120.602 42.08C120.375 41.4133 120.262 40.6733 120.262 39.86C120.262 39.0333 120.375 38.2867 120.602 37.62C120.842 36.9533 121.169 36.3867 121.582 35.92C121.995 35.44 122.489 35.0733 123.062 34.82C123.649 34.5667 124.295 34.44 125.002 34.44C125.695 34.44 126.322 34.5667 126.882 34.82C127.455 35.0733 127.942 35.4267 128.342 35.88C128.742 36.32 129.049 36.8467 129.262 37.46C129.475 38.0733 129.582 38.7467 129.582 39.48V40.24H121.942V40.72C121.942 41.1733 122.015 41.5933 122.162 41.98C122.309 42.3667 122.515 42.7 122.782 42.98C123.062 43.26 123.395 43.48 123.782 43.64C124.182 43.7867 124.622 43.86 125.102 43.86C125.795 43.86 126.395 43.7 126.902 43.38C127.409 43.06 127.795 42.62 128.062 42.06L129.242 42.86C128.935 43.5533 128.422 44.1267 127.702 44.58C126.995 45.02 126.129 45.24 125.102 45.24ZM125.002 35.76C124.562 35.76 124.155 35.84 123.782 36C123.409 36.16 123.082 36.38 122.802 36.66C122.535 36.94 122.322 37.2733 122.162 37.66C122.015 38.0333 121.942 38.4467 121.942 38.9V39.04H127.862V38.82C127.862 38.3667 127.789 37.9533 127.642 37.58C127.509 37.2067 127.315 36.8867 127.062 36.62C126.822 36.34 126.522 36.1267 126.162 35.98C125.815 35.8333 125.429 35.76 125.002 35.76ZM137.274 45.24C136.527 45.24 135.861 45.1133 135.274 44.86C134.701 44.5933 134.214 44.2267 133.814 43.76C133.414 43.2933 133.107 42.7267 132.894 42.06C132.694 41.3933 132.594 40.6533 132.594 39.84C132.594 39.0267 132.701 38.2867 132.914 37.62C133.127 36.9533 133.434 36.3867 133.834 35.92C134.234 35.44 134.721 35.0733 135.294 34.82C135.867 34.5667 136.521 34.44 137.254 34.44C138.254 34.44 139.067 34.66 139.694 35.1C140.321 35.54 140.781 36.1133 141.074 36.82L139.794 37.5C139.607 36.9667 139.294 36.5533 138.854 36.26C138.427 35.9667 137.894 35.82 137.254 35.82C136.787 35.82 136.367 35.9 135.994 36.06C135.634 36.2067 135.327 36.42 135.074 36.7C134.821 36.98 134.627 37.3133 134.494 37.7C134.374 38.0867 134.314 38.5067 134.314 38.96V40.72C134.314 41.1733 134.374 41.5933 134.494 41.98C134.627 42.3667 134.821 42.7 135.074 42.98C135.327 43.26 135.641 43.48 136.014 43.64C136.387 43.7867 136.814 43.86 137.294 43.86C137.987 43.86 138.561 43.7 139.014 43.38C139.467 43.06 139.827 42.62 140.094 42.06L141.234 42.84C140.927 43.5333 140.447 44.1067 139.794 44.56C139.154 45.0133 138.314 45.24 137.274 45.24ZM149.406 45C148.62 45 148.04 44.78 147.666 44.34C147.306 43.9 147.126 43.3333 147.126 42.64V36.04H143.686V34.68H146.246C146.593 34.68 146.833 34.6133 146.966 34.48C147.113 34.3333 147.186 34.0867 147.186 33.74V31.04H148.726V34.68H153.426V36.04H148.726V43.64H153.426V45H149.406ZM161.078 45.24C160.332 45.24 159.658 45.1133 159.058 44.86C158.472 44.6067 157.965 44.2467 157.538 43.78C157.125 43.3 156.805 42.7333 156.578 42.08C156.352 41.4133 156.238 40.6733 156.238 39.86C156.238 39.0333 156.352 38.2867 156.578 37.62C156.818 36.9533 157.145 36.3867 157.558 35.92C157.972 35.44 158.465 35.0733 159.038 34.82C159.625 34.5667 160.272 34.44 160.978 34.44C161.672 34.44 162.298 34.5667 162.858 34.82C163.432 35.0733 163.918 35.4267 164.318 35.88C164.718 36.32 165.025 36.8467 165.238 37.46C165.452 38.0733 165.558 38.7467 165.558 39.48V40.24H157.918V40.72C157.918 41.1733 157.992 41.5933 158.138 41.98C158.285 42.3667 158.492 42.7 158.758 42.98C159.038 43.26 159.372 43.48 159.758 43.64C160.158 43.7867 160.598 43.86 161.078 43.86C161.772 43.86 162.372 43.7 162.878 43.38C163.385 43.06 163.772 42.62 164.038 42.06L165.218 42.86C164.912 43.5533 164.398 44.1267 163.678 44.58C162.972 45.02 162.105 45.24 161.078 45.24ZM160.978 35.76C160.538 35.76 160.132 35.84 159.758 36C159.385 36.16 159.058 36.38 158.778 36.66C158.512 36.94 158.298 37.2733 158.138 37.66C157.992 38.0333 157.918 38.4467 157.918 38.9V39.04H163.838V38.82C163.838 38.3667 163.765 37.9533 163.618 37.58C163.485 37.2067 163.292 36.8867 163.038 36.62C162.798 36.34 162.498 36.1267 162.138 35.98C161.792 35.8333 161.405 35.76 160.978 35.76ZM173.391 45C172.604 45 172.024 44.78 171.651 44.34C171.291 43.9 171.111 43.3333 171.111 42.64V36.04H167.671V34.68H170.231C170.577 34.68 170.817 34.6133 170.951 34.48C171.097 34.3333 171.171 34.0867 171.171 33.74V31.04H172.711V34.68H177.411V36.04H172.711V43.64H177.411V45H173.391ZM187.323 43.32H187.243C187.136 43.5733 187.003 43.82 186.843 44.06C186.683 44.2867 186.483 44.4867 186.243 44.66C186.016 44.8333 185.743 44.9733 185.423 45.08C185.103 45.1867 184.729 45.24 184.303 45.24C183.223 45.24 182.356 44.9 181.703 44.22C181.049 43.5267 180.723 42.5533 180.723 41.3V34.68H182.323V41.02C182.323 41.9667 182.529 42.6733 182.943 43.14C183.356 43.5933 183.963 43.82 184.763 43.82C185.083 43.82 185.396 43.78 185.703 43.7C186.009 43.62 186.283 43.5 186.523 43.34C186.763 43.18 186.956 42.98 187.103 42.74C187.249 42.4867 187.323 42.1867 187.323 41.84V34.68H188.923V45H187.323V43.32ZM192.415 43.64H195.435V36.04H192.415V34.68H197.035V37.28H197.135C197.348 36.4667 197.748 35.8333 198.335 35.38C198.935 34.9133 199.695 34.68 200.615 34.68H202.055V36.28H200.115C199.195 36.28 198.448 36.5467 197.875 37.08C197.315 37.6133 197.035 38.3133 197.035 39.18V43.64H201.035V45H192.415V43.64ZM8.9 75C8.27333 75 7.82667 74.84 7.56 74.52C7.29333 74.2 7.12667 73.8 7.06 73.32H6.96C6.73333 73.92 6.36667 74.3933 5.86 74.74C5.36667 75.0733 4.7 75.24 3.86 75.24C2.78 75.24 1.92 74.96 1.28 74.4C0.64 73.84 0.32 73.0733 0.32 72.1C0.32 71.14 0.666667 70.4 1.36 69.88C2.06667 69.36 3.2 69.1 4.76 69.1H6.96V68.08C6.96 67.32 6.74667 66.7533 6.32 66.38C5.89333 65.9933 5.28667 65.8 4.5 65.8C3.80667 65.8 3.24 65.94 2.8 66.22C2.36 66.4867 2.00667 66.8533 1.74 67.32L0.66 66.52C0.793333 66.2533 0.973333 65.9933 1.2 65.74C1.42667 65.4867 1.70667 65.2667 2.04 65.08C2.37333 64.88 2.75333 64.7267 3.18 64.62C3.60667 64.5 4.08 64.44 4.6 64.44C5.81333 64.44 6.77333 64.7467 7.48 65.36C8.2 65.9733 8.56 66.8267 8.56 67.92V73.6H10V75H8.9ZM4.14 73.9C4.55333 73.9 4.92667 73.8533 5.26 73.76C5.60667 73.6533 5.90667 73.52 6.16 73.36C6.41333 73.1867 6.60667 72.9867 6.74 72.76C6.88667 72.52 6.96 72.2667 6.96 72V70.3H4.76C3.8 70.3 3.1 70.4333 2.66 70.7C2.22 70.9667 2 71.3533 2 71.86V72.28C2 72.8133 2.18667 73.22 2.56 73.5C2.94667 73.7667 3.47333 73.9 4.14 73.9ZM19.4922 73.32H19.4122C18.7455 74.6 17.6855 75.24 16.2322 75.24C14.9655 75.24 13.9722 74.7667 13.2522 73.82C12.5455 72.8733 12.1922 71.5467 12.1922 69.84C12.1922 68.1333 12.5455 66.8067 13.2522 65.86C13.9722 64.9133 14.9655 64.44 16.2322 64.44C17.6855 64.44 18.7455 65.08 19.4122 66.36H19.4922V60.2H21.0922V75H19.4922V73.32ZM16.8522 73.82C17.2122 73.82 17.5522 73.7733 17.8722 73.68C18.1922 73.5867 18.4722 73.4533 18.7122 73.28C18.9522 73.0933 19.1389 72.8733 19.2722 72.62C19.4189 72.3533 19.4922 72.0467 19.4922 71.7V67.98C19.4922 67.6333 19.4189 67.3333 19.2722 67.08C19.1389 66.8133 18.9522 66.5933 18.7122 66.42C18.4722 66.2333 18.1922 66.0933 17.8722 66C17.5522 65.9067 17.2122 65.86 16.8522 65.86C15.9189 65.86 15.1922 66.1467 14.6722 66.72C14.1655 67.28 13.9122 68.0267 13.9122 68.96V70.72C13.9122 71.6533 14.1655 72.4067 14.6722 72.98C15.1922 73.54 15.9189 73.82 16.8522 73.82ZM29.6244 62.4C29.1577 62.4 28.831 62.3067 28.6444 62.12C28.4577 61.92 28.3644 61.6733 28.3644 61.38V61.06C28.3644 60.7667 28.4577 60.5267 28.6444 60.34C28.831 60.14 29.1577 60.04 29.6244 60.04C30.091 60.04 30.4177 60.14 30.6044 60.34C30.791 60.5267 30.8844 60.7667 30.8844 61.06V61.38C30.8844 61.6733 30.791 61.92 30.6044 62.12C30.4177 62.3067 30.091 62.4 29.6244 62.4ZM25.1044 73.64H28.8244V66.04H25.1044V64.68H30.4244V73.64H33.9044V75H25.1044V73.64ZM36.8766 64.68H38.4766V66.36H38.5566C39.2232 65.08 40.2832 64.44 41.7366 64.44C43.0032 64.44 43.9899 64.9133 44.6966 65.86C45.4166 66.8067 45.7766 68.1333 45.7766 69.84C45.7766 71.5467 45.4166 72.8733 44.6966 73.82C43.9899 74.7667 43.0032 75.24 41.7366 75.24C40.2832 75.24 39.2232 74.6 38.5566 73.32H38.4766V79H36.8766V64.68ZM41.1166 73.82C42.0499 73.82 42.7699 73.54 43.2766 72.98C43.7966 72.4067 44.0566 71.6533 44.0566 70.72V68.96C44.0566 68.0267 43.7966 67.28 43.2766 66.72C42.7699 66.1467 42.0499 65.86 41.1166 65.86C40.7566 65.86 40.4166 65.9067 40.0966 66C39.7766 66.0933 39.4966 66.2333 39.2566 66.42C39.0166 66.5933 38.8232 66.8133 38.6766 67.08C38.5432 67.3333 38.4766 67.6333 38.4766 67.98V71.7C38.4766 72.0467 38.5432 72.3533 38.6766 72.62C38.8232 72.8733 39.0166 73.0933 39.2566 73.28C39.4966 73.4533 39.7766 73.5867 40.0966 73.68C40.4166 73.7733 40.7566 73.82 41.1166 73.82ZM53.6088 62.4C53.1421 62.4 52.8154 62.3067 52.6288 62.12C52.4421 61.92 52.3488 61.6733 52.3488 61.38V61.06C52.3488 60.7667 52.4421 60.5267 52.6288 60.34C52.8154 60.14 53.1421 60.04 53.6088 60.04C54.0754 60.04 54.4021 60.14 54.5888 60.34C54.7754 60.5267 54.8688 60.7667 54.8688 61.06V61.38C54.8688 61.6733 54.7754 61.92 54.5888 62.12C54.4021 62.3067 54.0754 62.4 53.6088 62.4ZM49.0888 73.64H52.8088V66.04H49.0888V64.68H54.4088V73.64H57.8888V75H49.0888V73.64ZM65.0809 75.24C64.0009 75.24 63.0676 75.06 62.2809 74.7C61.5076 74.3267 60.8476 73.8333 60.3009 73.22L61.3809 72.28C61.8743 72.8 62.4143 73.2 63.0009 73.48C63.5876 73.76 64.2943 73.9 65.1209 73.9C65.9209 73.9 66.5743 73.76 67.0809 73.48C67.6009 73.1867 67.8609 72.7333 67.8609 72.12C67.8609 71.8533 67.8076 71.6333 67.7009 71.46C67.6076 71.2733 67.4743 71.1267 67.3009 71.02C67.1276 70.9133 66.9343 70.8333 66.7209 70.78C66.5076 70.7133 66.2809 70.66 66.0409 70.62L64.4209 70.38C64.0609 70.3267 63.6676 70.2533 63.2409 70.16C62.8276 70.0667 62.4476 69.92 62.1009 69.72C61.7543 69.5067 61.4609 69.2267 61.2209 68.88C60.9943 68.5333 60.8809 68.08 60.8809 67.52C60.8809 67 60.9809 66.5533 61.1809 66.18C61.3943 65.7933 61.6876 65.4733 62.0609 65.22C62.4343 64.9533 62.8743 64.76 63.3809 64.64C63.8876 64.5067 64.4409 64.44 65.0409 64.44C65.9743 64.44 66.7809 64.5867 67.4609 64.88C68.1543 65.1733 68.7476 65.58 69.2409 66.1L68.2009 67.08C68.0809 66.9333 67.9276 66.7867 67.7409 66.64C67.5676 66.48 67.3476 66.34 67.0809 66.22C66.8276 66.0867 66.5276 65.98 66.1809 65.9C65.8343 65.82 65.4343 65.78 64.9809 65.78C64.1676 65.78 63.5409 65.92 63.1009 66.2C62.6743 66.48 62.4609 66.8867 62.4609 67.42C62.4609 67.6867 62.5076 67.9133 62.6009 68.1C62.7076 68.2733 62.8476 68.4133 63.0209 68.52C63.1943 68.6267 63.3876 68.7133 63.6009 68.78C63.8276 68.8333 64.0543 68.88 64.2809 68.92L65.9009 69.16C66.2743 69.2133 66.6676 69.2867 67.0809 69.38C67.4943 69.4733 67.8743 69.6267 68.2209 69.84C68.5676 70.04 68.8543 70.3133 69.0809 70.66C69.3209 71.0067 69.4409 71.46 69.4409 72.02C69.4409 73.0467 69.0409 73.84 68.2409 74.4C67.4543 74.96 66.4009 75.24 65.0809 75.24ZM77.3131 75.24C76.5665 75.24 75.8998 75.1133 75.3131 74.86C74.7398 74.5933 74.2531 74.2267 73.8531 73.76C73.4531 73.2933 73.1465 72.7267 72.9331 72.06C72.7331 71.3933 72.6331 70.6533 72.6331 69.84C72.6331 69.0267 72.7398 68.2867 72.9531 67.62C73.1665 66.9533 73.4731 66.3867 73.8731 65.92C74.2731 65.44 74.7598 65.0733 75.3331 64.82C75.9065 64.5667 76.5598 64.44 77.2931 64.44C78.2931 64.44 79.1065 64.66 79.7331 65.1C80.3598 65.54 80.8198 66.1133 81.1131 66.82L79.8331 67.5C79.6465 66.9667 79.3331 66.5533 78.8931 66.26C78.4665 65.9667 77.9331 65.82 77.2931 65.82C76.8265 65.82 76.4065 65.9 76.0331 66.06C75.6731 66.2067 75.3665 66.42 75.1131 66.7C74.8598 66.98 74.6665 67.3133 74.5331 67.7C74.4131 68.0867 74.3531 68.5067 74.3531 68.96V70.72C74.3531 71.1733 74.4131 71.5933 74.5331 71.98C74.6665 72.3667 74.8598 72.7 75.1131 72.98C75.3665 73.26 75.6798 73.48 76.0531 73.64C76.4265 73.7867 76.8531 73.86 77.3331 73.86C78.0265 73.86 78.5998 73.7 79.0531 73.38C79.5065 73.06 79.8665 72.62 80.1331 72.06L81.2731 72.84C80.9665 73.5333 80.4865 74.1067 79.8331 74.56C79.1931 75.0133 78.3531 75.24 77.3131 75.24ZM89.5853 62.4C89.1186 62.4 88.792 62.3067 88.6053 62.12C88.4186 61.92 88.3253 61.6733 88.3253 61.38V61.06C88.3253 60.7667 88.4186 60.5267 88.6053 60.34C88.792 60.14 89.1186 60.04 89.5853 60.04C90.052 60.04 90.3786 60.14 90.5653 60.34C90.752 60.5267 90.8453 60.7667 90.8453 61.06V61.38C90.8453 61.6733 90.752 61.92 90.5653 62.12C90.3786 62.3067 90.052 62.4 89.5853 62.4ZM85.0653 73.64H88.7853V66.04H85.0653V64.68H90.3853V73.64H93.8653V75H85.0653V73.64ZM96.8975 75V64.68H98.4975V66.36H98.5775C98.6842 66.1067 98.8175 65.8667 98.9775 65.64C99.1375 65.4 99.3308 65.1933 99.5575 65.02C99.7975 64.8467 100.078 64.7067 100.398 64.6C100.718 64.4933 101.091 64.44 101.518 64.44C102.598 64.44 103.464 64.7867 104.118 65.48C104.771 66.16 105.098 67.1267 105.098 68.38V75H103.498V68.66C103.498 67.7133 103.291 67.0133 102.878 66.56C102.464 66.0933 101.858 65.86 101.058 65.86C100.738 65.86 100.424 65.9 100.118 65.98C99.8108 66.06 99.5375 66.18 99.2975 66.34C99.0575 66.5 98.8642 66.7067 98.7175 66.96C98.5708 67.2133 98.4975 67.5067 98.4975 67.84V75H96.8975ZM118.15 76.18C118.15 77.22 117.716 77.9867 116.85 78.48C115.983 78.9867 114.683 79.24 112.95 79.24C111.283 79.24 110.083 79.02 109.35 78.58C108.63 78.14 108.27 77.5067 108.27 76.68C108.27 76.12 108.416 75.6867 108.71 75.38C109.003 75.0733 109.416 74.8467 109.95 74.7V74.46C109.656 74.3133 109.43 74.1267 109.27 73.9C109.11 73.6733 109.03 73.3867 109.03 73.04C109.03 72.5067 109.203 72.1067 109.55 71.84C109.91 71.5733 110.356 71.3733 110.89 71.24V71.16C110.25 70.88 109.75 70.4667 109.39 69.92C109.043 69.3733 108.87 68.7333 108.87 68C108.87 67.48 108.963 67 109.15 66.56C109.336 66.12 109.603 65.7467 109.95 65.44C110.31 65.12 110.736 64.8733 111.23 64.7C111.723 64.5267 112.27 64.44 112.87 64.44C113.643 64.44 114.323 64.58 114.91 64.86V64.68C114.91 64.28 115.003 63.9467 115.19 63.68C115.376 63.4133 115.696 63.28 116.15 63.28H118.05V64.68H115.73V65.38C116.103 65.7 116.39 66.08 116.59 66.52C116.79 66.96 116.89 67.4533 116.89 68C116.89 68.52 116.79 69 116.59 69.44C116.403 69.88 116.136 70.26 115.79 70.58C115.443 70.8867 115.016 71.1267 114.51 71.3C114.016 71.4733 113.47 71.56 112.87 71.56C112.696 71.56 112.53 71.5533 112.37 71.54C112.21 71.5267 112.05 71.5067 111.89 71.48C111.73 71.5067 111.563 71.5533 111.39 71.62C111.216 71.6733 111.056 71.7533 110.91 71.86C110.763 71.9533 110.643 72.0667 110.55 72.2C110.456 72.3333 110.41 72.4867 110.41 72.66C110.41 72.9667 110.563 73.1733 110.87 73.28C111.176 73.3733 111.576 73.42 112.07 73.42H114.35C115.683 73.42 116.65 73.6733 117.25 74.18C117.85 74.6733 118.15 75.34 118.15 76.18ZM116.65 76.26C116.65 75.8467 116.483 75.5133 116.15 75.26C115.816 75.02 115.236 74.9 114.41 74.9H110.83C110.136 75.18 109.79 75.6467 109.79 76.3C109.79 76.7533 109.97 77.14 110.33 77.46C110.69 77.7933 111.29 77.96 112.13 77.96H113.69C114.623 77.96 115.35 77.8133 115.87 77.52C116.39 77.24 116.65 76.82 116.65 76.26ZM112.87 70.32C113.67 70.32 114.256 70.1333 114.63 69.76C115.016 69.3867 115.21 68.8933 115.21 68.28V67.7C115.21 67.0867 115.016 66.6 114.63 66.24C114.256 65.8667 113.67 65.68 112.87 65.68C112.07 65.68 111.483 65.8667 111.11 66.24C110.736 66.6 110.55 67.0867 110.55 67.7V68.28C110.55 68.8933 110.736 69.3867 111.11 69.76C111.483 70.1333 112.07 70.32 112.87 70.32ZM137.094 75.24C136.347 75.24 135.674 75.1133 135.074 74.86C134.487 74.6067 133.981 74.2467 133.554 73.78C133.141 73.3 132.821 72.7333 132.594 72.08C132.367 71.4133 132.254 70.6733 132.254 69.86C132.254 69.0333 132.367 68.2867 132.594 67.62C132.834 66.9533 133.161 66.3867 133.574 65.92C133.987 65.44 134.481 65.0733 135.054 64.82C135.641 64.5667 136.287 64.44 136.994 64.44C137.687 64.44 138.314 64.5667 138.874 64.82C139.447 65.0733 139.934 65.4267 140.334 65.88C140.734 66.32 141.041 66.8467 141.254 67.46C141.467 68.0733 141.574 68.7467 141.574 69.48V70.24H133.934V70.72C133.934 71.1733 134.007 71.5933 134.154 71.98C134.301 72.3667 134.507 72.7 134.774 72.98C135.054 73.26 135.387 73.48 135.774 73.64C136.174 73.7867 136.614 73.86 137.094 73.86C137.787 73.86 138.387 73.7 138.894 73.38C139.401 73.06 139.787 72.62 140.054 72.06L141.234 72.86C140.927 73.5533 140.414 74.1267 139.694 74.58C138.987 75.02 138.121 75.24 137.094 75.24ZM136.994 65.76C136.554 65.76 136.147 65.84 135.774 66C135.401 66.16 135.074 66.38 134.794 66.66C134.527 66.94 134.314 67.2733 134.154 67.66C134.007 68.0333 133.934 68.4467 133.934 68.9V69.04H139.854V68.82C139.854 68.3667 139.781 67.9533 139.634 67.58C139.501 67.2067 139.307 66.8867 139.054 66.62C138.814 66.34 138.514 66.1267 138.154 65.98C137.807 65.8333 137.421 65.76 136.994 65.76ZM144.506 73.64H148.106V61.56H144.506V60.2H149.706V73.64H153.306V75H144.506V73.64ZM161.538 62.4C161.072 62.4 160.745 62.3067 160.558 62.12C160.372 61.92 160.278 61.6733 160.278 61.38V61.06C160.278 60.7667 160.372 60.5267 160.558 60.34C160.745 60.14 161.072 60.04 161.538 60.04C162.005 60.04 162.332 60.14 162.518 60.34C162.705 60.5267 162.798 60.7667 162.798 61.06V61.38C162.798 61.6733 162.705 61.92 162.518 62.12C162.332 62.3067 162.005 62.4 161.538 62.4ZM157.018 73.64H160.738V66.04H157.018V64.68H162.338V73.64H165.818V75H157.018V73.64ZM173.391 75C172.604 75 172.024 74.78 171.651 74.34C171.291 73.9 171.111 73.3333 171.111 72.64V66.04H167.671V64.68H170.231C170.577 64.68 170.817 64.6133 170.951 64.48C171.097 64.3333 171.171 64.0867 171.171 63.74V61.04H172.711V64.68H177.411V66.04H172.711V73.64H177.411V75H173.391ZM184.883 75.18C184.336 75.18 183.949 75.0667 183.723 74.84C183.509 74.6133 183.403 74.3267 183.403 73.98V73.62C183.403 73.2733 183.509 72.9867 183.723 72.76C183.949 72.5333 184.336 72.42 184.883 72.42C185.429 72.42 185.809 72.5333 186.023 72.76C186.249 72.9867 186.363 73.2733 186.363 73.62V73.98C186.363 74.3267 186.249 74.6133 186.023 74.84C185.809 75.0667 185.429 75.18 184.883 75.18ZM206.127 63.18H205.987V75H204.467V61.04H206.847L211.607 72.74H211.747V61.04H213.267V75H210.887L206.127 63.18ZM223.299 73.32H223.219C223.113 73.5733 222.979 73.82 222.819 74.06C222.659 74.2867 222.459 74.4867 222.219 74.66C221.993 74.8333 221.719 74.9733 221.399 75.08C221.079 75.1867 220.706 75.24 220.279 75.24C219.199 75.24 218.333 74.9 217.679 74.22C217.026 73.5267 216.699 72.5533 216.699 71.3V64.68H218.299V71.02C218.299 71.9667 218.506 72.6733 218.919 73.14C219.333 73.5933 219.939 73.82 220.739 73.82C221.059 73.82 221.373 73.78 221.679 73.7C221.986 73.62 222.259 73.5 222.499 73.34C222.739 73.18 222.933 72.98 223.079 72.74C223.226 72.4867 223.299 72.1867 223.299 71.84V64.68H224.899V75H223.299V73.32ZM228.452 73.64H232.052V61.56H228.452V60.2H233.652V73.64H237.252V75H228.452V73.64ZM240.444 73.64H244.044V61.56H240.444V60.2H245.644V73.64H249.244V75H240.444V73.64ZM260.736 75C260.109 75 259.663 74.84 259.396 74.52C259.129 74.2 258.963 73.8 258.896 73.32H258.796C258.569 73.92 258.203 74.3933 257.696 74.74C257.203 75.0733 256.536 75.24 255.696 75.24C254.616 75.24 253.756 74.96 253.116 74.4C252.476 73.84 252.156 73.0733 252.156 72.1C252.156 71.14 252.503 70.4 253.196 69.88C253.903 69.36 255.036 69.1 256.596 69.1H258.796V68.08C258.796 67.32 258.583 66.7533 258.156 66.38C257.729 65.9933 257.123 65.8 256.336 65.8C255.643 65.8 255.076 65.94 254.636 66.22C254.196 66.4867 253.843 66.8533 253.576 67.32L252.496 66.52C252.629 66.2533 252.809 65.9933 253.036 65.74C253.263 65.4867 253.543 65.2667 253.876 65.08C254.209 64.88 254.589 64.7267 255.016 64.62C255.443 64.5 255.916 64.44 256.436 64.44C257.649 64.44 258.609 64.7467 259.316 65.36C260.036 65.9733 260.396 66.8267 260.396 67.92V73.6H261.836V75H260.736ZM255.976 73.9C256.389 73.9 256.763 73.8533 257.096 73.76C257.443 73.6533 257.743 73.52 257.996 73.36C258.249 73.1867 258.443 72.9867 258.576 72.76C258.723 72.52 258.796 72.2667 258.796 72V70.3H256.596C255.636 70.3 254.936 70.4333 254.496 70.7C254.056 70.9667 253.836 71.3533 253.836 71.86V72.28C253.836 72.8133 254.023 73.22 254.396 73.5C254.783 73.7667 255.309 73.9 255.976 73.9ZM263.908 75V64.68H265.388V65.88H265.468C265.628 65.48 265.855 65.14 266.148 64.86C266.441 64.58 266.875 64.44 267.448 64.44C268.048 64.44 268.495 64.5933 268.788 64.9C269.081 65.1933 269.261 65.58 269.328 66.06H269.388C269.575 65.5933 269.841 65.2067 270.188 64.9C270.535 64.5933 271.015 64.44 271.628 64.44C272.468 64.44 273.028 64.7333 273.308 65.32C273.601 65.9067 273.748 66.7467 273.748 67.84V75H272.268V68.1C272.268 67.22 272.175 66.6133 271.988 66.28C271.815 65.9333 271.488 65.76 271.008 65.76C270.581 65.76 270.235 65.9 269.968 66.18C269.701 66.4467 269.568 66.86 269.568 67.42V75H268.088V68.1C268.088 67.22 267.995 66.6133 267.808 66.28C267.635 65.9333 267.315 65.76 266.848 65.76C266.421 65.76 266.068 65.9 265.788 66.18C265.521 66.4467 265.388 66.86 265.388 67.42V75H263.908ZM0.6 103.64H4.2V91.56H0.6V90.2H5.8V103.64H9.4V105H0.6V103.64ZM19.4322 103.32H19.3522C19.2455 103.573 19.1122 103.82 18.9522 104.06C18.7922 104.287 18.5922 104.487 18.3522 104.66C18.1255 104.833 17.8522 104.973 17.5322 105.08C17.2122 105.187 16.8389 105.24 16.4122 105.24C15.3322 105.24 14.4655 104.9 13.8122 104.22C13.1589 103.527 12.8322 102.553 12.8322 101.3V94.68H14.4322V101.02C14.4322 101.967 14.6389 102.673 15.0522 103.14C15.4655 103.593 16.0722 103.82 16.8722 103.82C17.1922 103.82 17.5055 103.78 17.8122 103.7C18.1189 103.62 18.3922 103.5 18.6322 103.34C18.8722 103.18 19.0655 102.98 19.2122 102.74C19.3589 102.487 19.4322 102.187 19.4322 101.84V94.68H21.0322V105H19.4322V103.32ZM29.3444 105.24C28.5977 105.24 27.931 105.113 27.3444 104.86C26.771 104.593 26.2844 104.227 25.8844 103.76C25.4844 103.293 25.1777 102.727 24.9644 102.06C24.7644 101.393 24.6644 100.653 24.6644 99.84C24.6644 99.0267 24.771 98.2867 24.9844 97.62C25.1977 96.9533 25.5044 96.3867 25.9044 95.92C26.3044 95.44 26.791 95.0733 27.3644 94.82C27.9377 94.5667 28.591 94.44 29.3244 94.44C30.3244 94.44 31.1377 94.66 31.7644 95.1C32.391 95.54 32.851 96.1133 33.1444 96.82L31.8644 97.5C31.6777 96.9667 31.3644 96.5533 30.9244 96.26C30.4977 95.9667 29.9644 95.82 29.3244 95.82C28.8577 95.82 28.4377 95.9 28.0644 96.06C27.7044 96.2067 27.3977 96.42 27.1444 96.7C26.891 96.98 26.6977 97.3133 26.5644 97.7C26.4444 98.0867 26.3844 98.5067 26.3844 98.96V100.72C26.3844 101.173 26.4444 101.593 26.5644 101.98C26.6977 102.367 26.891 102.7 27.1444 102.98C27.3977 103.26 27.711 103.48 28.0844 103.64C28.4577 103.787 28.8844 103.86 29.3644 103.86C30.0577 103.86 30.631 103.7 31.0844 103.38C31.5377 103.06 31.8977 102.62 32.1644 102.06L33.3044 102.84C32.9977 103.533 32.5177 104.107 31.8644 104.56C31.2244 105.013 30.3844 105.24 29.3444 105.24ZM41.4766 105C40.6899 105 40.1099 104.78 39.7366 104.34C39.3766 103.9 39.1966 103.333 39.1966 102.64V96.04H35.7566V94.68H38.3166C38.6632 94.68 38.9032 94.6133 39.0366 94.48C39.1832 94.3333 39.2566 94.0867 39.2566 93.74V91.04H40.7966V94.68H45.4966V96.04H40.7966V103.64H45.4966V105H41.4766ZM55.4088 103.32H55.3288C55.2221 103.573 55.0888 103.82 54.9288 104.06C54.7688 104.287 54.5688 104.487 54.3288 104.66C54.1021 104.833 53.8288 104.973 53.5088 105.08C53.1888 105.187 52.8154 105.24 52.3888 105.24C51.3088 105.24 50.4421 104.9 49.7888 104.22C49.1354 103.527 48.8088 102.553 48.8088 101.3V94.68H50.4088V101.02C50.4088 101.967 50.6154 102.673 51.0288 103.14C51.4421 103.593 52.0488 103.82 52.8487 103.82C53.1688 103.82 53.4821 103.78 53.7888 103.7C54.0954 103.62 54.3688 103.5 54.6088 103.34C54.8488 103.18 55.0421 102.98 55.1888 102.74C55.3354 102.487 55.4088 102.187 55.4088 101.84V94.68H57.0088V105H55.4088V103.32ZM65.0809 105.24C64.0009 105.24 63.0676 105.06 62.2809 104.7C61.5076 104.327 60.8476 103.833 60.3009 103.22L61.3809 102.28C61.8743 102.8 62.4143 103.2 63.0009 103.48C63.5876 103.76 64.2943 103.9 65.1209 103.9C65.9209 103.9 66.5743 103.76 67.0809 103.48C67.6009 103.187 67.8609 102.733 67.8609 102.12C67.8609 101.853 67.8076 101.633 67.7009 101.46C67.6076 101.273 67.4743 101.127 67.3009 101.02C67.1276 100.913 66.9343 100.833 66.7209 100.78C66.5076 100.713 66.2809 100.66 66.0409 100.62L64.4209 100.38C64.0609 100.327 63.6676 100.253 63.2409 100.16C62.8276 100.067 62.4476 99.92 62.1009 99.72C61.7543 99.5067 61.4609 99.2267 61.2209 98.88C60.9943 98.5333 60.8809 98.08 60.8809 97.52C60.8809 97 60.9809 96.5533 61.1809 96.18C61.3943 95.7933 61.6876 95.4733 62.0609 95.22C62.4343 94.9533 62.8743 94.76 63.3809 94.64C63.8876 94.5067 64.4409 94.44 65.0409 94.44C65.9743 94.44 66.7809 94.5867 67.4609 94.88C68.1543 95.1733 68.7476 95.58 69.2409 96.1L68.2009 97.08C68.0809 96.9333 67.9276 96.7867 67.7409 96.64C67.5676 96.48 67.3476 96.34 67.0809 96.22C66.8276 96.0867 66.5276 95.98 66.1809 95.9C65.8343 95.82 65.4343 95.78 64.9809 95.78C64.1676 95.78 63.5409 95.92 63.1009 96.2C62.6743 96.48 62.4609 96.8867 62.4609 97.42C62.4609 97.6867 62.5076 97.9133 62.6009 98.1C62.7076 98.2733 62.8476 98.4133 63.0209 98.52C63.1943 98.6267 63.3876 98.7133 63.6009 98.78C63.8276 98.8333 64.0543 98.88 64.2809 98.92L65.9009 99.16C66.2743 99.2133 66.6676 99.2867 67.0809 99.38C67.4943 99.4733 67.8743 99.6267 68.2209 99.84C68.5676 100.04 68.8543 100.313 69.0809 100.66C69.3209 101.007 69.4409 101.46 69.4409 102.02C69.4409 103.047 69.0409 103.84 68.2409 104.4C67.4543 104.96 66.4009 105.24 65.0809 105.24ZM89.0653 105.24C87.9853 105.24 87.052 105.06 86.2653 104.7C85.492 104.327 84.832 103.833 84.2853 103.22L85.3653 102.28C85.8586 102.8 86.3986 103.2 86.9853 103.48C87.572 103.76 88.2786 103.9 89.1053 103.9C89.9053 103.9 90.5586 103.76 91.0653 103.48C91.5853 103.187 91.8453 102.733 91.8453 102.12C91.8453 101.853 91.792 101.633 91.6853 101.46C91.592 101.273 91.4586 101.127 91.2853 101.02C91.112 100.913 90.9186 100.833 90.7053 100.78C90.492 100.713 90.2653 100.66 90.0253 100.62L88.4053 100.38C88.0453 100.327 87.652 100.253 87.2253 100.16C86.812 100.067 86.432 99.92 86.0853 99.72C85.7386 99.5067 85.4453 99.2267 85.2053 98.88C84.9786 98.5333 84.8653 98.08 84.8653 97.52C84.8653 97 84.9653 96.5533 85.1653 96.18C85.3786 95.7933 85.672 95.4733 86.0453 95.22C86.4186 94.9533 86.8586 94.76 87.3653 94.64C87.872 94.5067 88.4253 94.44 89.0253 94.44C89.9586 94.44 90.7653 94.5867 91.4453 94.88C92.1386 95.1733 92.732 95.58 93.2253 96.1L92.1853 97.08C92.0653 96.9333 91.912 96.7867 91.7253 96.64C91.552 96.48 91.332 96.34 91.0653 96.22C90.812 96.0867 90.512 95.98 90.1653 95.9C89.8186 95.82 89.4186 95.78 88.9653 95.78C88.152 95.78 87.5253 95.92 87.0853 96.2C86.6586 96.48 86.4453 96.8867 86.4453 97.42C86.4453 97.6867 86.492 97.9133 86.5853 98.1C86.692 98.2733 86.832 98.4133 87.0053 98.52C87.1786 98.6267 87.372 98.7133 87.5853 98.78C87.812 98.8333 88.0386 98.88 88.2653 98.92L89.8853 99.16C90.2586 99.2133 90.652 99.2867 91.0653 99.38C91.4786 99.4733 91.8586 99.6267 92.2053 99.84C92.552 100.04 92.8386 100.313 93.0653 100.66C93.3053 101.007 93.4253 101.46 93.4253 102.02C93.4253 103.047 93.0253 103.84 92.2253 104.4C91.4386 104.96 90.3853 105.24 89.0653 105.24ZM101.118 105.24C100.371 105.24 99.6975 105.113 99.0975 104.86C98.5108 104.607 98.0042 104.247 97.5775 103.78C97.1642 103.3 96.8442 102.733 96.6175 102.08C96.3908 101.413 96.2775 100.673 96.2775 99.86C96.2775 99.0333 96.3908 98.2867 96.6175 97.62C96.8575 96.9533 97.1842 96.3867 97.5975 95.92C98.0108 95.44 98.5042 95.0733 99.0775 94.82C99.6642 94.5667 100.311 94.44 101.018 94.44C101.711 94.44 102.338 94.5667 102.898 94.82C103.471 95.0733 103.958 95.4267 104.358 95.88C104.758 96.32 105.064 96.8467 105.278 97.46C105.491 98.0733 105.598 98.7467 105.598 99.48V100.24H97.9575V100.72C97.9575 101.173 98.0308 101.593 98.1775 101.98C98.3242 102.367 98.5308 102.7 98.7975 102.98C99.0775 103.26 99.4108 103.48 99.7975 103.64C100.198 103.787 100.638 103.86 101.118 103.86C101.811 103.86 102.411 103.7 102.918 103.38C103.424 103.06 103.811 102.62 104.078 102.06L105.258 102.86C104.951 103.553 104.438 104.127 103.718 104.58C103.011 105.02 102.144 105.24 101.118 105.24ZM101.018 95.76C100.578 95.76 100.171 95.84 99.7975 96C99.4242 96.16 99.0975 96.38 98.8175 96.66C98.5508 96.94 98.3375 97.2733 98.1775 97.66C98.0308 98.0333 97.9575 98.4467 97.9575 98.9V99.04H103.878V98.82C103.878 98.3667 103.804 97.9533 103.658 97.58C103.524 97.2067 103.331 96.8867 103.078 96.62C102.838 96.34 102.538 96.1267 102.178 95.98C101.831 95.8333 101.444 95.76 101.018 95.76ZM115.43 103.32H115.35C114.683 104.6 113.623 105.24 112.17 105.24C110.903 105.24 109.91 104.767 109.19 103.82C108.483 102.873 108.13 101.547 108.13 99.84C108.13 98.1333 108.483 96.8067 109.19 95.86C109.91 94.9133 110.903 94.44 112.17 94.44C113.623 94.44 114.683 95.08 115.35 96.36H115.43V90.2H117.03V105H115.43V103.32ZM112.79 103.82C113.15 103.82 113.49 103.773 113.81 103.68C114.13 103.587 114.41 103.453 114.65 103.28C114.89 103.093 115.076 102.873 115.21 102.62C115.356 102.353 115.43 102.047 115.43 101.7V97.98C115.43 97.6333 115.356 97.3333 115.21 97.08C115.076 96.8133 114.89 96.5933 114.65 96.42C114.41 96.2333 114.13 96.0933 113.81 96C113.49 95.9067 113.15 95.86 112.79 95.86C111.856 95.86 111.13 96.1467 110.61 96.72C110.103 97.28 109.85 98.0267 109.85 98.96V100.72C109.85 101.653 110.103 102.407 110.61 102.98C111.13 103.54 111.856 103.82 112.79 103.82ZM132.514 103.64H136.114V91.56H132.514V90.2H137.714V103.64H141.314V105H132.514V103.64ZM149.546 92.4C149.08 92.4 148.753 92.3067 148.566 92.12C148.38 91.92 148.286 91.6733 148.286 91.38V91.06C148.286 90.7667 148.38 90.5267 148.566 90.34C148.753 90.14 149.08 90.04 149.546 90.04C150.013 90.04 150.34 90.14 150.526 90.34C150.713 90.5267 150.806 90.7667 150.806 91.06V91.38C150.806 91.6733 150.713 91.92 150.526 92.12C150.34 92.3067 150.013 92.4 149.546 92.4ZM145.026 103.64H148.746V96.04H145.026V94.68H150.346V103.64H153.826V105H145.026V103.64ZM166.118 106.18C166.118 107.22 165.685 107.987 164.818 108.48C163.952 108.987 162.652 109.24 160.918 109.24C159.252 109.24 158.052 109.02 157.318 108.58C156.598 108.14 156.238 107.507 156.238 106.68C156.238 106.12 156.385 105.687 156.678 105.38C156.972 105.073 157.385 104.847 157.918 104.7V104.46C157.625 104.313 157.398 104.127 157.238 103.9C157.078 103.673 156.998 103.387 156.998 103.04C156.998 102.507 157.172 102.107 157.518 101.84C157.878 101.573 158.325 101.373 158.858 101.24V101.16C158.218 100.88 157.718 100.467 157.358 99.92C157.012 99.3733 156.838 98.7333 156.838 98C156.838 97.48 156.932 97 157.118 96.56C157.305 96.12 157.572 95.7467 157.918 95.44C158.278 95.12 158.705 94.8733 159.198 94.7C159.692 94.5267 160.238 94.44 160.838 94.44C161.612 94.44 162.292 94.58 162.878 94.86V94.68C162.878 94.28 162.972 93.9467 163.158 93.68C163.345 93.4133 163.665 93.28 164.118 93.28H166.018V94.68H163.698V95.38C164.072 95.7 164.358 96.08 164.558 96.52C164.758 96.96 164.858 97.4533 164.858 98C164.858 98.52 164.758 99 164.558 99.44C164.372 99.88 164.105 100.26 163.758 100.58C163.412 100.887 162.985 101.127 162.478 101.3C161.985 101.473 161.438 101.56 160.838 101.56C160.665 101.56 160.498 101.553 160.338 101.54C160.178 101.527 160.018 101.507 159.858 101.48C159.698 101.507 159.532 101.553 159.358 101.62C159.185 101.673 159.025 101.753 158.878 101.86C158.732 101.953 158.612 102.067 158.518 102.2C158.425 102.333 158.378 102.487 158.378 102.66C158.378 102.967 158.532 103.173 158.838 103.28C159.145 103.373 159.545 103.42 160.038 103.42H162.318C163.652 103.42 164.618 103.673 165.218 104.18C165.818 104.673 166.118 105.34 166.118 106.18ZM164.618 106.26C164.618 105.847 164.452 105.513 164.118 105.26C163.785 105.02 163.205 104.9 162.378 104.9H158.798C158.105 105.18 157.758 105.647 157.758 106.3C157.758 106.753 157.938 107.14 158.298 107.46C158.658 107.793 159.258 107.96 160.098 107.96H161.658C162.592 107.96 163.318 107.813 163.838 107.52C164.358 107.24 164.618 106.82 164.618 106.26ZM160.838 100.32C161.638 100.32 162.225 100.133 162.598 99.76C162.985 99.3867 163.178 98.8933 163.178 98.28V97.7C163.178 97.0867 162.985 96.6 162.598 96.24C162.225 95.8667 161.638 95.68 160.838 95.68C160.038 95.68 159.452 95.8667 159.078 96.24C158.705 96.6 158.518 97.0867 158.518 97.7V98.28C158.518 98.8933 158.705 99.3867 159.078 99.76C159.452 100.133 160.038 100.32 160.838 100.32ZM175.331 103.32H175.251C175.144 103.573 175.011 103.82 174.851 104.06C174.691 104.287 174.491 104.487 174.251 104.66C174.024 104.833 173.751 104.973 173.431 105.08C173.111 105.187 172.737 105.24 172.311 105.24C171.231 105.24 170.364 104.9 169.711 104.22C169.057 103.527 168.731 102.553 168.731 101.3V94.68H170.331V101.02C170.331 101.967 170.537 102.673 170.951 103.14C171.364 103.593 171.971 103.82 172.771 103.82C173.091 103.82 173.404 103.78 173.711 103.7C174.017 103.62 174.291 103.5 174.531 103.34C174.771 103.18 174.964 102.98 175.111 102.74C175.257 102.487 175.331 102.187 175.331 101.84V94.68H176.931V105H175.331V103.32ZM180.483 103.64H184.083V91.56H180.483V90.2H185.683V103.64H189.283V105H180.483V103.64ZM200.775 105C200.148 105 199.702 104.84 199.435 104.52C199.168 104.2 199.002 103.8 198.935 103.32H198.835C198.608 103.92 198.242 104.393 197.735 104.74C197.242 105.073 196.575 105.24 195.735 105.24C194.655 105.24 193.795 104.96 193.155 104.4C192.515 103.84 192.195 103.073 192.195 102.1C192.195 101.14 192.542 100.4 193.235 99.88C193.942 99.36 195.075 99.1 196.635 99.1H198.835V98.08C198.835 97.32 198.622 96.7533 198.195 96.38C197.768 95.9933 197.162 95.8 196.375 95.8C195.682 95.8 195.115 95.94 194.675 96.22C194.235 96.4867 193.882 96.8533 193.615 97.32L192.535 96.52C192.668 96.2533 192.848 95.9933 193.075 95.74C193.302 95.4867 193.582 95.2667 193.915 95.08C194.248 94.88 194.628 94.7267 195.055 94.62C195.482 94.5 195.955 94.44 196.475 94.44C197.688 94.44 198.648 94.7467 199.355 95.36C200.075 95.9733 200.435 96.8267 200.435 97.92V103.6H201.875V105H200.775ZM196.015 103.9C196.428 103.9 196.802 103.853 197.135 103.76C197.482 103.653 197.782 103.52 198.035 103.36C198.288 103.187 198.482 102.987 198.615 102.76C198.762 102.52 198.835 102.267 198.835 102V100.3H196.635C195.675 100.3 194.975 100.433 194.535 100.7C194.095 100.967 193.875 101.353 193.875 101.86V102.28C193.875 102.813 194.062 103.22 194.435 103.5C194.822 103.767 195.348 103.9 196.015 103.9ZM223.359 103.32H223.279C222.613 104.6 221.553 105.24 220.099 105.24C218.833 105.24 217.839 104.767 217.119 103.82C216.413 102.873 216.059 101.547 216.059 99.84C216.059 98.1333 216.413 96.8067 217.119 95.86C217.839 94.9133 218.833 94.44 220.099 94.44C221.553 94.44 222.613 95.08 223.279 96.36H223.359V94.68H224.959V109H223.359V103.32ZM220.719 103.82C221.079 103.82 221.419 103.773 221.739 103.68C222.059 103.587 222.339 103.453 222.579 103.28C222.819 103.093 223.006 102.873 223.139 102.62C223.286 102.353 223.359 102.047 223.359 101.7V97.98C223.359 97.6333 223.286 97.3333 223.139 97.08C223.006 96.8133 222.819 96.5933 222.579 96.42C222.339 96.2333 222.059 96.0933 221.739 96C221.419 95.9067 221.079 95.86 220.719 95.86C219.786 95.86 219.059 96.1467 218.539 96.72C218.033 97.28 217.779 98.0267 217.779 98.96V100.72C217.779 101.653 218.033 102.407 218.539 102.98C219.059 103.54 219.786 103.82 220.719 103.82ZM235.292 103.32H235.212C235.105 103.573 234.972 103.82 234.812 104.06C234.652 104.287 234.452 104.487 234.212 104.66C233.985 104.833 233.712 104.973 233.392 105.08C233.072 105.187 232.698 105.24 232.272 105.24C231.192 105.24 230.325 104.9 229.672 104.22C229.018 103.527 228.692 102.553 228.692 101.3V94.68H230.292V101.02C230.292 101.967 230.498 102.673 230.912 103.14C231.325 103.593 231.932 103.82 232.732 103.82C233.052 103.82 233.365 103.78 233.672 103.7C233.978 103.62 234.252 103.5 234.492 103.34C234.732 103.18 234.925 102.98 235.072 102.74C235.218 102.487 235.292 102.187 235.292 101.84V94.68H236.892V105H235.292V103.32ZM245.484 92.4C245.017 92.4 244.69 92.3067 244.504 92.12C244.317 91.92 244.224 91.6733 244.224 91.38V91.06C244.224 90.7667 244.317 90.5267 244.504 90.34C244.69 90.14 245.017 90.04 245.484 90.04C245.95 90.04 246.277 90.14 246.464 90.34C246.65 90.5267 246.744 90.7667 246.744 91.06V91.38C246.744 91.6733 246.65 91.92 246.464 92.12C246.277 92.3067 245.95 92.4 245.484 92.4ZM240.964 103.64H244.684V96.04H240.964V94.68H246.284V103.64H249.764V105H240.964V103.64ZM256.956 105.24C255.876 105.24 254.943 105.06 254.156 104.7C253.383 104.327 252.723 103.833 252.176 103.22L253.256 102.28C253.749 102.8 254.289 103.2 254.876 103.48C255.463 103.76 256.169 103.9 256.996 103.9C257.796 103.9 258.449 103.76 258.956 103.48C259.476 103.187 259.736 102.733 259.736 102.12C259.736 101.853 259.683 101.633 259.576 101.46C259.483 101.273 259.349 101.127 259.176 101.02C259.003 100.913 258.809 100.833 258.596 100.78C258.383 100.713 258.156 100.66 257.916 100.62L256.296 100.38C255.936 100.327 255.543 100.253 255.116 100.16C254.703 100.067 254.323 99.92 253.976 99.72C253.629 99.5067 253.336 99.2267 253.096 98.88C252.869 98.5333 252.756 98.08 252.756 97.52C252.756 97 252.856 96.5533 253.056 96.18C253.269 95.7933 253.563 95.4733 253.936 95.22C254.309 94.9533 254.749 94.76 255.256 94.64C255.763 94.5067 256.316 94.44 256.916 94.44C257.849 94.44 258.656 94.5867 259.336 94.88C260.029 95.1733 260.623 95.58 261.116 96.1L260.076 97.08C259.956 96.9333 259.803 96.7867 259.616 96.64C259.443 96.48 259.223 96.34 258.956 96.22C258.703 96.0867 258.403 95.98 258.056 95.9C257.709 95.82 257.309 95.78 256.856 95.78C256.043 95.78 255.416 95.92 254.976 96.2C254.549 96.48 254.336 96.8867 254.336 97.42C254.336 97.6867 254.383 97.9133 254.476 98.1C254.583 98.2733 254.723 98.4133 254.896 98.52C255.069 98.6267 255.263 98.7133 255.476 98.78C255.703 98.8333 255.929 98.88 256.156 98.92L257.776 99.16C258.149 99.2133 258.543 99.2867 258.956 99.38C259.369 99.4733 259.749 99.6267 260.096 99.84C260.443 100.04 260.729 100.313 260.956 100.66C261.196 101.007 261.316 101.46 261.316 102.02C261.316 103.047 260.916 103.84 260.116 104.4C259.329 104.96 258.276 105.24 256.956 105.24ZM0.9 124.68H2.5V126.36H2.58C3.24667 125.08 4.30667 124.44 5.76 124.44C7.02667 124.44 8.01333 124.913 8.72 125.86C9.44 126.807 9.8 128.133 9.8 129.84C9.8 131.547 9.44 132.873 8.72 133.82C8.01333 134.767 7.02667 135.24 5.76 135.24C4.30667 135.24 3.24667 134.6 2.58 133.32H2.5V139H0.9V124.68ZM5.14 133.82C6.07333 133.82 6.79333 133.54 7.3 132.98C7.82 132.407 8.08 131.653 8.08 130.72V128.96C8.08 128.027 7.82 127.28 7.3 126.72C6.79333 126.147 6.07333 125.86 5.14 125.86C4.78 125.86 4.44 125.907 4.12 126C3.8 126.093 3.52 126.233 3.28 126.42C3.04 126.593 2.84667 126.813 2.7 127.08C2.56667 127.333 2.5 127.633 2.5 127.98V131.7C2.5 132.047 2.56667 132.353 2.7 132.62C2.84667 132.873 3.04 133.093 3.28 133.28C3.52 133.453 3.8 133.587 4.12 133.68C4.44 133.773 4.78 133.82 5.14 133.82ZM16.9922 135.24C16.2722 135.24 15.6189 135.113 15.0322 134.86C14.4589 134.607 13.9655 134.247 13.5522 133.78C13.1522 133.3 12.8455 132.733 12.6322 132.08C12.4189 131.413 12.3122 130.667 12.3122 129.84C12.3122 129.027 12.4189 128.287 12.6322 127.62C12.8455 126.953 13.1522 126.387 13.5522 125.92C13.9655 125.44 14.4589 125.073 15.0322 124.82C15.6189 124.567 16.2722 124.44 16.9922 124.44C17.7122 124.44 18.3589 124.567 18.9322 124.82C19.5189 125.073 20.0122 125.44 20.4122 125.92C20.8255 126.387 21.1389 126.953 21.3522 127.62C21.5655 128.287 21.6722 129.027 21.6722 129.84C21.6722 130.667 21.5655 131.413 21.3522 132.08C21.1389 132.733 20.8255 133.3 20.4122 133.78C20.0122 134.247 19.5189 134.607 18.9322 134.86C18.3589 135.113 17.7122 135.24 16.9922 135.24ZM16.9922 133.86C17.8855 133.86 18.6055 133.593 19.1522 133.06C19.6989 132.527 19.9722 131.7 19.9722 130.58V129.1C19.9722 127.98 19.6989 127.153 19.1522 126.62C18.6055 126.087 17.8855 125.82 16.9922 125.82C16.0989 125.82 15.3789 126.087 14.8322 126.62C14.2855 127.153 14.0122 127.98 14.0122 129.1V130.58C14.0122 131.7 14.2855 132.527 14.8322 133.06C15.3789 133.593 16.0989 133.86 16.9922 133.86ZM24.5244 133.64H27.5444V126.04H24.5244V124.68H29.1444V127.28H29.2444C29.4577 126.467 29.8577 125.833 30.4444 125.38C31.0444 124.913 31.8044 124.68 32.7244 124.68H34.1644V126.28H32.2244C31.3044 126.28 30.5577 126.547 29.9844 127.08C29.4244 127.613 29.1444 128.313 29.1444 129.18V133.64H33.1444V135H24.5244V133.64ZM41.4766 135C40.6899 135 40.1099 134.78 39.7366 134.34C39.3766 133.9 39.1966 133.333 39.1966 132.64V126.04H35.7566V124.68H38.3166C38.6632 124.68 38.9032 124.613 39.0366 124.48C39.1832 124.333 39.2566 124.087 39.2566 123.74V121.04H40.7966V124.68H45.4966V126.04H40.7966V133.64H45.4966V135H41.4766ZM56.8688 135C56.2421 135 55.7954 134.84 55.5288 134.52C55.2621 134.2 55.0954 133.8 55.0288 133.32H54.9288C54.7021 133.92 54.3354 134.393 53.8288 134.74C53.3354 135.073 52.6688 135.24 51.8288 135.24C50.7488 135.24 49.8888 134.96 49.2488 134.4C48.6088 133.84 48.2887 133.073 48.2887 132.1C48.2887 131.14 48.6354 130.4 49.3288 129.88C50.0354 129.36 51.1688 129.1 52.7288 129.1H54.9288V128.08C54.9288 127.32 54.7154 126.753 54.2888 126.38C53.8621 125.993 53.2554 125.8 52.4688 125.8C51.7754 125.8 51.2088 125.94 50.7688 126.22C50.3288 126.487 49.9754 126.853 49.7088 127.32L48.6288 126.52C48.7621 126.253 48.9421 125.993 49.1688 125.74C49.3954 125.487 49.6754 125.267 50.0088 125.08C50.3421 124.88 50.7221 124.727 51.1488 124.62C51.5754 124.5 52.0488 124.44 52.5688 124.44C53.7821 124.44 54.7421 124.747 55.4488 125.36C56.1688 125.973 56.5288 126.827 56.5288 127.92V133.6H57.9688V135H56.8688ZM52.1087 133.9C52.5221 133.9 52.8954 133.853 53.2288 133.76C53.5754 133.653 53.8754 133.52 54.1288 133.36C54.3821 133.187 54.5754 132.987 54.7088 132.76C54.8554 132.52 54.9288 132.267 54.9288 132V130.3H52.7288C51.7688 130.3 51.0688 130.433 50.6288 130.7C50.1888 130.967 49.9688 131.353 49.9688 131.86V132.28C49.9688 132.813 50.1554 133.22 50.5288 133.5C50.9154 133.767 51.4421 133.9 52.1087 133.9ZM64.9609 135.18C64.4143 135.18 64.0276 135.067 63.8009 134.84C63.5876 134.613 63.4809 134.327 63.4809 133.98V133.62C63.4809 133.273 63.5876 132.987 63.8009 132.76C64.0276 132.533 64.4143 132.42 64.9609 132.42C65.5076 132.42 65.8876 132.533 66.1009 132.76C66.3276 132.987 66.4409 133.273 66.4409 133.62V133.98C66.4409 134.327 66.3276 134.613 66.1009 134.84C65.8876 135.067 65.5076 135.18 64.9609 135.18Z" fill="#24252E"/>
</svg>
