<svg width="143" height="23" viewBox="0 0 143 23" fill="none" xmlns="http://www.w3.org/2000/svg">
<path d="M8.67 22.36C6.91 22.36 5.38 22.07 4.08 21.49C2.78 20.91 1.73 20.12 0.93 19.12L3.54 16.24C4.3 17.08 5.13 17.7 6.03 18.1C6.95 18.5 7.88 18.7 8.82 18.7C9.9 18.7 10.72 18.46 11.28 17.98C11.84 17.5 12.12 16.81 12.12 15.91C12.12 15.17 11.9 14.61 11.46 14.23C11.04 13.85 10.32 13.58 9.3 13.42L7.11 13.06C5.23 12.74 3.87 12.05 3.03 10.99C2.19 9.91 1.77 8.6 1.77 7.06C1.77 5.04 2.43 3.48 3.75 2.38C5.07 1.26 6.92 0.699999 9.3 0.699999C10.92 0.699999 12.33 0.949999 13.53 1.45C14.73 1.95 15.7 2.63 16.44 3.49L13.89 6.34C13.33 5.72 12.67 5.24 11.91 4.9C11.15 4.54 10.29 4.36 9.33 4.36C7.31 4.36 6.3 5.19 6.3 6.85C6.3 7.57 6.52 8.11 6.96 8.47C7.42 8.83 8.16 9.1 9.18 9.28L11.37 9.67C13.07 9.97 14.38 10.61 15.3 11.59C16.22 12.57 16.68 13.89 16.68 15.55C16.68 16.53 16.51 17.44 16.17 18.28C15.83 19.1 15.32 19.82 14.64 20.44C13.96 21.04 13.12 21.51 12.12 21.85C11.14 22.19 9.99 22.36 8.67 22.36ZM27.4683 22.36C24.6683 22.36 22.5883 21.42 21.2283 19.54C19.8883 17.64 19.2183 14.97 19.2183 11.53C19.2183 8.09 19.8883 5.43 21.2283 3.55C22.5883 1.65 24.6683 0.699999 27.4683 0.699999C28.5483 0.699999 29.4983 0.849999 30.3183 1.15C31.1583 1.43 31.8783 1.83 32.4783 2.35C33.0783 2.87 33.5683 3.5 33.9483 4.24C34.3483 4.98 34.6583 5.81 34.8783 6.73L30.6783 7.75C30.5583 7.25 30.4183 6.79 30.2583 6.37C30.0983 5.95 29.8883 5.59 29.6283 5.29C29.3883 4.99 29.0783 4.76 28.6983 4.6C28.3383 4.42 27.8983 4.33 27.3783 4.33C26.1583 4.33 25.2883 4.81 24.7683 5.77C24.2683 6.71 24.0183 8.02 24.0183 9.7V13.36C24.0183 15.04 24.2683 16.36 24.7683 17.32C25.2883 18.26 26.1583 18.73 27.3783 18.73C28.4183 18.73 29.1683 18.41 29.6283 17.77C30.1083 17.13 30.4583 16.31 30.6783 15.31L34.8783 16.33C34.6583 17.25 34.3483 18.08 33.9483 18.82C33.5683 19.56 33.0783 20.2 32.4783 20.74C31.8783 21.26 31.1583 21.66 30.3183 21.94C29.4983 22.22 28.5483 22.36 27.4683 22.36ZM42.6966 22H38.2566V1.06H46.3566C47.3766 1.06 48.2866 1.22 49.0866 1.54C49.8866 1.84 50.5566 2.28 51.0966 2.86C51.6566 3.44 52.0766 4.14 52.3566 4.96C52.6366 5.78 52.7766 6.7 52.7766 7.72C52.7766 9.2 52.4566 10.47 51.8166 11.53C51.1766 12.59 50.2666 13.29 49.0866 13.63L53.1966 22H48.2766L44.7666 14.23H42.6966V22ZM45.2766 10.75C46.3366 10.75 47.0666 10.55 47.4666 10.15C47.8866 9.75 48.0966 9.09 48.0966 8.17V7.27C48.0966 6.35 47.8866 5.69 47.4666 5.29C47.0666 4.89 46.3366 4.69 45.2766 4.69H42.6966V10.75H45.2766ZM60.1148 1.06V14.32C60.1148 14.98 60.1348 15.59 60.1748 16.15C60.2348 16.69 60.3548 17.15 60.5348 17.53C60.7348 17.91 61.0248 18.21 61.4048 18.43C61.7848 18.63 62.3048 18.73 62.9648 18.73C63.6248 18.73 64.1448 18.63 64.5248 18.43C64.9048 18.21 65.1848 17.91 65.3648 17.53C65.5648 17.15 65.6848 16.69 65.7248 16.15C65.7848 15.59 65.8148 14.98 65.8148 14.32V1.06H70.3148V13.72C70.3148 15.16 70.2148 16.42 70.0148 17.5C69.8348 18.58 69.4748 19.48 68.9348 20.2C68.3948 20.92 67.6448 21.46 66.6848 21.82C65.7248 22.18 64.4848 22.36 62.9648 22.36C61.4448 22.36 60.2048 22.18 59.2448 21.82C58.2848 21.46 57.5348 20.92 56.9948 20.2C56.4548 19.48 56.0848 18.58 55.8848 17.5C55.7048 16.42 55.6148 15.16 55.6148 13.72V1.06H60.1148ZM84.8831 12.67L85.1231 6.82H84.8531L80.9531 17.59L77.0531 6.82H76.7831L77.0231 12.67V22H73.1231V1.06H78.4331L81.0131 8.11H81.2531L83.8331 1.06H88.7831V22H84.8831V12.67ZM92.2514 1.06H99.6014C101.661 1.06 103.231 1.56 104.311 2.56C105.411 3.56 105.961 4.92 105.961 6.64C105.961 7.84 105.661 8.8 105.061 9.52C104.481 10.22 103.641 10.73 102.541 11.05V11.23C103.841 11.55 104.841 12.11 105.541 12.91C106.261 13.71 106.621 14.82 106.621 16.24C106.621 18 106.061 19.4 104.941 20.44C103.841 21.48 102.291 22 100.291 22H92.2514V1.06ZM98.9114 18.85C99.9914 18.85 100.781 18.67 101.281 18.31C101.781 17.95 102.031 17.29 102.031 16.33V15.46C102.031 14.5 101.781 13.84 101.281 13.48C100.781 13.12 99.9914 12.94 98.9114 12.94H96.6314V18.85H98.9114ZM98.3414 9.94C99.4014 9.94 100.171 9.77 100.651 9.43C101.131 9.07 101.371 8.43 101.371 7.51V6.61C101.371 5.69 101.131 5.06 100.651 4.72C100.171 4.38 99.4014 4.21 98.3414 4.21H96.6314V9.94H98.3414ZM120.98 22L119.66 16.96H113.93L112.64 22H108.08L113.75 1.06H120.11L125.78 22H120.98ZM116.93 5.41H116.69L114.65 13.33H118.97L116.93 5.41ZM131.918 8.08H131.588V22H127.748V1.06H133.148L137.918 14.98H138.248V1.06H142.088V22H136.688L131.918 8.08Z" fill="#24252E"/>
</svg>
