<svg width="268" height="23" viewBox="0 0 268 23" fill="none" xmlns="http://www.w3.org/2000/svg">
<path d="M0.92 1.06H7.67C10.49 1.06 12.58 1.96 13.94 3.76C15.3 5.56 15.98 8.15 15.98 11.53C15.98 14.91 15.3 17.5 13.94 19.3C12.58 21.1 10.49 22 7.67 22H0.92V1.06ZM7.37 18.46C8.71 18.46 9.69 18.03 10.31 17.17C10.93 16.31 11.24 15.06 11.24 13.42V9.61C11.24 7.99 10.93 6.75 10.31 5.89C9.69 5.03 8.71 4.6 7.37 4.6H5.36V18.46H7.37ZM19.3883 22V1.06H32.7683V4.75H23.8883V9.55H32.4683V13.24H23.8883V18.31H32.7683V22H19.3883ZM43.6466 22.36C41.8866 22.36 40.3566 22.07 39.0566 21.49C37.7566 20.91 36.7066 20.12 35.9066 19.12L38.5166 16.24C39.2766 17.08 40.1066 17.7 41.0066 18.1C41.9266 18.5 42.8566 18.7 43.7966 18.7C44.8766 18.7 45.6966 18.46 46.2566 17.98C46.8166 17.5 47.0966 16.81 47.0966 15.91C47.0966 15.17 46.8766 14.61 46.4366 14.23C46.0166 13.85 45.2966 13.58 44.2766 13.42L42.0866 13.06C40.2066 12.74 38.8466 12.05 38.0066 10.99C37.1666 9.91 36.7466 8.6 36.7466 7.06C36.7466 5.04 37.4066 3.48 38.7266 2.38C40.0466 1.26 41.8966 0.699999 44.2766 0.699999C45.8966 0.699999 47.3066 0.949999 48.5066 1.45C49.7066 1.95 50.6766 2.63 51.4166 3.49L48.8666 6.34C48.3066 5.72 47.6466 5.24 46.8866 4.9C46.1266 4.54 45.2666 4.36 44.3066 4.36C42.2866 4.36 41.2766 5.19 41.2766 6.85C41.2766 7.57 41.4966 8.11 41.9366 8.47C42.3966 8.83 43.1366 9.1 44.1566 9.28L46.3466 9.67C48.0466 9.97 49.3566 10.61 50.2766 11.59C51.1966 12.57 51.6566 13.89 51.6566 15.55C51.6566 16.53 51.4866 17.44 51.1466 18.28C50.8066 19.1 50.2966 19.82 49.6166 20.44C48.9366 21.04 48.0966 21.51 47.0966 21.85C46.1166 22.19 44.9666 22.36 43.6466 22.36ZM55.2148 22V18.67H59.7148V4.39H55.2148V1.06H68.7148V4.39H64.2148V18.67H68.7148V22H55.2148ZM83.2831 19.03H83.0131C82.8331 19.47 82.6131 19.89 82.3531 20.29C82.0931 20.69 81.7731 21.05 81.3931 21.37C81.0131 21.67 80.5631 21.91 80.0431 22.09C79.5431 22.27 78.9731 22.36 78.3331 22.36C77.3131 22.36 76.4031 22.12 75.6031 21.64C74.8231 21.16 74.1631 20.46 73.6231 19.54C73.0831 18.62 72.6731 17.5 72.3931 16.18C72.1331 14.86 72.0031 13.37 72.0031 11.71C72.0031 8.15 72.6531 5.43 73.9531 3.55C75.2531 1.65 77.2631 0.699999 79.9831 0.699999C81.0631 0.699999 82.0131 0.849999 82.8331 1.15C83.6531 1.43 84.3531 1.84 84.9331 2.38C85.5331 2.9 86.0231 3.53 86.4031 4.27C86.7831 5.01 87.0831 5.83 87.3031 6.73L83.1031 7.75C82.9831 7.31 82.8431 6.89 82.6831 6.49C82.5431 6.07 82.3531 5.7 82.1131 5.38C81.8731 5.06 81.5731 4.81 81.2131 4.63C80.8531 4.43 80.4131 4.33 79.8931 4.33C78.7531 4.33 77.9431 4.8 77.4631 5.74C77.0031 6.68 76.7731 8 76.7731 9.7V13.12C76.7731 14.82 77.0231 16.18 77.5231 17.2C78.0431 18.22 78.9531 18.73 80.2531 18.73C81.2731 18.73 82.0331 18.43 82.5331 17.83C83.0331 17.23 83.2831 16.46 83.2831 15.52V13.99H79.7131V10.81H87.3031V22H83.2831V19.03ZM94.9414 8.08H94.6114V22H90.7714V1.06H96.1714L100.941 14.98H101.271V1.06H105.111V22H99.7114L94.9414 8.08ZM136.168 4.75V22H131.668V4.75H125.638V1.06H142.198V4.75H136.168ZM154.546 13.24H149.266V22H144.736V1.06H149.266V9.55H154.546V1.06H159.076V22H154.546V13.24ZM163.145 22V18.67H167.645V4.39H163.145V1.06H176.645V4.39H172.145V18.67H176.645V22H163.145ZM184.883 8.08H184.553V22H180.713V1.06H186.113L190.883 14.98H191.213V1.06H195.053V22H189.653L184.883 8.08ZM205.271 13.27L203.411 15.88V22H198.911V1.06H203.411V9.82H203.651L205.931 6.34L209.621 1.06H214.661L208.391 9.91L214.961 22H209.891L205.271 13.27ZM217.109 22V18.67H221.609V4.39H217.109V1.06H230.609V4.39H226.109V18.67H230.609V22H217.109ZM238.848 8.08H238.518V22H234.678V1.06H240.078L244.848 14.98H245.178V1.06H249.018V22H243.618L238.848 8.08ZM263.166 19.03H262.896C262.716 19.47 262.496 19.89 262.236 20.29C261.976 20.69 261.656 21.05 261.276 21.37C260.896 21.67 260.446 21.91 259.926 22.09C259.426 22.27 258.856 22.36 258.216 22.36C257.196 22.36 256.286 22.12 255.486 21.64C254.706 21.16 254.046 20.46 253.506 19.54C252.966 18.62 252.556 17.5 252.276 16.18C252.016 14.86 251.886 13.37 251.886 11.71C251.886 8.15 252.536 5.43 253.836 3.55C255.136 1.65 257.146 0.699999 259.866 0.699999C260.946 0.699999 261.896 0.849999 262.716 1.15C263.536 1.43 264.236 1.84 264.816 2.38C265.416 2.9 265.906 3.53 266.286 4.27C266.666 5.01 266.966 5.83 267.186 6.73L262.986 7.75C262.866 7.31 262.726 6.89 262.566 6.49C262.426 6.07 262.236 5.7 261.996 5.38C261.756 5.06 261.456 4.81 261.096 4.63C260.736 4.43 260.296 4.33 259.776 4.33C258.636 4.33 257.826 4.8 257.346 5.74C256.886 6.68 256.656 8 256.656 9.7V13.12C256.656 14.82 256.906 16.18 257.406 17.2C257.926 18.22 258.836 18.73 260.136 18.73C261.156 18.73 261.916 18.43 262.416 17.83C262.916 17.23 263.166 16.46 263.166 15.52V13.99H259.596V10.81H267.186V22H263.166V19.03Z" fill="#24252E"/>
</svg>
