<svg width="88" height="31" viewBox="0 0 88 31" fill="none" xmlns="http://www.w3.org/2000/svg">
<path d="M13.05 30L11.73 24.96H6L4.71 30H0.15L5.82 9.06H12.18L17.85 30H13.05ZM9 13.41H8.76L6.72 21.33H11.04L9 13.41ZM9.48 7.8L6.84 6.51L9.81 0.689998L13.5 2.52L9.48 7.8ZM30.3183 27.03H30.0483C29.8683 27.47 29.6483 27.89 29.3883 28.29C29.1283 28.69 28.8083 29.05 28.4283 29.37C28.0483 29.67 27.5983 29.91 27.0783 30.09C26.5783 30.27 26.0083 30.36 25.3683 30.36C24.3483 30.36 23.4383 30.12 22.6383 29.64C21.8583 29.16 21.1983 28.46 20.6583 27.54C20.1183 26.62 19.7083 25.5 19.4283 24.18C19.1683 22.86 19.0383 21.37 19.0383 19.71C19.0383 16.15 19.6883 13.43 20.9883 11.55C22.2883 9.65 24.2983 8.7 27.0183 8.7C28.0983 8.7 29.0483 8.85 29.8683 9.15C30.6883 9.43 31.3883 9.84 31.9683 10.38C32.5683 10.9 33.0583 11.53 33.4383 12.27C33.8183 13.01 34.1183 13.83 34.3383 14.73L30.1383 15.75C30.0183 15.31 29.8783 14.89 29.7183 14.49C29.5783 14.07 29.3883 13.7 29.1483 13.38C28.9083 13.06 28.6083 12.81 28.2483 12.63C27.8883 12.43 27.4483 12.33 26.9283 12.33C25.7883 12.33 24.9783 12.8 24.4983 13.74C24.0383 14.68 23.8083 16 23.8083 17.7V21.12C23.8083 22.82 24.0583 24.18 24.5583 25.2C25.0783 26.22 25.9883 26.73 27.2883 26.73C28.3083 26.73 29.0683 26.43 29.5683 25.83C30.0683 25.23 30.3183 24.46 30.3183 23.52V21.99H26.7483V18.81H34.3383V30H30.3183V27.03ZM38.2266 30V26.67H42.7266V12.39H38.2266V9.06H51.7266V12.39H47.2266V26.67H51.7266V30H38.2266ZM56.7248 30V9.06H61.2548V26.31H70.2548V30H56.7248ZM74.3531 30V9.06H87.7331V12.75H78.8531V17.55H87.4331V21.24H78.8531V26.31H87.7331V30H74.3531Z" fill="#24252E"/>
</svg>
