<svg width="528" height="499" viewBox="0 0 528 499" fill="none" xmlns="http://www.w3.org/2000/svg">
<g filter="url(#filter0_d_80_6387)">
<path d="M68 44H460V406H68V44Z" fill="white"/>
<rect x="56.25" y="32.25" width="20" height="20" fill="white" stroke="#18A0FB" stroke-width="4" stroke-linecap="square"/>
<rect x="56.25" y="398.25" width="20" height="20" fill="white" stroke="#18A0FB" stroke-width="4" stroke-linecap="square"/>
<rect x="451.25" y="33.25" width="20" height="20" fill="white" stroke="#18A0FB" stroke-width="4" stroke-linecap="square"/>
<rect x="451.25" y="397.25" width="20" height="20" fill="white" stroke="#18A0FB" stroke-width="4" stroke-linecap="square"/>
<path d="M98 129.24C96.1333 129.24 94.7533 128.607 93.86 127.34C92.98 126.073 92.54 124.3 92.54 122.02C92.54 119.74 92.98 117.967 93.86 116.7C94.7533 115.433 96.1333 114.8 98 114.8C99.8667 114.8 101.24 115.433 102.12 116.7C103.013 117.967 103.46 119.74 103.46 122.02C103.46 124.3 103.013 126.073 102.12 127.34C101.24 128.607 99.8667 129.24 98 129.24ZM98 126.88C98.8933 126.88 99.5133 126.567 99.86 125.94C100.22 125.313 100.4 124.44 100.4 123.32V120.72C100.4 119.6 100.22 118.727 99.86 118.1C99.5133 117.473 98.8933 117.16 98 117.16C97.1067 117.16 96.48 117.473 96.12 118.1C95.7733 118.727 95.6 119.6 95.6 120.72V123.32C95.6 124.44 95.7733 125.313 96.12 125.94C96.48 126.567 97.1067 126.88 98 126.88ZM98 123.2C97.5333 123.2 97.2067 123.107 97.02 122.92C96.8467 122.733 96.76 122.507 96.76 122.24V121.8C96.76 121.533 96.8467 121.307 97.02 121.12C97.2067 120.933 97.5333 120.84 98 120.84C98.4667 120.84 98.7867 120.933 98.96 121.12C99.1467 121.307 99.24 121.533 99.24 121.8V122.24C99.24 122.507 99.1467 122.733 98.96 122.92C98.7867 123.107 98.4667 123.2 98 123.2ZM105.872 129V126.58H109.632V117.22H109.452L106.612 120.94L104.692 119.44L108.032 115.04H112.632V126.58H115.592V129H105.872ZM121.984 129.24C121.238 129.24 120.698 129.08 120.364 128.76C120.044 128.427 119.884 128.033 119.884 127.58V126.88C119.884 126.427 120.044 126.04 120.364 125.72C120.698 125.387 121.238 125.22 121.984 125.22C122.731 125.22 123.264 125.387 123.584 125.72C123.918 126.04 124.084 126.427 124.084 126.88V127.58C124.084 128.033 123.918 128.427 123.584 128.76C123.264 129.08 122.731 129.24 121.984 129.24ZM141.249 115.04H145.749C147.629 115.04 149.022 115.64 149.929 116.84C150.835 118.04 151.289 119.767 151.289 122.02C151.289 124.273 150.835 126 149.929 127.2C149.022 128.4 147.629 129 145.749 129H141.249V115.04ZM145.549 126.64C146.442 126.64 147.095 126.353 147.509 125.78C147.922 125.207 148.129 124.373 148.129 123.28V120.74C148.129 119.66 147.922 118.833 147.509 118.26C147.095 117.687 146.442 117.4 145.549 117.4H144.209V126.64H145.549ZM153.561 129V115.04H162.481V117.5H156.561V120.7H162.281V123.16H156.561V126.54H162.481V129H153.561ZM169.733 129.24C168.56 129.24 167.54 129.047 166.673 128.66C165.806 128.273 165.106 127.747 164.573 127.08L166.313 125.16C166.82 125.72 167.373 126.133 167.973 126.4C168.586 126.667 169.206 126.8 169.833 126.8C170.553 126.8 171.1 126.64 171.473 126.32C171.846 126 172.033 125.54 172.033 124.94C172.033 124.447 171.886 124.073 171.593 123.82C171.313 123.567 170.833 123.387 170.153 123.28L168.693 123.04C167.44 122.827 166.533 122.367 165.973 121.66C165.413 120.94 165.133 120.067 165.133 119.04C165.133 117.693 165.573 116.653 166.453 115.92C167.333 115.173 168.566 114.8 170.153 114.8C171.233 114.8 172.173 114.967 172.973 115.3C173.773 115.633 174.42 116.087 174.913 116.66L173.213 118.56C172.84 118.147 172.4 117.827 171.893 117.6C171.386 117.36 170.813 117.24 170.173 117.24C168.826 117.24 168.153 117.793 168.153 118.9C168.153 119.38 168.3 119.74 168.593 119.98C168.9 120.22 169.393 120.4 170.073 120.52L171.533 120.78C172.666 120.98 173.54 121.407 174.153 122.06C174.766 122.713 175.073 123.593 175.073 124.7C175.073 125.353 174.96 125.96 174.733 126.52C174.506 127.067 174.166 127.547 173.713 127.96C173.26 128.36 172.7 128.673 172.033 128.9C171.38 129.127 170.613 129.24 169.733 129.24ZM184.645 129L183.765 125.64H179.945L179.085 129H176.045L179.825 115.04H184.065L187.845 129H184.645ZM181.945 117.94H181.785L180.425 123.22H183.305L181.945 117.94ZM192.418 129H189.458V115.04H194.858C195.538 115.04 196.144 115.147 196.678 115.36C197.211 115.56 197.658 115.853 198.018 116.24C198.391 116.627 198.671 117.093 198.858 117.64C199.044 118.187 199.138 118.8 199.138 119.48C199.138 120.467 198.924 121.313 198.497 122.02C198.071 122.727 197.464 123.193 196.678 123.42L199.418 129H196.138L193.798 123.82H192.418V129ZM194.138 121.5C194.844 121.5 195.331 121.367 195.598 121.1C195.878 120.833 196.018 120.393 196.018 119.78V119.18C196.018 118.567 195.878 118.127 195.598 117.86C195.331 117.593 194.844 117.46 194.138 117.46H192.418V121.5H194.138ZM204.41 129H201.45V115.04H206.85C207.53 115.04 208.136 115.147 208.67 115.36C209.203 115.56 209.65 115.853 210.01 116.24C210.383 116.627 210.663 117.093 210.85 117.64C211.036 118.187 211.13 118.8 211.13 119.48C211.13 120.467 210.916 121.313 210.49 122.02C210.063 122.727 209.456 123.193 208.67 123.42L211.41 129H208.13L205.79 123.82H204.41V129ZM206.13 121.5C206.836 121.5 207.323 121.367 207.59 121.1C207.87 120.833 208.01 120.393 208.01 119.78V119.18C208.01 118.567 207.87 118.127 207.59 117.86C207.323 117.593 206.836 117.46 206.13 117.46H204.41V121.5H206.13ZM217.922 129.24C216.055 129.24 214.675 128.607 213.782 127.34C212.902 126.073 212.462 124.3 212.462 122.02C212.462 119.74 212.902 117.967 213.782 116.7C214.675 115.433 216.055 114.8 217.922 114.8C219.789 114.8 221.162 115.433 222.042 116.7C222.935 117.967 223.382 119.74 223.382 122.02C223.382 124.3 222.935 126.073 222.042 127.34C221.162 128.607 219.789 129.24 217.922 129.24ZM217.922 126.82C218.775 126.82 219.362 126.507 219.682 125.88C220.015 125.24 220.182 124.353 220.182 123.22V120.8C220.182 119.68 220.015 118.807 219.682 118.18C219.362 117.54 218.775 117.22 217.922 117.22C217.069 117.22 216.475 117.54 216.142 118.18C215.822 118.807 215.662 119.68 215.662 120.8V123.24C215.662 124.36 215.822 125.24 216.142 125.88C216.475 126.507 217.069 126.82 217.922 126.82ZM225.754 129V115.04H228.774V126.54H234.774V129H225.754ZM237.746 129V115.04H240.766V126.54H246.766V129H237.746ZM253.898 129.24C252.032 129.24 250.652 128.607 249.758 127.34C248.878 126.073 248.438 124.3 248.438 122.02C248.438 119.74 248.878 117.967 249.758 116.7C250.652 115.433 252.032 114.8 253.898 114.8C255.765 114.8 257.138 115.433 258.018 116.7C258.912 117.967 259.358 119.74 259.358 122.02C259.358 124.3 258.912 126.073 258.018 127.34C257.138 128.607 255.765 129.24 253.898 129.24ZM253.898 126.82C254.752 126.82 255.338 126.507 255.658 125.88C255.992 125.24 256.158 124.353 256.158 123.22V120.8C256.158 119.68 255.992 118.807 255.658 118.18C255.338 117.54 254.752 117.22 253.898 117.22C253.045 117.22 252.452 117.54 252.118 118.18C251.798 118.807 251.638 119.68 251.638 120.8V123.24C251.638 124.36 251.798 125.24 252.118 125.88C252.452 126.507 253.045 126.82 253.898 126.82ZM272.963 129L272.103 115.04H274.683L275.083 123.4L275.203 126.04H275.383L276.583 118.08H279.283L280.483 126.04H280.663L280.783 123.48L281.183 115.04H283.663L282.803 129H279.003L277.983 121.3H277.783L276.763 129H272.963ZM285.475 129V115.04H294.395V117.5H288.475V120.7H294.195V123.16H288.475V126.54H294.395V129H285.475ZM297.407 115.04H302.307C303.681 115.04 304.727 115.373 305.447 116.04C306.181 116.707 306.547 117.613 306.547 118.76C306.547 119.56 306.347 120.2 305.947 120.68C305.561 121.147 305.001 121.487 304.267 121.7V121.82C305.134 122.033 305.801 122.407 306.267 122.94C306.747 123.473 306.987 124.213 306.987 125.16C306.987 126.333 306.614 127.267 305.867 127.96C305.134 128.653 304.101 129 302.767 129H297.407V115.04ZM301.847 126.9C302.567 126.9 303.094 126.78 303.427 126.54C303.761 126.3 303.927 125.86 303.927 125.22V124.64C303.927 124 303.761 123.56 303.427 123.32C303.094 123.08 302.567 122.96 301.847 122.96H300.327V126.9H301.847ZM301.467 120.96C302.174 120.96 302.687 120.847 303.007 120.62C303.327 120.38 303.487 119.953 303.487 119.34V118.74C303.487 118.127 303.327 117.707 303.007 117.48C302.687 117.253 302.174 117.14 301.467 117.14H300.327V120.96H301.467Z" fill="#18A0FB"/>
<path d="M94.4 183V169.04H96.08V181.54H102.7V183H94.4ZM109.992 183.24C109.272 183.24 108.619 183.113 108.032 182.86C107.459 182.607 106.966 182.247 106.552 181.78C106.152 181.3 105.846 180.733 105.632 180.08C105.419 179.413 105.312 178.667 105.312 177.84C105.312 177.027 105.419 176.287 105.632 175.62C105.846 174.953 106.152 174.387 106.552 173.92C106.966 173.44 107.459 173.073 108.032 172.82C108.619 172.567 109.272 172.44 109.992 172.44C110.712 172.44 111.359 172.567 111.932 172.82C112.519 173.073 113.012 173.44 113.412 173.92C113.826 174.387 114.139 174.953 114.352 175.62C114.566 176.287 114.672 177.027 114.672 177.84C114.672 178.667 114.566 179.413 114.352 180.08C114.139 180.733 113.826 181.3 113.412 181.78C113.012 182.247 112.519 182.607 111.932 182.86C111.359 183.113 110.712 183.24 109.992 183.24ZM109.992 181.86C110.886 181.86 111.606 181.593 112.152 181.06C112.699 180.527 112.972 179.7 112.972 178.58V177.1C112.972 175.98 112.699 175.153 112.152 174.62C111.606 174.087 110.886 173.82 109.992 173.82C109.099 173.82 108.379 174.087 107.832 174.62C107.286 175.153 107.012 175.98 107.012 177.1V178.58C107.012 179.7 107.286 180.527 107.832 181.06C108.379 181.593 109.099 181.86 109.992 181.86ZM117.524 181.64H120.544V174.04H117.524V172.68H122.144V175.28H122.244C122.458 174.467 122.858 173.833 123.444 173.38C124.044 172.913 124.804 172.68 125.724 172.68H127.164V174.28H125.224C124.304 174.28 123.558 174.547 122.984 175.08C122.424 175.613 122.144 176.313 122.144 177.18V181.64H126.144V183H117.524V181.64ZM134.157 183.24C133.41 183.24 132.737 183.113 132.137 182.86C131.55 182.607 131.043 182.247 130.617 181.78C130.203 181.3 129.883 180.733 129.657 180.08C129.43 179.413 129.317 178.673 129.317 177.86C129.317 177.033 129.43 176.287 129.657 175.62C129.897 174.953 130.223 174.387 130.637 173.92C131.05 173.44 131.543 173.073 132.117 172.82C132.703 172.567 133.35 172.44 134.057 172.44C134.75 172.44 135.377 172.567 135.937 172.82C136.51 173.073 136.997 173.427 137.397 173.88C137.797 174.32 138.103 174.847 138.317 175.46C138.53 176.073 138.637 176.747 138.637 177.48V178.24H130.997V178.72C130.997 179.173 131.07 179.593 131.217 179.98C131.363 180.367 131.57 180.7 131.837 180.98C132.117 181.26 132.45 181.48 132.837 181.64C133.237 181.787 133.677 181.86 134.157 181.86C134.85 181.86 135.45 181.7 135.957 181.38C136.463 181.06 136.85 180.62 137.117 180.06L138.297 180.86C137.99 181.553 137.477 182.127 136.757 182.58C136.05 183.02 135.183 183.24 134.157 183.24ZM134.057 173.76C133.617 173.76 133.21 173.84 132.837 174C132.463 174.16 132.137 174.38 131.857 174.66C131.59 174.94 131.377 175.273 131.217 175.66C131.07 176.033 130.997 176.447 130.997 176.9V177.04H136.917V176.82C136.917 176.367 136.843 175.953 136.697 175.58C136.563 175.207 136.37 174.887 136.117 174.62C135.877 174.34 135.577 174.127 135.217 173.98C134.87 173.833 134.483 173.76 134.057 173.76ZM141.049 183V172.68H142.529V173.88H142.609C142.769 173.48 142.995 173.14 143.289 172.86C143.582 172.58 144.015 172.44 144.589 172.44C145.189 172.44 145.635 172.593 145.929 172.9C146.222 173.193 146.402 173.58 146.469 174.06H146.529C146.715 173.593 146.982 173.207 147.329 172.9C147.675 172.593 148.155 172.44 148.769 172.44C149.609 172.44 150.169 172.733 150.449 173.32C150.742 173.907 150.889 174.747 150.889 175.84V183H149.409V176.1C149.409 175.22 149.315 174.613 149.129 174.28C148.955 173.933 148.629 173.76 148.149 173.76C147.722 173.76 147.375 173.9 147.109 174.18C146.842 174.447 146.709 174.86 146.709 175.42V183H145.229V176.1C145.229 175.22 145.135 174.613 144.949 174.28C144.775 173.933 144.455 173.76 143.989 173.76C143.562 173.76 143.209 173.9 142.929 174.18C142.662 174.447 142.529 174.86 142.529 175.42V183H141.049ZM170.593 170.4C170.126 170.4 169.8 170.307 169.613 170.12C169.426 169.92 169.333 169.673 169.333 169.38V169.06C169.333 168.767 169.426 168.527 169.613 168.34C169.8 168.14 170.126 168.04 170.593 168.04C171.06 168.04 171.386 168.14 171.573 168.34C171.76 168.527 171.853 168.767 171.853 169.06V169.38C171.853 169.673 171.76 169.92 171.573 170.12C171.386 170.307 171.06 170.4 170.593 170.4ZM166.073 181.64H169.793V174.04H166.073V172.68H171.393V181.64H174.873V183H166.073V181.64ZM177.845 172.68H179.445V174.36H179.525C180.192 173.08 181.252 172.44 182.705 172.44C183.972 172.44 184.959 172.913 185.665 173.86C186.385 174.807 186.745 176.133 186.745 177.84C186.745 179.547 186.385 180.873 185.665 181.82C184.959 182.767 183.972 183.24 182.705 183.24C181.252 183.24 180.192 182.6 179.525 181.32H179.445V187H177.845V172.68ZM182.085 181.82C183.019 181.82 183.739 181.54 184.245 180.98C184.765 180.407 185.025 179.653 185.025 178.72V176.96C185.025 176.027 184.765 175.28 184.245 174.72C183.739 174.147 183.019 173.86 182.085 173.86C181.725 173.86 181.385 173.907 181.065 174C180.745 174.093 180.465 174.233 180.225 174.42C179.985 174.593 179.792 174.813 179.645 175.08C179.512 175.333 179.445 175.633 179.445 175.98V179.7C179.445 180.047 179.512 180.353 179.645 180.62C179.792 180.873 179.985 181.093 180.225 181.28C180.465 181.453 180.745 181.587 181.065 181.68C181.385 181.773 181.725 181.82 182.085 181.82ZM194.058 183.24C192.978 183.24 192.044 183.06 191.258 182.7C190.484 182.327 189.824 181.833 189.278 181.22L190.358 180.28C190.851 180.8 191.391 181.2 191.978 181.48C192.564 181.76 193.271 181.9 194.098 181.9C194.898 181.9 195.551 181.76 196.058 181.48C196.578 181.187 196.838 180.733 196.838 180.12C196.838 179.853 196.784 179.633 196.678 179.46C196.584 179.273 196.451 179.127 196.278 179.02C196.104 178.913 195.911 178.833 195.698 178.78C195.484 178.713 195.258 178.66 195.018 178.62L193.398 178.38C193.038 178.327 192.644 178.253 192.218 178.16C191.804 178.067 191.424 177.92 191.078 177.72C190.731 177.507 190.438 177.227 190.198 176.88C189.971 176.533 189.858 176.08 189.858 175.52C189.858 175 189.958 174.553 190.158 174.18C190.371 173.793 190.664 173.473 191.038 173.22C191.411 172.953 191.851 172.76 192.358 172.64C192.864 172.507 193.418 172.44 194.018 172.44C194.951 172.44 195.758 172.587 196.438 172.88C197.131 173.173 197.724 173.58 198.217 174.1L197.178 175.08C197.058 174.933 196.904 174.787 196.718 174.64C196.544 174.48 196.324 174.34 196.058 174.22C195.804 174.087 195.504 173.98 195.158 173.9C194.811 173.82 194.411 173.78 193.958 173.78C193.144 173.78 192.518 173.92 192.078 174.2C191.651 174.48 191.438 174.887 191.438 175.42C191.438 175.687 191.484 175.913 191.578 176.1C191.684 176.273 191.824 176.413 191.998 176.52C192.171 176.627 192.364 176.713 192.578 176.78C192.804 176.833 193.031 176.88 193.258 176.92L194.878 177.16C195.251 177.213 195.644 177.287 196.058 177.38C196.471 177.473 196.851 177.627 197.198 177.84C197.544 178.04 197.831 178.313 198.058 178.66C198.298 179.007 198.418 179.46 198.418 180.02C198.418 181.047 198.018 181.84 197.218 182.4C196.431 182.96 195.378 183.24 194.058 183.24ZM208.37 181.32H208.29C208.183 181.573 208.05 181.82 207.89 182.06C207.73 182.287 207.53 182.487 207.29 182.66C207.063 182.833 206.79 182.973 206.47 183.08C206.15 183.187 205.776 183.24 205.35 183.24C204.27 183.24 203.403 182.9 202.75 182.22C202.096 181.527 201.77 180.553 201.77 179.3V172.68H203.37V179.02C203.37 179.967 203.576 180.673 203.99 181.14C204.403 181.593 205.01 181.82 205.81 181.82C206.13 181.82 206.443 181.78 206.75 181.7C207.056 181.62 207.33 181.5 207.57 181.34C207.81 181.18 208.003 180.98 208.15 180.74C208.296 180.487 208.37 180.187 208.37 179.84V172.68H209.97V183H208.37V181.32ZM213.002 183V172.68H214.482V173.88H214.562C214.722 173.48 214.949 173.14 215.242 172.86C215.535 172.58 215.969 172.44 216.542 172.44C217.142 172.44 217.589 172.593 217.882 172.9C218.175 173.193 218.355 173.58 218.422 174.06H218.482C218.669 173.593 218.935 173.207 219.282 172.9C219.629 172.593 220.109 172.44 220.722 172.44C221.562 172.44 222.122 172.733 222.402 173.32C222.695 173.907 222.842 174.747 222.842 175.84V183H221.362V176.1C221.362 175.22 221.269 174.613 221.082 174.28C220.909 173.933 220.582 173.76 220.102 173.76C219.675 173.76 219.329 173.9 219.062 174.18C218.795 174.447 218.662 174.86 218.662 175.42V183H217.182V176.1C217.182 175.22 217.089 174.613 216.902 174.28C216.729 173.933 216.409 173.76 215.942 173.76C215.515 173.76 215.162 173.9 214.882 174.18C214.615 174.447 214.482 174.86 214.482 175.42V183H213.002ZM244.406 181.32H244.326C243.66 182.6 242.6 183.24 241.146 183.24C239.88 183.24 238.886 182.767 238.166 181.82C237.46 180.873 237.106 179.547 237.106 177.84C237.106 176.133 237.46 174.807 238.166 173.86C238.886 172.913 239.88 172.44 241.146 172.44C242.6 172.44 243.66 173.08 244.326 174.36H244.406V168.2H246.006V183H244.406V181.32ZM241.766 181.82C242.126 181.82 242.466 181.773 242.786 181.68C243.106 181.587 243.386 181.453 243.626 181.28C243.866 181.093 244.053 180.873 244.186 180.62C244.333 180.353 244.406 180.047 244.406 179.7V175.98C244.406 175.633 244.333 175.333 244.186 175.08C244.053 174.813 243.866 174.593 243.626 174.42C243.386 174.233 243.106 174.093 242.786 174C242.466 173.907 242.126 173.86 241.766 173.86C240.833 173.86 240.106 174.147 239.586 174.72C239.08 175.28 238.826 176.027 238.826 176.96V178.72C238.826 179.653 239.08 180.407 239.586 180.98C240.106 181.54 240.833 181.82 241.766 181.82ZM253.898 183.24C253.178 183.24 252.525 183.113 251.938 182.86C251.365 182.607 250.872 182.247 250.458 181.78C250.058 181.3 249.752 180.733 249.538 180.08C249.325 179.413 249.218 178.667 249.218 177.84C249.218 177.027 249.325 176.287 249.538 175.62C249.752 174.953 250.058 174.387 250.458 173.92C250.872 173.44 251.365 173.073 251.938 172.82C252.525 172.567 253.178 172.44 253.898 172.44C254.618 172.44 255.265 172.567 255.838 172.82C256.425 173.073 256.918 173.44 257.318 173.92C257.732 174.387 258.045 174.953 258.258 175.62C258.472 176.287 258.578 177.027 258.578 177.84C258.578 178.667 258.472 179.413 258.258 180.08C258.045 180.733 257.732 181.3 257.318 181.78C256.918 182.247 256.425 182.607 255.838 182.86C255.265 183.113 254.618 183.24 253.898 183.24ZM253.898 181.86C254.792 181.86 255.512 181.593 256.058 181.06C256.605 180.527 256.878 179.7 256.878 178.58V177.1C256.878 175.98 256.605 175.153 256.058 174.62C255.512 174.087 254.792 173.82 253.898 173.82C253.005 173.82 252.285 174.087 251.738 174.62C251.192 175.153 250.918 175.98 250.918 177.1V178.58C250.918 179.7 251.192 180.527 251.738 181.06C252.285 181.593 253.005 181.86 253.898 181.86ZM261.491 181.64H265.091V169.56H261.491V168.2H266.691V181.64H270.291V183H261.491V181.64ZM277.883 183.24C277.163 183.24 276.509 183.113 275.923 182.86C275.349 182.607 274.856 182.247 274.443 181.78C274.043 181.3 273.736 180.733 273.523 180.08C273.309 179.413 273.203 178.667 273.203 177.84C273.203 177.027 273.309 176.287 273.523 175.62C273.736 174.953 274.043 174.387 274.443 173.92C274.856 173.44 275.349 173.073 275.923 172.82C276.509 172.567 277.163 172.44 277.883 172.44C278.603 172.44 279.249 172.567 279.823 172.82C280.409 173.073 280.903 173.44 281.303 173.92C281.716 174.387 282.029 174.953 282.243 175.62C282.456 176.287 282.563 177.027 282.563 177.84C282.563 178.667 282.456 179.413 282.243 180.08C282.029 180.733 281.716 181.3 281.303 181.78C280.903 182.247 280.409 182.607 279.823 182.86C279.249 183.113 278.603 183.24 277.883 183.24ZM277.883 181.86C278.776 181.86 279.496 181.593 280.043 181.06C280.589 180.527 280.863 179.7 280.863 178.58V177.1C280.863 175.98 280.589 175.153 280.043 174.62C279.496 174.087 278.776 173.82 277.883 173.82C276.989 173.82 276.269 174.087 275.723 174.62C275.176 175.153 274.903 175.98 274.903 177.1V178.58C274.903 179.7 275.176 180.527 275.723 181.06C276.269 181.593 276.989 181.86 277.883 181.86ZM285.415 181.64H288.435V174.04H285.415V172.68H290.035V175.28H290.135C290.348 174.467 290.748 173.833 291.335 173.38C291.935 172.913 292.695 172.68 293.615 172.68H295.055V174.28H293.115C292.195 174.28 291.448 174.547 290.875 175.08C290.315 175.613 290.035 176.313 290.035 177.18V181.64H294.035V183H285.415V181.64ZM313.979 183.24C312.899 183.24 311.966 183.06 311.179 182.7C310.406 182.327 309.746 181.833 309.199 181.22L310.279 180.28C310.773 180.8 311.313 181.2 311.899 181.48C312.486 181.76 313.193 181.9 314.019 181.9C314.819 181.9 315.473 181.76 315.979 181.48C316.499 181.187 316.759 180.733 316.759 180.12C316.759 179.853 316.706 179.633 316.599 179.46C316.506 179.273 316.373 179.127 316.199 179.02C316.026 178.913 315.833 178.833 315.619 178.78C315.406 178.713 315.179 178.66 314.939 178.62L313.319 178.38C312.959 178.327 312.566 178.253 312.139 178.16C311.726 178.067 311.346 177.92 310.999 177.72C310.653 177.507 310.359 177.227 310.119 176.88C309.893 176.533 309.779 176.08 309.779 175.52C309.779 175 309.879 174.553 310.079 174.18C310.293 173.793 310.586 173.473 310.959 173.22C311.333 172.953 311.773 172.76 312.279 172.64C312.786 172.507 313.339 172.44 313.939 172.44C314.873 172.44 315.679 172.587 316.359 172.88C317.053 173.173 317.646 173.58 318.139 174.1L317.099 175.08C316.979 174.933 316.826 174.787 316.639 174.64C316.466 174.48 316.246 174.34 315.979 174.22C315.726 174.087 315.426 173.98 315.079 173.9C314.733 173.82 314.333 173.78 313.879 173.78C313.066 173.78 312.439 173.92 311.999 174.2C311.573 174.48 311.359 174.887 311.359 175.42C311.359 175.687 311.406 175.913 311.499 176.1C311.606 176.273 311.746 176.413 311.919 176.52C312.093 176.627 312.286 176.713 312.499 176.78C312.726 176.833 312.953 176.88 313.179 176.92L314.799 177.16C315.173 177.213 315.566 177.287 315.979 177.38C316.393 177.473 316.773 177.627 317.119 177.84C317.466 178.04 317.753 178.313 317.979 178.66C318.219 179.007 318.339 179.46 318.339 180.02C318.339 181.047 317.939 181.84 317.139 182.4C316.353 182.96 315.299 183.24 313.979 183.24ZM326.492 170.4C326.025 170.4 325.698 170.307 325.512 170.12C325.325 169.92 325.232 169.673 325.232 169.38V169.06C325.232 168.767 325.325 168.527 325.512 168.34C325.698 168.14 326.025 168.04 326.492 168.04C326.958 168.04 327.285 168.14 327.472 168.34C327.658 168.527 327.752 168.767 327.752 169.06V169.38C327.752 169.673 327.658 169.92 327.472 170.12C327.285 170.307 326.958 170.4 326.492 170.4ZM321.972 181.64H325.692V174.04H321.972V172.68H327.292V181.64H330.772V183H321.972V181.64ZM338.344 183C337.557 183 336.977 182.78 336.604 182.34C336.244 181.9 336.064 181.333 336.064 180.64V174.04H332.624V172.68H335.184C335.53 172.68 335.77 172.613 335.904 172.48C336.05 172.333 336.124 172.087 336.124 171.74V169.04H337.664V172.68H342.364V174.04H337.664V181.64H342.364V183H338.344ZM101.9 213C101.273 213 100.827 212.84 100.56 212.52C100.293 212.2 100.127 211.8 100.06 211.32H99.96C99.7333 211.92 99.3667 212.393 98.86 212.74C98.3667 213.073 97.7 213.24 96.86 213.24C95.78 213.24 94.92 212.96 94.28 212.4C93.64 211.84 93.32 211.073 93.32 210.1C93.32 209.14 93.6667 208.4 94.36 207.88C95.0667 207.36 96.2 207.1 97.76 207.1H99.96V206.08C99.96 205.32 99.7467 204.753 99.32 204.38C98.8933 203.993 98.2867 203.8 97.5 203.8C96.8067 203.8 96.24 203.94 95.8 204.22C95.36 204.487 95.0067 204.853 94.74 205.32L93.66 204.52C93.7933 204.253 93.9733 203.993 94.2 203.74C94.4267 203.487 94.7067 203.267 95.04 203.08C95.3733 202.88 95.7533 202.727 96.18 202.62C96.6067 202.5 97.08 202.44 97.6 202.44C98.8133 202.44 99.7733 202.747 100.48 203.36C101.2 203.973 101.56 204.827 101.56 205.92V211.6H103V213H101.9ZM97.14 211.9C97.5533 211.9 97.9267 211.853 98.26 211.76C98.6067 211.653 98.9067 211.52 99.16 211.36C99.4133 211.187 99.6067 210.987 99.74 210.76C99.8867 210.52 99.96 210.267 99.96 210V208.3H97.76C96.8 208.3 96.1 208.433 95.66 208.7C95.22 208.967 95 209.353 95 209.86V210.28C95 210.813 95.1867 211.22 95.56 211.5C95.9467 211.767 96.4733 211.9 97.14 211.9ZM105.072 213V202.68H106.552V203.88H106.632C106.792 203.48 107.019 203.14 107.312 202.86C107.606 202.58 108.039 202.44 108.612 202.44C109.212 202.44 109.659 202.593 109.952 202.9C110.246 203.193 110.426 203.58 110.492 204.06H110.552C110.739 203.593 111.006 203.207 111.352 202.9C111.699 202.593 112.179 202.44 112.792 202.44C113.632 202.44 114.192 202.733 114.472 203.32C114.766 203.907 114.912 204.747 114.912 205.84V213H113.432V206.1C113.432 205.22 113.339 204.613 113.152 204.28C112.979 203.933 112.652 203.76 112.172 203.76C111.746 203.76 111.399 203.9 111.132 204.18C110.866 204.447 110.732 204.86 110.732 205.42V213H109.252V206.1C109.252 205.22 109.159 204.613 108.972 204.28C108.799 203.933 108.479 203.76 108.012 203.76C107.586 203.76 107.232 203.9 106.952 204.18C106.686 204.447 106.552 204.86 106.552 205.42V213H105.072ZM122.164 213.24C121.418 213.24 120.744 213.113 120.144 212.86C119.558 212.607 119.051 212.247 118.624 211.78C118.211 211.3 117.891 210.733 117.664 210.08C117.438 209.413 117.324 208.673 117.324 207.86C117.324 207.033 117.438 206.287 117.664 205.62C117.904 204.953 118.231 204.387 118.644 203.92C119.058 203.44 119.551 203.073 120.124 202.82C120.711 202.567 121.358 202.44 122.064 202.44C122.758 202.44 123.384 202.567 123.944 202.82C124.518 203.073 125.004 203.427 125.404 203.88C125.804 204.32 126.111 204.847 126.324 205.46C126.538 206.073 126.644 206.747 126.644 207.48V208.24H119.004V208.72C119.004 209.173 119.078 209.593 119.224 209.98C119.371 210.367 119.578 210.7 119.844 210.98C120.124 211.26 120.458 211.48 120.844 211.64C121.244 211.787 121.684 211.86 122.164 211.86C122.858 211.86 123.458 211.7 123.964 211.38C124.471 211.06 124.858 210.62 125.124 210.06L126.304 210.86C125.998 211.553 125.484 212.127 124.764 212.58C124.058 213.02 123.191 213.24 122.164 213.24ZM122.064 203.76C121.624 203.76 121.218 203.84 120.844 204C120.471 204.16 120.144 204.38 119.864 204.66C119.598 204.94 119.384 205.273 119.224 205.66C119.078 206.033 119.004 206.447 119.004 206.9V207.04H124.924V206.82C124.924 206.367 124.851 205.953 124.704 205.58C124.571 205.207 124.378 204.887 124.124 204.62C123.884 204.34 123.584 204.127 123.224 203.98C122.878 203.833 122.491 203.76 122.064 203.76ZM134.477 213C133.69 213 133.11 212.78 132.737 212.34C132.377 211.9 132.197 211.333 132.197 210.64V204.04H128.757V202.68H131.317C131.663 202.68 131.903 202.613 132.037 202.48C132.183 202.333 132.257 202.087 132.257 201.74V199.04H133.797V202.68H138.497V204.04H133.797V211.64H138.497V213H134.477ZM145.109 210.28H147.689L145.389 215.82H144.049L145.109 210.28ZM170.313 213.24C169.566 213.24 168.9 213.113 168.313 212.86C167.74 212.593 167.253 212.227 166.853 211.76C166.453 211.293 166.146 210.727 165.933 210.06C165.733 209.393 165.633 208.653 165.633 207.84C165.633 207.027 165.74 206.287 165.953 205.62C166.166 204.953 166.473 204.387 166.873 203.92C167.273 203.44 167.76 203.073 168.333 202.82C168.906 202.567 169.56 202.44 170.293 202.44C171.293 202.44 172.106 202.66 172.733 203.1C173.36 203.54 173.82 204.113 174.113 204.82L172.833 205.5C172.646 204.967 172.333 204.553 171.893 204.26C171.466 203.967 170.933 203.82 170.293 203.82C169.826 203.82 169.406 203.9 169.033 204.06C168.673 204.207 168.366 204.42 168.113 204.7C167.86 204.98 167.666 205.313 167.533 205.7C167.413 206.087 167.353 206.507 167.353 206.96V208.72C167.353 209.173 167.413 209.593 167.533 209.98C167.666 210.367 167.86 210.7 168.113 210.98C168.366 211.26 168.68 211.48 169.053 211.64C169.426 211.787 169.853 211.86 170.333 211.86C171.026 211.86 171.6 211.7 172.053 211.38C172.506 211.06 172.866 210.62 173.133 210.06L174.273 210.84C173.966 211.533 173.486 212.107 172.833 212.56C172.193 213.013 171.353 213.24 170.313 213.24ZM181.945 213.24C181.225 213.24 180.572 213.113 179.985 212.86C179.412 212.607 178.919 212.247 178.505 211.78C178.105 211.3 177.799 210.733 177.585 210.08C177.372 209.413 177.265 208.667 177.265 207.84C177.265 207.027 177.372 206.287 177.585 205.62C177.799 204.953 178.105 204.387 178.505 203.92C178.919 203.44 179.412 203.073 179.985 202.82C180.572 202.567 181.225 202.44 181.945 202.44C182.665 202.44 183.312 202.567 183.885 202.82C184.472 203.073 184.965 203.44 185.365 203.92C185.779 204.387 186.092 204.953 186.305 205.62C186.519 206.287 186.625 207.027 186.625 207.84C186.625 208.667 186.519 209.413 186.305 210.08C186.092 210.733 185.779 211.3 185.365 211.78C184.965 212.247 184.472 212.607 183.885 212.86C183.312 213.113 182.665 213.24 181.945 213.24ZM181.945 211.86C182.839 211.86 183.559 211.593 184.105 211.06C184.652 210.527 184.925 209.7 184.925 208.58V207.1C184.925 205.98 184.652 205.153 184.105 204.62C183.559 204.087 182.839 203.82 181.945 203.82C181.052 203.82 180.332 204.087 179.785 204.62C179.239 205.153 178.965 205.98 178.965 207.1V208.58C178.965 209.7 179.239 210.527 179.785 211.06C180.332 211.593 181.052 211.86 181.945 211.86ZM189.898 213V202.68H191.498V204.36H191.578C191.684 204.107 191.818 203.867 191.978 203.64C192.138 203.4 192.331 203.193 192.558 203.02C192.798 202.847 193.078 202.707 193.398 202.6C193.718 202.493 194.091 202.44 194.518 202.44C195.598 202.44 196.464 202.787 197.118 203.48C197.771 204.16 198.098 205.127 198.098 206.38V213H196.498V206.66C196.498 205.713 196.291 205.013 195.878 204.56C195.464 204.093 194.858 203.86 194.058 203.86C193.738 203.86 193.424 203.9 193.118 203.98C192.811 204.06 192.538 204.18 192.298 204.34C192.058 204.5 191.864 204.707 191.718 204.96C191.571 205.213 191.498 205.507 191.498 205.84V213H189.898ZM206.05 213.24C204.97 213.24 204.036 213.06 203.25 212.7C202.476 212.327 201.816 211.833 201.27 211.22L202.35 210.28C202.843 210.8 203.383 211.2 203.97 211.48C204.556 211.76 205.263 211.9 206.09 211.9C206.89 211.9 207.543 211.76 208.05 211.48C208.57 211.187 208.83 210.733 208.83 210.12C208.83 209.853 208.776 209.633 208.67 209.46C208.576 209.273 208.443 209.127 208.27 209.02C208.096 208.913 207.903 208.833 207.69 208.78C207.476 208.713 207.25 208.66 207.01 208.62L205.39 208.38C205.03 208.327 204.636 208.253 204.21 208.16C203.796 208.067 203.416 207.92 203.07 207.72C202.723 207.507 202.43 207.227 202.19 206.88C201.963 206.533 201.85 206.08 201.85 205.52C201.85 205 201.95 204.553 202.15 204.18C202.363 203.793 202.656 203.473 203.03 203.22C203.403 202.953 203.843 202.76 204.35 202.64C204.856 202.507 205.41 202.44 206.01 202.44C206.943 202.44 207.75 202.587 208.43 202.88C209.123 203.173 209.716 203.58 210.21 204.1L209.17 205.08C209.05 204.933 208.896 204.787 208.71 204.64C208.536 204.48 208.316 204.34 208.05 204.22C207.796 204.087 207.496 203.98 207.15 203.9C206.803 203.82 206.403 203.78 205.95 203.78C205.136 203.78 204.51 203.92 204.07 204.2C203.643 204.48 203.43 204.887 203.43 205.42C203.43 205.687 203.476 205.913 203.57 206.1C203.676 206.273 203.816 206.413 203.99 206.52C204.163 206.627 204.356 206.713 204.57 206.78C204.796 206.833 205.023 206.88 205.25 206.92L206.87 207.16C207.243 207.213 207.636 207.287 208.05 207.38C208.463 207.473 208.843 207.627 209.19 207.84C209.536 208.04 209.823 208.313 210.05 208.66C210.29 209.007 210.41 209.46 210.41 210.02C210.41 211.047 210.01 211.84 209.21 212.4C208.423 212.96 207.37 213.24 206.05 213.24ZM218.102 213.24C217.355 213.24 216.682 213.113 216.082 212.86C215.495 212.607 214.989 212.247 214.562 211.78C214.149 211.3 213.829 210.733 213.602 210.08C213.375 209.413 213.262 208.673 213.262 207.86C213.262 207.033 213.375 206.287 213.602 205.62C213.842 204.953 214.169 204.387 214.582 203.92C214.995 203.44 215.489 203.073 216.062 202.82C216.649 202.567 217.295 202.44 218.002 202.44C218.695 202.44 219.322 202.567 219.882 202.82C220.455 203.073 220.942 203.427 221.342 203.88C221.742 204.32 222.049 204.847 222.262 205.46C222.475 206.073 222.582 206.747 222.582 207.48V208.24H214.942V208.72C214.942 209.173 215.015 209.593 215.162 209.98C215.309 210.367 215.515 210.7 215.782 210.98C216.062 211.26 216.395 211.48 216.782 211.64C217.182 211.787 217.622 211.86 218.102 211.86C218.795 211.86 219.395 211.7 219.902 211.38C220.409 211.06 220.795 210.62 221.062 210.06L222.242 210.86C221.935 211.553 221.422 212.127 220.702 212.58C219.995 213.02 219.129 213.24 218.102 213.24ZM218.002 203.76C217.562 203.76 217.155 203.84 216.782 204C216.409 204.16 216.082 204.38 215.802 204.66C215.535 204.94 215.322 205.273 215.162 205.66C215.015 206.033 214.942 206.447 214.942 206.9V207.04H220.862V206.82C220.862 206.367 220.789 205.953 220.642 205.58C220.509 205.207 220.315 204.887 220.062 204.62C219.822 204.34 219.522 204.127 219.162 203.98C218.815 203.833 218.429 203.76 218.002 203.76ZM230.274 213.24C229.527 213.24 228.861 213.113 228.274 212.86C227.701 212.593 227.214 212.227 226.814 211.76C226.414 211.293 226.107 210.727 225.894 210.06C225.694 209.393 225.594 208.653 225.594 207.84C225.594 207.027 225.701 206.287 225.914 205.62C226.127 204.953 226.434 204.387 226.834 203.92C227.234 203.44 227.721 203.073 228.294 202.82C228.867 202.567 229.521 202.44 230.254 202.44C231.254 202.44 232.067 202.66 232.694 203.1C233.321 203.54 233.781 204.113 234.074 204.82L232.794 205.5C232.607 204.967 232.294 204.553 231.854 204.26C231.427 203.967 230.894 203.82 230.254 203.82C229.787 203.82 229.367 203.9 228.994 204.06C228.634 204.207 228.327 204.42 228.074 204.7C227.821 204.98 227.627 205.313 227.494 205.7C227.374 206.087 227.314 206.507 227.314 206.96V208.72C227.314 209.173 227.374 209.593 227.494 209.98C227.627 210.367 227.821 210.7 228.074 210.98C228.327 211.26 228.641 211.48 229.014 211.64C229.387 211.787 229.814 211.86 230.294 211.86C230.987 211.86 231.561 211.7 232.014 211.38C232.467 211.06 232.827 210.62 233.094 210.06L234.234 210.84C233.927 211.533 233.447 212.107 232.794 212.56C232.154 213.013 231.314 213.24 230.274 213.24ZM242.406 213C241.62 213 241.04 212.78 240.666 212.34C240.306 211.9 240.126 211.333 240.126 210.64V204.04H236.686V202.68H239.246C239.593 202.68 239.833 202.613 239.966 202.48C240.113 202.333 240.186 202.087 240.186 201.74V199.04H241.726V202.68H246.426V204.04H241.726V211.64H246.426V213H242.406ZM254.078 213.24C253.332 213.24 252.658 213.113 252.058 212.86C251.472 212.607 250.965 212.247 250.538 211.78C250.125 211.3 249.805 210.733 249.578 210.08C249.352 209.413 249.238 208.673 249.238 207.86C249.238 207.033 249.352 206.287 249.578 205.62C249.818 204.953 250.145 204.387 250.558 203.92C250.972 203.44 251.465 203.073 252.038 202.82C252.625 202.567 253.272 202.44 253.978 202.44C254.672 202.44 255.298 202.567 255.858 202.82C256.432 203.073 256.918 203.427 257.318 203.88C257.718 204.32 258.025 204.847 258.238 205.46C258.452 206.073 258.558 206.747 258.558 207.48V208.24H250.918V208.72C250.918 209.173 250.992 209.593 251.138 209.98C251.285 210.367 251.492 210.7 251.758 210.98C252.038 211.26 252.372 211.48 252.758 211.64C253.158 211.787 253.598 211.86 254.078 211.86C254.772 211.86 255.372 211.7 255.878 211.38C256.385 211.06 256.772 210.62 257.038 210.06L258.218 210.86C257.912 211.553 257.398 212.127 256.678 212.58C255.972 213.02 255.105 213.24 254.078 213.24ZM253.978 203.76C253.538 203.76 253.132 203.84 252.758 204C252.385 204.16 252.058 204.38 251.778 204.66C251.512 204.94 251.298 205.273 251.138 205.66C250.992 206.033 250.918 206.447 250.918 206.9V207.04H256.838V206.82C256.838 206.367 256.765 205.953 256.618 205.58C256.485 205.207 256.292 204.887 256.038 204.62C255.798 204.34 255.498 204.127 255.138 203.98C254.792 203.833 254.405 203.76 253.978 203.76ZM266.391 213C265.604 213 265.024 212.78 264.651 212.34C264.291 211.9 264.111 211.333 264.111 210.64V204.04H260.671V202.68H263.231C263.577 202.68 263.817 202.613 263.951 202.48C264.097 202.333 264.171 202.087 264.171 201.74V199.04H265.711V202.68H270.411V204.04H265.711V211.64H270.411V213H266.391ZM280.323 211.32H280.243C280.136 211.573 280.003 211.82 279.843 212.06C279.683 212.287 279.483 212.487 279.243 212.66C279.016 212.833 278.743 212.973 278.423 213.08C278.103 213.187 277.729 213.24 277.303 213.24C276.223 213.24 275.356 212.9 274.703 212.22C274.049 211.527 273.723 210.553 273.723 209.3V202.68H275.323V209.02C275.323 209.967 275.529 210.673 275.943 211.14C276.356 211.593 276.963 211.82 277.763 211.82C278.083 211.82 278.396 211.78 278.703 211.7C279.009 211.62 279.283 211.5 279.523 211.34C279.763 211.18 279.956 210.98 280.103 210.74C280.249 210.487 280.323 210.187 280.323 209.84V202.68H281.923V213H280.323V211.32ZM285.415 211.64H288.435V204.04H285.415V202.68H290.035V205.28H290.135C290.348 204.467 290.748 203.833 291.335 203.38C291.935 202.913 292.695 202.68 293.615 202.68H295.055V204.28H293.115C292.195 204.28 291.448 204.547 290.875 205.08C290.315 205.613 290.035 206.313 290.035 207.18V211.64H294.035V213H285.415V211.64ZM101.9 243C101.273 243 100.827 242.84 100.56 242.52C100.293 242.2 100.127 241.8 100.06 241.32H99.96C99.7333 241.92 99.3667 242.393 98.86 242.74C98.3667 243.073 97.7 243.24 96.86 243.24C95.78 243.24 94.92 242.96 94.28 242.4C93.64 241.84 93.32 241.073 93.32 240.1C93.32 239.14 93.6667 238.4 94.36 237.88C95.0667 237.36 96.2 237.1 97.76 237.1H99.96V236.08C99.96 235.32 99.7467 234.753 99.32 234.38C98.8933 233.993 98.2867 233.8 97.5 233.8C96.8067 233.8 96.24 233.94 95.8 234.22C95.36 234.487 95.0067 234.853 94.74 235.32L93.66 234.52C93.7933 234.253 93.9733 233.993 94.2 233.74C94.4267 233.487 94.7067 233.267 95.04 233.08C95.3733 232.88 95.7533 232.727 96.18 232.62C96.6067 232.5 97.08 232.44 97.6 232.44C98.8133 232.44 99.7733 232.747 100.48 233.36C101.2 233.973 101.56 234.827 101.56 235.92V241.6H103V243H101.9ZM97.14 241.9C97.5533 241.9 97.9267 241.853 98.26 241.76C98.6067 241.653 98.9067 241.52 99.16 241.36C99.4133 241.187 99.6067 240.987 99.74 240.76C99.8867 240.52 99.96 240.267 99.96 240V238.3H97.76C96.8 238.3 96.1 238.433 95.66 238.7C95.22 238.967 95 239.353 95 239.86V240.28C95 240.813 95.1867 241.22 95.56 241.5C95.9467 241.767 96.4733 241.9 97.14 241.9ZM112.492 241.32H112.412C111.746 242.6 110.686 243.24 109.232 243.24C107.966 243.24 106.972 242.767 106.252 241.82C105.546 240.873 105.192 239.547 105.192 237.84C105.192 236.133 105.546 234.807 106.252 233.86C106.972 232.913 107.966 232.44 109.232 232.44C110.686 232.44 111.746 233.08 112.412 234.36H112.492V228.2H114.092V243H112.492V241.32ZM109.852 241.82C110.212 241.82 110.552 241.773 110.872 241.68C111.192 241.587 111.472 241.453 111.712 241.28C111.952 241.093 112.139 240.873 112.272 240.62C112.419 240.353 112.492 240.047 112.492 239.7V235.98C112.492 235.633 112.419 235.333 112.272 235.08C112.139 234.813 111.952 234.593 111.712 234.42C111.472 234.233 111.192 234.093 110.872 234C110.552 233.907 110.212 233.86 109.852 233.86C108.919 233.86 108.192 234.147 107.672 234.72C107.166 235.28 106.912 236.027 106.912 236.96V238.72C106.912 239.653 107.166 240.407 107.672 240.98C108.192 241.54 108.919 241.82 109.852 241.82ZM122.624 230.4C122.158 230.4 121.831 230.307 121.644 230.12C121.458 229.92 121.364 229.673 121.364 229.38V229.06C121.364 228.767 121.458 228.527 121.644 228.34C121.831 228.14 122.158 228.04 122.624 228.04C123.091 228.04 123.418 228.14 123.604 228.34C123.791 228.527 123.884 228.767 123.884 229.06V229.38C123.884 229.673 123.791 229.92 123.604 230.12C123.418 230.307 123.091 230.4 122.624 230.4ZM118.104 241.64H121.824V234.04H118.104V232.68H123.424V241.64H126.904V243H118.104V241.64ZM129.877 232.68H131.477V234.36H131.557C132.223 233.08 133.283 232.44 134.737 232.44C136.003 232.44 136.99 232.913 137.697 233.86C138.417 234.807 138.777 236.133 138.777 237.84C138.777 239.547 138.417 240.873 137.697 241.82C136.99 242.767 136.003 243.24 134.737 243.24C133.283 243.24 132.223 242.6 131.557 241.32H131.477V247H129.877V232.68ZM134.117 241.82C135.05 241.82 135.77 241.54 136.277 240.98C136.797 240.407 137.057 239.653 137.057 238.72V236.96C137.057 236.027 136.797 235.28 136.277 234.72C135.77 234.147 135.05 233.86 134.117 233.86C133.757 233.86 133.417 233.907 133.097 234C132.777 234.093 132.497 234.233 132.257 234.42C132.017 234.593 131.823 234.813 131.677 235.08C131.543 235.333 131.477 235.633 131.477 235.98V239.7C131.477 240.047 131.543 240.353 131.677 240.62C131.823 240.873 132.017 241.093 132.257 241.28C132.497 241.453 132.777 241.587 133.097 241.68C133.417 241.773 133.757 241.82 134.117 241.82ZM146.609 230.4C146.142 230.4 145.815 230.307 145.629 230.12C145.442 229.92 145.349 229.673 145.349 229.38V229.06C145.349 228.767 145.442 228.527 145.629 228.34C145.815 228.14 146.142 228.04 146.609 228.04C147.075 228.04 147.402 228.14 147.589 228.34C147.775 228.527 147.869 228.767 147.869 229.06V229.38C147.869 229.673 147.775 229.92 147.589 230.12C147.402 230.307 147.075 230.4 146.609 230.4ZM142.089 241.64H145.809V234.04H142.089V232.68H147.409V241.64H150.889V243H142.089V241.64ZM158.081 243.24C157.001 243.24 156.068 243.06 155.281 242.7C154.508 242.327 153.848 241.833 153.301 241.22L154.381 240.28C154.874 240.8 155.414 241.2 156.001 241.48C156.588 241.76 157.294 241.9 158.121 241.9C158.921 241.9 159.574 241.76 160.081 241.48C160.601 241.187 160.861 240.733 160.861 240.12C160.861 239.853 160.808 239.633 160.701 239.46C160.608 239.273 160.474 239.127 160.301 239.02C160.128 238.913 159.934 238.833 159.721 238.78C159.508 238.713 159.281 238.66 159.041 238.62L157.421 238.38C157.061 238.327 156.668 238.253 156.241 238.16C155.828 238.067 155.448 237.92 155.101 237.72C154.754 237.507 154.461 237.227 154.221 236.88C153.994 236.533 153.881 236.08 153.881 235.52C153.881 235 153.981 234.553 154.181 234.18C154.394 233.793 154.688 233.473 155.061 233.22C155.434 232.953 155.874 232.76 156.381 232.64C156.888 232.507 157.441 232.44 158.041 232.44C158.974 232.44 159.781 232.587 160.461 232.88C161.154 233.173 161.748 233.58 162.241 234.1L161.201 235.08C161.081 234.933 160.928 234.787 160.741 234.64C160.568 234.48 160.348 234.34 160.081 234.22C159.828 234.087 159.528 233.98 159.181 233.9C158.834 233.82 158.434 233.78 157.981 233.78C157.168 233.78 156.541 233.92 156.101 234.2C155.674 234.48 155.461 234.887 155.461 235.42C155.461 235.687 155.508 235.913 155.601 236.1C155.708 236.273 155.848 236.413 156.021 236.52C156.194 236.627 156.388 236.713 156.601 236.78C156.828 236.833 157.054 236.88 157.281 236.92L158.901 237.16C159.274 237.213 159.668 237.287 160.081 237.38C160.494 237.473 160.874 237.627 161.221 237.84C161.568 238.04 161.854 238.313 162.081 238.66C162.321 239.007 162.441 239.46 162.441 240.02C162.441 241.047 162.041 241.84 161.241 242.4C160.454 242.96 159.401 243.24 158.081 243.24ZM170.313 243.24C169.566 243.24 168.9 243.113 168.313 242.86C167.74 242.593 167.253 242.227 166.853 241.76C166.453 241.293 166.146 240.727 165.933 240.06C165.733 239.393 165.633 238.653 165.633 237.84C165.633 237.027 165.74 236.287 165.953 235.62C166.166 234.953 166.473 234.387 166.873 233.92C167.273 233.44 167.76 233.073 168.333 232.82C168.906 232.567 169.56 232.44 170.293 232.44C171.293 232.44 172.106 232.66 172.733 233.1C173.36 233.54 173.82 234.113 174.113 234.82L172.833 235.5C172.646 234.967 172.333 234.553 171.893 234.26C171.466 233.967 170.933 233.82 170.293 233.82C169.826 233.82 169.406 233.9 169.033 234.06C168.673 234.207 168.366 234.42 168.113 234.7C167.86 234.98 167.666 235.313 167.533 235.7C167.413 236.087 167.353 236.507 167.353 236.96V238.72C167.353 239.173 167.413 239.593 167.533 239.98C167.666 240.367 167.86 240.7 168.113 240.98C168.366 241.26 168.68 241.48 169.053 241.64C169.426 241.787 169.853 241.86 170.333 241.86C171.026 241.86 171.6 241.7 172.053 241.38C172.506 241.06 172.866 240.62 173.133 240.06L174.273 240.84C173.966 241.533 173.486 242.107 172.833 242.56C172.193 243.013 171.353 243.24 170.313 243.24ZM182.585 230.4C182.119 230.4 181.792 230.307 181.605 230.12C181.419 229.92 181.325 229.673 181.325 229.38V229.06C181.325 228.767 181.419 228.527 181.605 228.34C181.792 228.14 182.119 228.04 182.585 228.04C183.052 228.04 183.379 228.14 183.565 228.34C183.752 228.527 183.845 228.767 183.845 229.06V229.38C183.845 229.673 183.752 229.92 183.565 230.12C183.379 230.307 183.052 230.4 182.585 230.4ZM178.065 241.64H181.785V234.04H178.065V232.68H183.385V241.64H186.865V243H178.065V241.64ZM189.898 243V232.68H191.498V234.36H191.578C191.684 234.107 191.818 233.867 191.978 233.64C192.138 233.4 192.331 233.193 192.558 233.02C192.798 232.847 193.078 232.707 193.398 232.6C193.718 232.493 194.091 232.44 194.518 232.44C195.598 232.44 196.464 232.787 197.118 233.48C197.771 234.16 198.098 235.127 198.098 236.38V243H196.498V236.66C196.498 235.713 196.291 235.013 195.878 234.56C195.464 234.093 194.858 233.86 194.058 233.86C193.738 233.86 193.424 233.9 193.118 233.98C192.811 234.06 192.538 234.18 192.298 234.34C192.058 234.5 191.864 234.707 191.718 234.96C191.571 235.213 191.498 235.507 191.498 235.84V243H189.898ZM211.15 244.18C211.15 245.22 210.716 245.987 209.85 246.48C208.983 246.987 207.683 247.24 205.95 247.24C204.283 247.24 203.083 247.02 202.35 246.58C201.63 246.14 201.27 245.507 201.27 244.68C201.27 244.12 201.416 243.687 201.71 243.38C202.003 243.073 202.416 242.847 202.95 242.7V242.46C202.656 242.313 202.43 242.127 202.27 241.9C202.11 241.673 202.03 241.387 202.03 241.04C202.03 240.507 202.203 240.107 202.55 239.84C202.91 239.573 203.356 239.373 203.89 239.24V239.16C203.25 238.88 202.75 238.467 202.39 237.92C202.043 237.373 201.87 236.733 201.87 236C201.87 235.48 201.963 235 202.15 234.56C202.336 234.12 202.603 233.747 202.95 233.44C203.31 233.12 203.736 232.873 204.23 232.7C204.723 232.527 205.27 232.44 205.87 232.44C206.643 232.44 207.323 232.58 207.91 232.86V232.68C207.91 232.28 208.003 231.947 208.19 231.68C208.376 231.413 208.696 231.28 209.15 231.28H211.05V232.68H208.73V233.38C209.103 233.7 209.39 234.08 209.59 234.52C209.79 234.96 209.89 235.453 209.89 236C209.89 236.52 209.79 237 209.59 237.44C209.403 237.88 209.136 238.26 208.79 238.58C208.443 238.887 208.016 239.127 207.51 239.3C207.016 239.473 206.47 239.56 205.87 239.56C205.696 239.56 205.53 239.553 205.37 239.54C205.21 239.527 205.05 239.507 204.89 239.48C204.73 239.507 204.563 239.553 204.39 239.62C204.216 239.673 204.056 239.753 203.91 239.86C203.763 239.953 203.643 240.067 203.55 240.2C203.456 240.333 203.41 240.487 203.41 240.66C203.41 240.967 203.563 241.173 203.87 241.28C204.176 241.373 204.576 241.42 205.07 241.42H207.35C208.683 241.42 209.65 241.673 210.25 242.18C210.85 242.673 211.15 243.34 211.15 244.18ZM209.65 244.26C209.65 243.847 209.483 243.513 209.15 243.26C208.816 243.02 208.236 242.9 207.41 242.9H203.83C203.136 243.18 202.79 243.647 202.79 244.3C202.79 244.753 202.97 245.14 203.33 245.46C203.69 245.793 204.29 245.96 205.13 245.96H206.69C207.623 245.96 208.35 245.813 208.87 245.52C209.39 245.24 209.65 244.82 209.65 244.26ZM205.87 238.32C206.67 238.32 207.256 238.133 207.63 237.76C208.016 237.387 208.21 236.893 208.21 236.28V235.7C208.21 235.087 208.016 234.6 207.63 234.24C207.256 233.867 206.67 233.68 205.87 233.68C205.07 233.68 204.483 233.867 204.11 234.24C203.736 234.6 203.55 235.087 203.55 235.7V236.28C203.55 236.893 203.736 237.387 204.11 237.76C204.483 238.133 205.07 238.32 205.87 238.32ZM230.094 243.24C229.347 243.24 228.674 243.113 228.074 242.86C227.487 242.607 226.981 242.247 226.554 241.78C226.141 241.3 225.821 240.733 225.594 240.08C225.367 239.413 225.254 238.673 225.254 237.86C225.254 237.033 225.367 236.287 225.594 235.62C225.834 234.953 226.161 234.387 226.574 233.92C226.987 233.44 227.481 233.073 228.054 232.82C228.641 232.567 229.287 232.44 229.994 232.44C230.687 232.44 231.314 232.567 231.874 232.82C232.447 233.073 232.934 233.427 233.334 233.88C233.734 234.32 234.041 234.847 234.254 235.46C234.467 236.073 234.574 236.747 234.574 237.48V238.24H226.934V238.72C226.934 239.173 227.007 239.593 227.154 239.98C227.301 240.367 227.507 240.7 227.774 240.98C228.054 241.26 228.387 241.48 228.774 241.64C229.174 241.787 229.614 241.86 230.094 241.86C230.787 241.86 231.387 241.7 231.894 241.38C232.401 241.06 232.787 240.62 233.054 240.06L234.234 240.86C233.927 241.553 233.414 242.127 232.694 242.58C231.987 243.02 231.121 243.24 230.094 243.24ZM229.994 233.76C229.554 233.76 229.147 233.84 228.774 234C228.401 234.16 228.074 234.38 227.794 234.66C227.527 234.94 227.314 235.273 227.154 235.66C227.007 236.033 226.934 236.447 226.934 236.9V237.04H232.854V236.82C232.854 236.367 232.781 235.953 232.634 235.58C232.501 235.207 232.307 234.887 232.054 234.62C231.814 234.34 231.514 234.127 231.154 233.98C230.807 233.833 230.421 233.76 229.994 233.76ZM237.506 241.64H241.106V229.56H237.506V228.2H242.706V241.64H246.306V243H237.506V241.64ZM254.538 230.4C254.072 230.4 253.745 230.307 253.558 230.12C253.372 229.92 253.278 229.673 253.278 229.38V229.06C253.278 228.767 253.372 228.527 253.558 228.34C253.745 228.14 254.072 228.04 254.538 228.04C255.005 228.04 255.332 228.14 255.518 228.34C255.705 228.527 255.798 228.767 255.798 229.06V229.38C255.798 229.673 255.705 229.92 255.518 230.12C255.332 230.307 255.005 230.4 254.538 230.4ZM250.018 241.64H253.738V234.04H250.018V232.68H255.338V241.64H258.818V243H250.018V241.64ZM266.391 243C265.604 243 265.024 242.78 264.651 242.34C264.291 241.9 264.111 241.333 264.111 240.64V234.04H260.671V232.68H263.231C263.577 232.68 263.817 232.613 263.951 232.48C264.097 232.333 264.171 232.087 264.171 231.74V229.04H265.711V232.68H270.411V234.04H265.711V241.64H270.411V243H266.391ZM277.883 243.18C277.336 243.18 276.949 243.067 276.723 242.84C276.509 242.613 276.403 242.327 276.403 241.98V241.62C276.403 241.273 276.509 240.987 276.723 240.76C276.949 240.533 277.336 240.42 277.883 240.42C278.429 240.42 278.809 240.533 279.023 240.76C279.249 240.987 279.363 241.273 279.363 241.62V241.98C279.363 242.327 279.249 242.613 279.023 242.84C278.809 243.067 278.429 243.18 277.883 243.18ZM299.127 231.18H298.987V243H297.467V229.04H299.847L304.607 240.74H304.747V229.04H306.267V243H303.887L299.127 231.18ZM316.299 241.32H316.219C316.113 241.573 315.979 241.82 315.819 242.06C315.659 242.287 315.459 242.487 315.219 242.66C314.993 242.833 314.719 242.973 314.399 243.08C314.079 243.187 313.706 243.24 313.279 243.24C312.199 243.24 311.333 242.9 310.679 242.22C310.026 241.527 309.699 240.553 309.699 239.3V232.68H311.299V239.02C311.299 239.967 311.506 240.673 311.919 241.14C312.333 241.593 312.939 241.82 313.739 241.82C314.059 241.82 314.373 241.78 314.679 241.7C314.986 241.62 315.259 241.5 315.499 241.34C315.739 241.18 315.933 240.98 316.079 240.74C316.226 240.487 316.299 240.187 316.299 239.84V232.68H317.899V243H316.299V241.32ZM321.452 241.64H325.052V229.56H321.452V228.2H326.652V241.64H330.252V243H321.452V241.64ZM333.444 241.64H337.044V229.56H333.444V228.2H338.644V241.64H342.244V243H333.444V241.64ZM353.736 243C353.109 243 352.663 242.84 352.396 242.52C352.129 242.2 351.963 241.8 351.896 241.32H351.796C351.569 241.92 351.203 242.393 350.696 242.74C350.203 243.073 349.536 243.24 348.696 243.24C347.616 243.24 346.756 242.96 346.116 242.4C345.476 241.84 345.156 241.073 345.156 240.1C345.156 239.14 345.503 238.4 346.196 237.88C346.903 237.36 348.036 237.1 349.596 237.1H351.796V236.08C351.796 235.32 351.583 234.753 351.156 234.38C350.729 233.993 350.123 233.8 349.336 233.8C348.643 233.8 348.076 233.94 347.636 234.22C347.196 234.487 346.843 234.853 346.576 235.32L345.496 234.52C345.629 234.253 345.809 233.993 346.036 233.74C346.263 233.487 346.543 233.267 346.876 233.08C347.209 232.88 347.589 232.727 348.016 232.62C348.443 232.5 348.916 232.44 349.436 232.44C350.649 232.44 351.609 232.747 352.316 233.36C353.036 233.973 353.396 234.827 353.396 235.92V241.6H354.836V243H353.736ZM348.976 241.9C349.389 241.9 349.763 241.853 350.096 241.76C350.443 241.653 350.743 241.52 350.996 241.36C351.249 241.187 351.443 240.987 351.576 240.76C351.723 240.52 351.796 240.267 351.796 240V238.3H349.596C348.636 238.3 347.936 238.433 347.496 238.7C347.056 238.967 346.836 239.353 346.836 239.86V240.28C346.836 240.813 347.023 241.22 347.396 241.5C347.783 241.767 348.309 241.9 348.976 241.9ZM356.908 243V232.68H358.388V233.88H358.468C358.628 233.48 358.855 233.14 359.148 232.86C359.441 232.58 359.875 232.44 360.448 232.44C361.048 232.44 361.495 232.593 361.788 232.9C362.081 233.193 362.261 233.58 362.328 234.06H362.388C362.575 233.593 362.841 233.207 363.188 232.9C363.535 232.593 364.015 232.44 364.628 232.44C365.468 232.44 366.028 232.733 366.308 233.32C366.601 233.907 366.748 234.747 366.748 235.84V243H365.268V236.1C365.268 235.22 365.175 234.613 364.988 234.28C364.815 233.933 364.488 233.76 364.008 233.76C363.581 233.76 363.235 233.9 362.968 234.18C362.701 234.447 362.568 234.86 362.568 235.42V243H361.088V236.1C361.088 235.22 360.995 234.613 360.808 234.28C360.635 233.933 360.315 233.76 359.848 233.76C359.421 233.76 359.068 233.9 358.788 234.18C358.521 234.447 358.388 234.86 358.388 235.42V243H356.908ZM93.6 271.64H97.2V259.56H93.6V258.2H98.8V271.64H102.4V273H93.6V271.64ZM112.432 271.32H112.352C112.246 271.573 112.112 271.82 111.952 272.06C111.792 272.287 111.592 272.487 111.352 272.66C111.126 272.833 110.852 272.973 110.532 273.08C110.212 273.187 109.839 273.24 109.412 273.24C108.332 273.24 107.466 272.9 106.812 272.22C106.159 271.527 105.832 270.553 105.832 269.3V262.68H107.432V269.02C107.432 269.967 107.639 270.673 108.052 271.14C108.466 271.593 109.072 271.82 109.872 271.82C110.192 271.82 110.506 271.78 110.812 271.7C111.119 271.62 111.392 271.5 111.632 271.34C111.872 271.18 112.066 270.98 112.212 270.74C112.359 270.487 112.432 270.187 112.432 269.84V262.68H114.032V273H112.432V271.32ZM122.344 273.24C121.598 273.24 120.931 273.113 120.344 272.86C119.771 272.593 119.284 272.227 118.884 271.76C118.484 271.293 118.178 270.727 117.964 270.06C117.764 269.393 117.664 268.653 117.664 267.84C117.664 267.027 117.771 266.287 117.984 265.62C118.198 264.953 118.504 264.387 118.904 263.92C119.304 263.44 119.791 263.073 120.364 262.82C120.938 262.567 121.591 262.44 122.324 262.44C123.324 262.44 124.138 262.66 124.764 263.1C125.391 263.54 125.851 264.113 126.144 264.82L124.864 265.5C124.678 264.967 124.364 264.553 123.924 264.26C123.498 263.967 122.964 263.82 122.324 263.82C121.858 263.82 121.438 263.9 121.064 264.06C120.704 264.207 120.398 264.42 120.144 264.7C119.891 264.98 119.698 265.313 119.564 265.7C119.444 266.087 119.384 266.507 119.384 266.96V268.72C119.384 269.173 119.444 269.593 119.564 269.98C119.698 270.367 119.891 270.7 120.144 270.98C120.398 271.26 120.711 271.48 121.084 271.64C121.458 271.787 121.884 271.86 122.364 271.86C123.058 271.86 123.631 271.7 124.084 271.38C124.538 271.06 124.898 270.62 125.164 270.06L126.304 270.84C125.998 271.533 125.518 272.107 124.864 272.56C124.224 273.013 123.384 273.24 122.344 273.24ZM134.477 273C133.69 273 133.11 272.78 132.737 272.34C132.377 271.9 132.197 271.333 132.197 270.64V264.04H128.757V262.68H131.317C131.663 262.68 131.903 262.613 132.037 262.48C132.183 262.333 132.257 262.087 132.257 261.74V259.04H133.797V262.68H138.497V264.04H133.797V271.64H138.497V273H134.477ZM148.409 271.32H148.329C148.222 271.573 148.089 271.82 147.929 272.06C147.769 272.287 147.569 272.487 147.329 272.66C147.102 272.833 146.829 272.973 146.509 273.08C146.189 273.187 145.815 273.24 145.389 273.24C144.309 273.24 143.442 272.9 142.789 272.22C142.135 271.527 141.809 270.553 141.809 269.3V262.68H143.409V269.02C143.409 269.967 143.615 270.673 144.029 271.14C144.442 271.593 145.049 271.82 145.849 271.82C146.169 271.82 146.482 271.78 146.789 271.7C147.095 271.62 147.369 271.5 147.609 271.34C147.849 271.18 148.042 270.98 148.189 270.74C148.335 270.487 148.409 270.187 148.409 269.84V262.68H150.009V273H148.409V271.32ZM158.081 273.24C157.001 273.24 156.068 273.06 155.281 272.7C154.508 272.327 153.848 271.833 153.301 271.22L154.381 270.28C154.874 270.8 155.414 271.2 156.001 271.48C156.588 271.76 157.294 271.9 158.121 271.9C158.921 271.9 159.574 271.76 160.081 271.48C160.601 271.187 160.861 270.733 160.861 270.12C160.861 269.853 160.808 269.633 160.701 269.46C160.608 269.273 160.474 269.127 160.301 269.02C160.128 268.913 159.934 268.833 159.721 268.78C159.508 268.713 159.281 268.66 159.041 268.62L157.421 268.38C157.061 268.327 156.668 268.253 156.241 268.16C155.828 268.067 155.448 267.92 155.101 267.72C154.754 267.507 154.461 267.227 154.221 266.88C153.994 266.533 153.881 266.08 153.881 265.52C153.881 265 153.981 264.553 154.181 264.18C154.394 263.793 154.688 263.473 155.061 263.22C155.434 262.953 155.874 262.76 156.381 262.64C156.888 262.507 157.441 262.44 158.041 262.44C158.974 262.44 159.781 262.587 160.461 262.88C161.154 263.173 161.748 263.58 162.241 264.1L161.201 265.08C161.081 264.933 160.928 264.787 160.741 264.64C160.568 264.48 160.348 264.34 160.081 264.22C159.828 264.087 159.528 263.98 159.181 263.9C158.834 263.82 158.434 263.78 157.981 263.78C157.168 263.78 156.541 263.92 156.101 264.2C155.674 264.48 155.461 264.887 155.461 265.42C155.461 265.687 155.508 265.913 155.601 266.1C155.708 266.273 155.848 266.413 156.021 266.52C156.194 266.627 156.388 266.713 156.601 266.78C156.828 266.833 157.054 266.88 157.281 266.92L158.901 267.16C159.274 267.213 159.668 267.287 160.081 267.38C160.494 267.473 160.874 267.627 161.221 267.84C161.568 268.04 161.854 268.313 162.081 268.66C162.321 269.007 162.441 269.46 162.441 270.02C162.441 271.047 162.041 271.84 161.241 272.4C160.454 272.96 159.401 273.24 158.081 273.24ZM182.065 273.24C180.985 273.24 180.052 273.06 179.265 272.7C178.492 272.327 177.832 271.833 177.285 271.22L178.365 270.28C178.859 270.8 179.399 271.2 179.985 271.48C180.572 271.76 181.279 271.9 182.105 271.9C182.905 271.9 183.559 271.76 184.065 271.48C184.585 271.187 184.845 270.733 184.845 270.12C184.845 269.853 184.792 269.633 184.685 269.46C184.592 269.273 184.459 269.127 184.285 269.02C184.112 268.913 183.919 268.833 183.705 268.78C183.492 268.713 183.265 268.66 183.025 268.62L181.405 268.38C181.045 268.327 180.652 268.253 180.225 268.16C179.812 268.067 179.432 267.92 179.085 267.72C178.739 267.507 178.445 267.227 178.205 266.88C177.979 266.533 177.865 266.08 177.865 265.52C177.865 265 177.965 264.553 178.165 264.18C178.379 263.793 178.672 263.473 179.045 263.22C179.419 262.953 179.859 262.76 180.365 262.64C180.872 262.507 181.425 262.44 182.025 262.44C182.959 262.44 183.765 262.587 184.445 262.88C185.139 263.173 185.732 263.58 186.225 264.1L185.185 265.08C185.065 264.933 184.912 264.787 184.725 264.64C184.552 264.48 184.332 264.34 184.065 264.22C183.812 264.087 183.512 263.98 183.165 263.9C182.819 263.82 182.419 263.78 181.965 263.78C181.152 263.78 180.525 263.92 180.085 264.2C179.659 264.48 179.445 264.887 179.445 265.42C179.445 265.687 179.492 265.913 179.585 266.1C179.692 266.273 179.832 266.413 180.005 266.52C180.179 266.627 180.372 266.713 180.585 266.78C180.812 266.833 181.039 266.88 181.265 266.92L182.885 267.16C183.259 267.213 183.652 267.287 184.065 267.38C184.479 267.473 184.859 267.627 185.205 267.84C185.552 268.04 185.839 268.313 186.065 268.66C186.305 269.007 186.425 269.46 186.425 270.02C186.425 271.047 186.025 271.84 185.225 272.4C184.439 272.96 183.385 273.24 182.065 273.24ZM194.118 273.24C193.371 273.24 192.698 273.113 192.098 272.86C191.511 272.607 191.004 272.247 190.577 271.78C190.164 271.3 189.844 270.733 189.618 270.08C189.391 269.413 189.278 268.673 189.278 267.86C189.278 267.033 189.391 266.287 189.618 265.62C189.858 264.953 190.184 264.387 190.598 263.92C191.011 263.44 191.504 263.073 192.078 262.82C192.664 262.567 193.311 262.44 194.018 262.44C194.711 262.44 195.338 262.567 195.898 262.82C196.471 263.073 196.958 263.427 197.358 263.88C197.758 264.32 198.064 264.847 198.278 265.46C198.491 266.073 198.598 266.747 198.598 267.48V268.24H190.958V268.72C190.958 269.173 191.031 269.593 191.178 269.98C191.324 270.367 191.531 270.7 191.798 270.98C192.078 271.26 192.411 271.48 192.798 271.64C193.198 271.787 193.638 271.86 194.118 271.86C194.811 271.86 195.411 271.7 195.918 271.38C196.424 271.06 196.811 270.62 197.078 270.06L198.258 270.86C197.951 271.553 197.438 272.127 196.718 272.58C196.011 273.02 195.144 273.24 194.118 273.24ZM194.018 263.76C193.578 263.76 193.171 263.84 192.798 264C192.424 264.16 192.098 264.38 191.818 264.66C191.551 264.94 191.338 265.273 191.178 265.66C191.031 266.033 190.958 266.447 190.958 266.9V267.04H196.878V266.82C196.878 266.367 196.804 265.953 196.658 265.58C196.524 265.207 196.331 264.887 196.078 264.62C195.838 264.34 195.538 264.127 195.178 263.98C194.831 263.833 194.444 263.76 194.018 263.76ZM208.43 271.32H208.35C207.683 272.6 206.623 273.24 205.17 273.24C203.903 273.24 202.91 272.767 202.19 271.82C201.483 270.873 201.13 269.547 201.13 267.84C201.13 266.133 201.483 264.807 202.19 263.86C202.91 262.913 203.903 262.44 205.17 262.44C206.623 262.44 207.683 263.08 208.35 264.36H208.43V258.2H210.03V273H208.43V271.32ZM205.79 271.82C206.15 271.82 206.49 271.773 206.81 271.68C207.13 271.587 207.41 271.453 207.65 271.28C207.89 271.093 208.076 270.873 208.21 270.62C208.356 270.353 208.43 270.047 208.43 269.7V265.98C208.43 265.633 208.356 265.333 208.21 265.08C208.076 264.813 207.89 264.593 207.65 264.42C207.41 264.233 207.13 264.093 206.81 264C206.49 263.907 206.15 263.86 205.79 263.86C204.856 263.86 204.13 264.147 203.61 264.72C203.103 265.28 202.85 266.027 202.85 266.96V268.72C202.85 269.653 203.103 270.407 203.61 270.98C204.13 271.54 204.856 271.82 205.79 271.82ZM225.514 271.64H229.114V259.56H225.514V258.2H230.714V271.64H234.314V273H225.514V271.64ZM242.546 260.4C242.08 260.4 241.753 260.307 241.566 260.12C241.38 259.92 241.286 259.673 241.286 259.38V259.06C241.286 258.767 241.38 258.527 241.566 258.34C241.753 258.14 242.08 258.04 242.546 258.04C243.013 258.04 243.34 258.14 243.526 258.34C243.713 258.527 243.806 258.767 243.806 259.06V259.38C243.806 259.673 243.713 259.92 243.526 260.12C243.34 260.307 243.013 260.4 242.546 260.4ZM238.026 271.64H241.746V264.04H238.026V262.68H243.346V271.64H246.826V273H238.026V271.64ZM259.118 274.18C259.118 275.22 258.685 275.987 257.818 276.48C256.952 276.987 255.652 277.24 253.918 277.24C252.252 277.24 251.052 277.02 250.318 276.58C249.598 276.14 249.238 275.507 249.238 274.68C249.238 274.12 249.385 273.687 249.678 273.38C249.972 273.073 250.385 272.847 250.918 272.7V272.46C250.625 272.313 250.398 272.127 250.238 271.9C250.078 271.673 249.998 271.387 249.998 271.04C249.998 270.507 250.172 270.107 250.518 269.84C250.878 269.573 251.325 269.373 251.858 269.24V269.16C251.218 268.88 250.718 268.467 250.358 267.92C250.012 267.373 249.838 266.733 249.838 266C249.838 265.48 249.932 265 250.118 264.56C250.305 264.12 250.572 263.747 250.918 263.44C251.278 263.12 251.705 262.873 252.198 262.7C252.692 262.527 253.238 262.44 253.838 262.44C254.612 262.44 255.292 262.58 255.878 262.86V262.68C255.878 262.28 255.972 261.947 256.158 261.68C256.345 261.413 256.665 261.28 257.118 261.28H259.018V262.68H256.698V263.38C257.072 263.7 257.358 264.08 257.558 264.52C257.758 264.96 257.858 265.453 257.858 266C257.858 266.52 257.758 267 257.558 267.44C257.372 267.88 257.105 268.26 256.758 268.58C256.412 268.887 255.985 269.127 255.478 269.3C254.985 269.473 254.438 269.56 253.838 269.56C253.665 269.56 253.498 269.553 253.338 269.54C253.178 269.527 253.018 269.507 252.858 269.48C252.698 269.507 252.532 269.553 252.358 269.62C252.185 269.673 252.025 269.753 251.878 269.86C251.732 269.953 251.612 270.067 251.518 270.2C251.425 270.333 251.378 270.487 251.378 270.66C251.378 270.967 251.532 271.173 251.838 271.28C252.145 271.373 252.545 271.42 253.038 271.42H255.318C256.652 271.42 257.618 271.673 258.218 272.18C258.818 272.673 259.118 273.34 259.118 274.18ZM257.618 274.26C257.618 273.847 257.452 273.513 257.118 273.26C256.785 273.02 256.205 272.9 255.378 272.9H251.798C251.105 273.18 250.758 273.647 250.758 274.3C250.758 274.753 250.938 275.14 251.298 275.46C251.658 275.793 252.258 275.96 253.098 275.96H254.658C255.592 275.96 256.318 275.813 256.838 275.52C257.358 275.24 257.618 274.82 257.618 274.26ZM253.838 268.32C254.638 268.32 255.225 268.133 255.598 267.76C255.985 267.387 256.178 266.893 256.178 266.28V265.7C256.178 265.087 255.985 264.6 255.598 264.24C255.225 263.867 254.638 263.68 253.838 263.68C253.038 263.68 252.452 263.867 252.078 264.24C251.705 264.6 251.518 265.087 251.518 265.7V266.28C251.518 266.893 251.705 267.387 252.078 267.76C252.452 268.133 253.038 268.32 253.838 268.32ZM268.331 271.32H268.251C268.144 271.573 268.011 271.82 267.851 272.06C267.691 272.287 267.491 272.487 267.251 272.66C267.024 272.833 266.751 272.973 266.431 273.08C266.111 273.187 265.737 273.24 265.311 273.24C264.231 273.24 263.364 272.9 262.711 272.22C262.057 271.527 261.731 270.553 261.731 269.3V262.68H263.331V269.02C263.331 269.967 263.537 270.673 263.951 271.14C264.364 271.593 264.971 271.82 265.771 271.82C266.091 271.82 266.404 271.78 266.711 271.7C267.017 271.62 267.291 271.5 267.531 271.34C267.771 271.18 267.964 270.98 268.111 270.74C268.257 270.487 268.331 270.187 268.331 269.84V262.68H269.931V273H268.331V271.32ZM273.483 271.64H277.083V259.56H273.483V258.2H278.683V271.64H282.283V273H273.483V271.64ZM293.775 273C293.148 273 292.702 272.84 292.435 272.52C292.168 272.2 292.002 271.8 291.935 271.32H291.835C291.608 271.92 291.242 272.393 290.735 272.74C290.242 273.073 289.575 273.24 288.735 273.24C287.655 273.24 286.795 272.96 286.155 272.4C285.515 271.84 285.195 271.073 285.195 270.1C285.195 269.14 285.542 268.4 286.235 267.88C286.942 267.36 288.075 267.1 289.635 267.1H291.835V266.08C291.835 265.32 291.622 264.753 291.195 264.38C290.768 263.993 290.162 263.8 289.375 263.8C288.682 263.8 288.115 263.94 287.675 264.22C287.235 264.487 286.882 264.853 286.615 265.32L285.535 264.52C285.668 264.253 285.848 263.993 286.075 263.74C286.302 263.487 286.582 263.267 286.915 263.08C287.248 262.88 287.628 262.727 288.055 262.62C288.482 262.5 288.955 262.44 289.475 262.44C290.688 262.44 291.648 262.747 292.355 263.36C293.075 263.973 293.435 264.827 293.435 265.92V271.6H294.875V273H293.775ZM289.015 271.9C289.428 271.9 289.802 271.853 290.135 271.76C290.482 271.653 290.782 271.52 291.035 271.36C291.288 271.187 291.482 270.987 291.615 270.76C291.762 270.52 291.835 270.267 291.835 270V268.3H289.635C288.675 268.3 287.975 268.433 287.535 268.7C287.095 268.967 286.875 269.353 286.875 269.86V270.28C286.875 270.813 287.062 271.22 287.435 271.5C287.822 271.767 288.348 271.9 289.015 271.9ZM316.359 271.32H316.279C315.613 272.6 314.553 273.24 313.099 273.24C311.833 273.24 310.839 272.767 310.119 271.82C309.413 270.873 309.059 269.547 309.059 267.84C309.059 266.133 309.413 264.807 310.119 263.86C310.839 262.913 311.833 262.44 313.099 262.44C314.553 262.44 315.613 263.08 316.279 264.36H316.359V262.68H317.959V277H316.359V271.32ZM313.719 271.82C314.079 271.82 314.419 271.773 314.739 271.68C315.059 271.587 315.339 271.453 315.579 271.28C315.819 271.093 316.006 270.873 316.139 270.62C316.286 270.353 316.359 270.047 316.359 269.7V265.98C316.359 265.633 316.286 265.333 316.139 265.08C316.006 264.813 315.819 264.593 315.579 264.42C315.339 264.233 315.059 264.093 314.739 264C314.419 263.907 314.079 263.86 313.719 263.86C312.786 263.86 312.059 264.147 311.539 264.72C311.033 265.28 310.779 266.027 310.779 266.96V268.72C310.779 269.653 311.033 270.407 311.539 270.98C312.059 271.54 312.786 271.82 313.719 271.82ZM328.292 271.32H328.212C328.105 271.573 327.972 271.82 327.812 272.06C327.652 272.287 327.452 272.487 327.212 272.66C326.985 272.833 326.712 272.973 326.392 273.08C326.072 273.187 325.698 273.24 325.272 273.24C324.192 273.24 323.325 272.9 322.672 272.22C322.018 271.527 321.692 270.553 321.692 269.3V262.68H323.292V269.02C323.292 269.967 323.498 270.673 323.912 271.14C324.325 271.593 324.932 271.82 325.732 271.82C326.052 271.82 326.365 271.78 326.672 271.7C326.978 271.62 327.252 271.5 327.492 271.34C327.732 271.18 327.925 270.98 328.072 270.74C328.218 270.487 328.292 270.187 328.292 269.84V262.68H329.892V273H328.292V271.32ZM338.484 260.4C338.017 260.4 337.69 260.307 337.504 260.12C337.317 259.92 337.224 259.673 337.224 259.38V259.06C337.224 258.767 337.317 258.527 337.504 258.34C337.69 258.14 338.017 258.04 338.484 258.04C338.95 258.04 339.277 258.14 339.464 258.34C339.65 258.527 339.744 258.767 339.744 259.06V259.38C339.744 259.673 339.65 259.92 339.464 260.12C339.277 260.307 338.95 260.4 338.484 260.4ZM333.964 271.64H337.684V264.04H333.964V262.68H339.284V271.64H342.764V273H333.964V271.64ZM349.956 273.24C348.876 273.24 347.943 273.06 347.156 272.7C346.383 272.327 345.723 271.833 345.176 271.22L346.256 270.28C346.749 270.8 347.289 271.2 347.876 271.48C348.463 271.76 349.169 271.9 349.996 271.9C350.796 271.9 351.449 271.76 351.956 271.48C352.476 271.187 352.736 270.733 352.736 270.12C352.736 269.853 352.683 269.633 352.576 269.46C352.483 269.273 352.349 269.127 352.176 269.02C352.003 268.913 351.809 268.833 351.596 268.78C351.383 268.713 351.156 268.66 350.916 268.62L349.296 268.38C348.936 268.327 348.543 268.253 348.116 268.16C347.703 268.067 347.323 267.92 346.976 267.72C346.629 267.507 346.336 267.227 346.096 266.88C345.869 266.533 345.756 266.08 345.756 265.52C345.756 265 345.856 264.553 346.056 264.18C346.269 263.793 346.563 263.473 346.936 263.22C347.309 262.953 347.749 262.76 348.256 262.64C348.763 262.507 349.316 262.44 349.916 262.44C350.849 262.44 351.656 262.587 352.336 262.88C353.029 263.173 353.623 263.58 354.116 264.1L353.076 265.08C352.956 264.933 352.803 264.787 352.616 264.64C352.443 264.48 352.223 264.34 351.956 264.22C351.703 264.087 351.403 263.98 351.056 263.9C350.709 263.82 350.309 263.78 349.856 263.78C349.043 263.78 348.416 263.92 347.976 264.2C347.549 264.48 347.336 264.887 347.336 265.42C347.336 265.687 347.383 265.913 347.476 266.1C347.583 266.273 347.723 266.413 347.896 266.52C348.069 266.627 348.263 266.713 348.476 266.78C348.703 266.833 348.929 266.88 349.156 266.92L350.776 267.16C351.149 267.213 351.543 267.287 351.956 267.38C352.369 267.473 352.749 267.627 353.096 267.84C353.443 268.04 353.729 268.313 353.956 268.66C354.196 269.007 354.316 269.46 354.316 270.02C354.316 271.047 353.916 271.84 353.116 272.4C352.329 272.96 351.276 273.24 349.956 273.24ZM93.9 292.68H95.5V294.36H95.58C96.2467 293.08 97.3067 292.44 98.76 292.44C100.027 292.44 101.013 292.913 101.72 293.86C102.44 294.807 102.8 296.133 102.8 297.84C102.8 299.547 102.44 300.873 101.72 301.82C101.013 302.767 100.027 303.24 98.76 303.24C97.3067 303.24 96.2467 302.6 95.58 301.32H95.5V307H93.9V292.68ZM98.14 301.82C99.0733 301.82 99.7933 301.54 100.3 300.98C100.82 300.407 101.08 299.653 101.08 298.72V296.96C101.08 296.027 100.82 295.28 100.3 294.72C99.7933 294.147 99.0733 293.86 98.14 293.86C97.78 293.86 97.44 293.907 97.12 294C96.8 294.093 96.52 294.233 96.28 294.42C96.04 294.593 95.8467 294.813 95.7 295.08C95.5667 295.333 95.5 295.633 95.5 295.98V299.7C95.5 300.047 95.5667 300.353 95.7 300.62C95.8467 300.873 96.04 301.093 96.28 301.28C96.52 301.453 96.8 301.587 97.12 301.68C97.44 301.773 97.78 301.82 98.14 301.82ZM109.992 303.24C109.272 303.24 108.619 303.113 108.032 302.86C107.459 302.607 106.966 302.247 106.552 301.78C106.152 301.3 105.846 300.733 105.632 300.08C105.419 299.413 105.312 298.667 105.312 297.84C105.312 297.027 105.419 296.287 105.632 295.62C105.846 294.953 106.152 294.387 106.552 293.92C106.966 293.44 107.459 293.073 108.032 292.82C108.619 292.567 109.272 292.44 109.992 292.44C110.712 292.44 111.359 292.567 111.932 292.82C112.519 293.073 113.012 293.44 113.412 293.92C113.826 294.387 114.139 294.953 114.352 295.62C114.566 296.287 114.672 297.027 114.672 297.84C114.672 298.667 114.566 299.413 114.352 300.08C114.139 300.733 113.826 301.3 113.412 301.78C113.012 302.247 112.519 302.607 111.932 302.86C111.359 303.113 110.712 303.24 109.992 303.24ZM109.992 301.86C110.886 301.86 111.606 301.593 112.152 301.06C112.699 300.527 112.972 299.7 112.972 298.58V297.1C112.972 295.98 112.699 295.153 112.152 294.62C111.606 294.087 110.886 293.82 109.992 293.82C109.099 293.82 108.379 294.087 107.832 294.62C107.286 295.153 107.012 295.98 107.012 297.1V298.58C107.012 299.7 107.286 300.527 107.832 301.06C108.379 301.593 109.099 301.86 109.992 301.86ZM117.524 301.64H120.544V294.04H117.524V292.68H122.144V295.28H122.244C122.458 294.467 122.858 293.833 123.444 293.38C124.044 292.913 124.804 292.68 125.724 292.68H127.164V294.28H125.224C124.304 294.28 123.558 294.547 122.984 295.08C122.424 295.613 122.144 296.313 122.144 297.18V301.64H126.144V303H117.524V301.64ZM134.477 303C133.69 303 133.11 302.78 132.737 302.34C132.377 301.9 132.197 301.333 132.197 300.64V294.04H128.757V292.68H131.317C131.663 292.68 131.903 292.613 132.037 292.48C132.183 292.333 132.257 292.087 132.257 291.74V289.04H133.797V292.68H138.497V294.04H133.797V301.64H138.497V303H134.477ZM149.869 303C149.242 303 148.795 302.84 148.529 302.52C148.262 302.2 148.095 301.8 148.029 301.32H147.929C147.702 301.92 147.335 302.393 146.829 302.74C146.335 303.073 145.669 303.24 144.829 303.24C143.749 303.24 142.889 302.96 142.249 302.4C141.609 301.84 141.289 301.073 141.289 300.1C141.289 299.14 141.635 298.4 142.329 297.88C143.035 297.36 144.169 297.1 145.729 297.1H147.929V296.08C147.929 295.32 147.715 294.753 147.289 294.38C146.862 293.993 146.255 293.8 145.469 293.8C144.775 293.8 144.209 293.94 143.769 294.22C143.329 294.487 142.975 294.853 142.709 295.32L141.629 294.52C141.762 294.253 141.942 293.993 142.169 293.74C142.395 293.487 142.675 293.267 143.009 293.08C143.342 292.88 143.722 292.727 144.149 292.62C144.575 292.5 145.049 292.44 145.569 292.44C146.782 292.44 147.742 292.747 148.449 293.36C149.169 293.973 149.529 294.827 149.529 295.92V301.6H150.969V303H149.869ZM145.109 301.9C145.522 301.9 145.895 301.853 146.229 301.76C146.575 301.653 146.875 301.52 147.129 301.36C147.382 301.187 147.575 300.987 147.709 300.76C147.855 300.52 147.929 300.267 147.929 300V298.3H145.729C144.769 298.3 144.069 298.433 143.629 298.7C143.189 298.967 142.969 299.353 142.969 299.86V300.28C142.969 300.813 143.155 301.22 143.529 301.5C143.915 301.767 144.442 301.9 145.109 301.9ZM157.961 303.18C157.414 303.18 157.028 303.067 156.801 302.84C156.588 302.613 156.481 302.327 156.481 301.98V301.62C156.481 301.273 156.588 300.987 156.801 300.76C157.028 300.533 157.414 300.42 157.961 300.42C158.508 300.42 158.888 300.533 159.101 300.76C159.328 300.987 159.441 301.273 159.441 301.62V301.98C159.441 302.327 159.328 302.613 159.101 302.84C158.888 303.067 158.508 303.18 157.961 303.18Z" fill="#24252E"/>
<g filter="url(#filter1_d_80_6387)">
<path d="M435.61 356.93L392.43 332V348.93H352V364.93H392.43V381.86L435.61 356.93Z" fill="#FB6376"/>
<path d="M392.93 349.43V348.93V332.866L434.61 356.93L392.93 380.994V364.93V364.43H392.43H352.5V349.43H392.43H392.93Z" stroke="black"/>
</g>
<path d="M68 44V40H64V44H68ZM460 44H464V40H460V44ZM460 406V410H464V406H460ZM68 406H64V410H68V406ZM68 48H460V40H68V48ZM456 44V406H464V44H456ZM460 402H68V410H460V402ZM72 406V44H64V406H72Z" fill="#18A0FB"/>
</g>
<defs>
<filter id="filter0_d_80_6387" x="0.25" y="0.25" width="527" height="498" filterUnits="userSpaceOnUse" color-interpolation-filters="sRGB">
<feFlood flood-opacity="0" result="BackgroundImageFix"/>
<feColorMatrix in="SourceAlpha" type="matrix" values="0 0 0 0 0 0 0 0 0 0 0 0 0 0 0 0 0 0 127 0" result="hardAlpha"/>
<feOffset dy="24"/>
<feGaussianBlur stdDeviation="27"/>
<feColorMatrix type="matrix" values="0 0 0 0 0.862029 0 0 0 0 0.883333 0 0 0 0 0.997971 0 0 0 1 0"/>
<feBlend mode="normal" in2="BackgroundImageFix" result="effect1_dropShadow_80_6387"/>
<feBlend mode="normal" in="SourceGraphic" in2="effect1_dropShadow_80_6387" result="shape"/>
</filter>
<filter id="filter1_d_80_6387" x="352" y="332" width="87.6099" height="53.86" filterUnits="userSpaceOnUse" color-interpolation-filters="sRGB">
<feFlood flood-opacity="0" result="BackgroundImageFix"/>
<feColorMatrix in="SourceAlpha" type="matrix" values="0 0 0 0 0 0 0 0 0 0 0 0 0 0 0 0 0 0 127 0" result="hardAlpha"/>
<feOffset dx="4" dy="4"/>
<feColorMatrix type="matrix" values="0 0 0 0 0 0 0 0 0 0 0 0 0 0 0 0 0 0 1 0"/>
<feBlend mode="normal" in2="BackgroundImageFix" result="effect1_dropShadow_80_6387"/>
<feBlend mode="normal" in="SourceGraphic" in2="effect1_dropShadow_80_6387" result="shape"/>
</filter>
</defs>
</svg>
