<svg width="402" height="372" viewBox="0 0 402 372" fill="none" xmlns="http://www.w3.org/2000/svg">
<g filter="url(#filter0_d_80_6390)">
<path d="M1 1H393V363H1V1Z" fill="white"/>
<path d="M31 86.24C29.1333 86.24 27.7533 85.6067 26.86 84.34C25.98 83.0733 25.54 81.3 25.54 79.02C25.54 76.74 25.98 74.9667 26.86 73.7C27.7533 72.4333 29.1333 71.8 31 71.8C32.8667 71.8 34.24 72.4333 35.12 73.7C36.0133 74.9667 36.46 76.74 36.46 79.02C36.46 81.3 36.0133 83.0733 35.12 84.34C34.24 85.6067 32.8667 86.24 31 86.24ZM31 83.88C31.8933 83.88 32.5133 83.5667 32.86 82.94C33.22 82.3133 33.4 81.44 33.4 80.32V77.72C33.4 76.6 33.22 75.7267 32.86 75.1C32.5133 74.4733 31.8933 74.16 31 74.16C30.1067 74.16 29.48 74.4733 29.12 75.1C28.7733 75.7267 28.6 76.6 28.6 77.72V80.32C28.6 81.44 28.7733 82.3133 29.12 82.94C29.48 83.5667 30.1067 83.88 31 83.88ZM31 80.2C30.5333 80.2 30.2067 80.1067 30.02 79.92C29.8467 79.7333 29.76 79.5067 29.76 79.24V78.8C29.76 78.5333 29.8467 78.3067 30.02 78.12C30.2067 77.9333 30.5333 77.84 31 77.84C31.4667 77.84 31.7867 77.9333 31.96 78.12C32.1467 78.3067 32.24 78.5333 32.24 78.8V79.24C32.24 79.5067 32.1467 79.7333 31.96 79.92C31.7867 80.1067 31.4667 80.2 31 80.2ZM47.4922 74.66H41.0322L40.7122 79.08H40.8922C41.0389 78.76 41.2055 78.4667 41.3922 78.2C41.5789 77.92 41.7989 77.6867 42.0522 77.5C42.3055 77.3 42.5989 77.1467 42.9322 77.04C43.2655 76.9333 43.6455 76.88 44.0722 76.88C44.6455 76.88 45.1855 76.98 45.6922 77.18C46.2122 77.38 46.6655 77.6733 47.0522 78.06C47.4522 78.4333 47.7655 78.9 47.9922 79.46C48.2189 80.0067 48.3322 80.6267 48.3322 81.32C48.3322 82.0267 48.2122 82.68 47.9722 83.28C47.7322 83.88 47.3789 84.4 46.9122 84.84C46.4589 85.28 45.8922 85.6267 45.2122 85.88C44.5322 86.12 43.7589 86.24 42.8922 86.24C42.2122 86.24 41.6055 86.1667 41.0722 86.02C40.5389 85.8733 40.0655 85.68 39.6522 85.44C39.2522 85.1867 38.8989 84.9 38.5922 84.58C38.2989 84.2467 38.0455 83.9067 37.8322 83.56L40.0122 81.84C40.1722 82.1067 40.3389 82.36 40.5122 82.6C40.6989 82.84 40.9055 83.0533 41.1322 83.24C41.3722 83.4133 41.6322 83.5533 41.9122 83.66C42.2055 83.7533 42.5389 83.8 42.9122 83.8C43.6589 83.8 44.2189 83.6 44.5922 83.2C44.9789 82.7867 45.1722 82.24 45.1722 81.56V81.4C45.1722 80.7467 44.9789 80.2333 44.5922 79.86C44.2055 79.4867 43.6722 79.3 42.9922 79.3C42.4322 79.3 41.9655 79.4133 41.5922 79.64C41.2322 79.8533 40.9589 80.0667 40.7722 80.28L38.3122 79.94L38.8322 72.04H47.4922V74.66ZM54.9844 86.24C54.2377 86.24 53.6977 86.08 53.3644 85.76C53.0444 85.4267 52.8844 85.0333 52.8844 84.58V83.88C52.8844 83.4267 53.0444 83.04 53.3644 82.72C53.6977 82.3867 54.2377 82.22 54.9844 82.22C55.731 82.22 56.2644 82.3867 56.5844 82.72C56.9177 83.04 57.0844 83.4267 57.0844 83.88V84.58C57.0844 85.0333 56.9177 85.4267 56.5844 85.76C56.2644 86.08 55.731 86.24 54.9844 86.24ZM79.2888 86.24C77.4221 86.24 76.0354 85.6133 75.1288 84.36C74.2354 83.0933 73.7888 81.3133 73.7888 79.02C73.7888 76.7267 74.2354 74.9533 75.1288 73.7C76.0354 72.4333 77.4221 71.8 79.2888 71.8C80.0088 71.8 80.6421 71.9 81.1888 72.1C81.7488 72.2867 82.2288 72.5533 82.6288 72.9C83.0288 73.2467 83.3554 73.6667 83.6088 74.16C83.8754 74.6533 84.0821 75.2067 84.2288 75.82L81.4288 76.5C81.3488 76.1667 81.2554 75.86 81.1488 75.58C81.0421 75.3 80.9021 75.06 80.7288 74.86C80.5688 74.66 80.3621 74.5067 80.1088 74.4C79.8688 74.28 79.5754 74.22 79.2288 74.22C78.4154 74.22 77.8354 74.54 77.4888 75.18C77.1554 75.8067 76.9888 76.68 76.9888 77.8V80.24C76.9888 81.36 77.1554 82.24 77.4888 82.88C77.8354 83.5067 78.4154 83.82 79.2288 83.82C79.9221 83.82 80.4221 83.6067 80.7288 83.18C81.0488 82.7533 81.2821 82.2067 81.4288 81.54L84.2288 82.22C84.0821 82.8333 83.8754 83.3867 83.6088 83.88C83.3554 84.3733 83.0288 84.8 82.6288 85.16C82.2288 85.5067 81.7488 85.7733 81.1888 85.96C80.6421 86.1467 80.0088 86.24 79.2888 86.24ZM86.8009 86V72.04H89.8209V83.54H95.8209V86H86.8009ZM102.953 86.24C101.086 86.24 99.7065 85.6067 98.8131 84.34C97.9331 83.0733 97.4931 81.3 97.4931 79.02C97.4931 76.74 97.9331 74.9667 98.8131 73.7C99.7065 72.4333 101.086 71.8 102.953 71.8C104.82 71.8 106.193 72.4333 107.073 73.7C107.966 74.9667 108.413 76.74 108.413 79.02C108.413 81.3 107.966 83.0733 107.073 84.34C106.193 85.6067 104.82 86.24 102.953 86.24ZM102.953 83.82C103.806 83.82 104.393 83.5067 104.713 82.88C105.046 82.24 105.213 81.3533 105.213 80.22V77.8C105.213 76.68 105.046 75.8067 104.713 75.18C104.393 74.54 103.806 74.22 102.953 74.22C102.1 74.22 101.506 74.54 101.173 75.18C100.853 75.8067 100.693 76.68 100.693 77.8V80.24C100.693 81.36 100.853 82.24 101.173 82.88C101.506 83.5067 102.1 83.82 102.953 83.82ZM113.045 72.04V80.88C113.045 81.32 113.059 81.7267 113.085 82.1C113.125 82.46 113.205 82.7667 113.325 83.02C113.459 83.2733 113.652 83.4733 113.905 83.62C114.159 83.7533 114.505 83.82 114.945 83.82C115.385 83.82 115.732 83.7533 115.985 83.62C116.239 83.4733 116.425 83.2733 116.545 83.02C116.679 82.7667 116.759 82.46 116.785 82.1C116.825 81.7267 116.845 81.32 116.845 80.88V72.04H119.845V80.48C119.845 81.44 119.779 82.28 119.645 83C119.525 83.72 119.285 84.32 118.925 84.8C118.565 85.28 118.065 85.64 117.425 85.88C116.785 86.12 115.959 86.24 114.945 86.24C113.932 86.24 113.105 86.12 112.465 85.88C111.825 85.64 111.325 85.28 110.965 84.8C110.605 84.32 110.359 83.72 110.225 83C110.105 82.28 110.045 81.44 110.045 80.48V72.04H113.045ZM122.218 72.04H126.718C128.598 72.04 129.991 72.64 130.898 73.84C131.804 75.04 132.258 76.7667 132.258 79.02C132.258 81.2733 131.804 83 130.898 84.2C129.991 85.4 128.598 86 126.718 86H122.218V72.04ZM126.518 83.64C127.411 83.64 128.064 83.3533 128.478 82.78C128.891 82.2067 129.098 81.3733 129.098 80.28V77.74C129.098 76.66 128.891 75.8333 128.478 75.26C128.064 74.6867 127.411 74.4 126.518 74.4H125.178V83.64H126.518ZM150.702 86.24C149.529 86.24 148.509 86.0467 147.642 85.66C146.775 85.2733 146.075 84.7467 145.542 84.08L147.282 82.16C147.789 82.72 148.342 83.1333 148.942 83.4C149.555 83.6667 150.175 83.8 150.802 83.8C151.522 83.8 152.069 83.64 152.442 83.32C152.815 83 153.002 82.54 153.002 81.94C153.002 81.4467 152.855 81.0733 152.562 80.82C152.282 80.5667 151.802 80.3867 151.122 80.28L149.662 80.04C148.409 79.8267 147.502 79.3667 146.942 78.66C146.382 77.94 146.102 77.0667 146.102 76.04C146.102 74.6933 146.542 73.6533 147.422 72.92C148.302 72.1733 149.535 71.8 151.122 71.8C152.202 71.8 153.142 71.9667 153.942 72.3C154.742 72.6333 155.389 73.0867 155.882 73.66L154.182 75.56C153.809 75.1467 153.369 74.8267 152.862 74.6C152.355 74.36 151.782 74.24 151.142 74.24C149.795 74.24 149.122 74.7933 149.122 75.9C149.122 76.38 149.269 76.74 149.562 76.98C149.869 77.22 150.362 77.4 151.042 77.52L152.502 77.78C153.635 77.98 154.509 78.4067 155.122 79.06C155.735 79.7133 156.042 80.5933 156.042 81.7C156.042 82.3533 155.929 82.96 155.702 83.52C155.475 84.0667 155.135 84.5467 154.682 84.96C154.229 85.36 153.669 85.6733 153.002 85.9C152.349 86.1267 151.582 86.24 150.702 86.24ZM158.514 86V72.04H167.434V74.5H161.514V77.7H167.234V80.16H161.514V83.54H167.434V86H158.514ZM173.386 86H170.426V72.04H175.826C176.506 72.04 177.113 72.1467 177.646 72.36C178.18 72.56 178.626 72.8533 178.986 73.24C179.36 73.6267 179.64 74.0933 179.826 74.64C180.013 75.1867 180.106 75.8 180.106 76.48C180.106 77.4667 179.893 78.3133 179.466 79.02C179.04 79.7267 178.433 80.1933 177.646 80.42L180.386 86H177.106L174.766 80.82H173.386V86ZM175.106 78.5C175.813 78.5 176.3 78.3667 176.566 78.1C176.846 77.8333 176.986 77.3933 176.986 76.78V76.18C176.986 75.5667 176.846 75.1267 176.566 74.86C176.3 74.5933 175.813 74.46 175.106 74.46H173.386V78.5H175.106ZM184.778 86L181.078 72.04H184.418L186.058 79.14L186.878 83.16H187.038L187.878 79.14L189.538 72.04H192.718L189.018 86H184.778ZM194.491 86V72.04H203.411V74.5H197.491V77.7H203.211V80.16H197.491V83.54H203.411V86H194.491ZM209.363 86H206.403V72.04H211.803C212.483 72.04 213.089 72.1467 213.623 72.36C214.156 72.56 214.603 72.8533 214.963 73.24C215.336 73.6267 215.616 74.0933 215.803 74.64C215.989 75.1867 216.083 75.8 216.083 76.48C216.083 77.4667 215.869 78.3133 215.443 79.02C215.016 79.7267 214.409 80.1933 213.623 80.42L216.363 86H213.083L210.743 80.82H209.363V86ZM211.083 78.5C211.789 78.5 212.276 78.3667 212.543 78.1C212.823 77.8333 212.963 77.3933 212.963 76.78V76.18C212.963 75.5667 212.823 75.1267 212.543 74.86C212.276 74.5933 211.789 74.46 211.083 74.46H209.363V78.5H211.083ZM237.487 79.78L237.647 75.88H237.467L234.867 83.06L232.267 75.88H232.087L232.247 79.78V86H229.647V72.04H233.187L234.907 76.74H235.067L236.787 72.04H240.087V86H237.487V79.78ZM249.559 86L248.679 82.64H244.859L243.999 86H240.959L244.739 72.04H248.979L252.759 86H249.559ZM246.859 74.94H246.699L245.339 80.22H248.219L246.859 74.94ZM256.852 76.72H256.632V86H254.072V72.04H257.672L260.852 81.32H261.072V72.04H263.632V86H260.032L256.852 76.72ZM273.544 86L272.664 82.64H268.844L267.984 86H264.944L268.724 72.04H272.964L276.744 86H273.544ZM270.844 74.94H270.684L269.324 80.22H272.204L270.844 74.94ZM285.056 84.02H284.876C284.756 84.3133 284.609 84.5933 284.436 84.86C284.263 85.1267 284.049 85.3667 283.796 85.58C283.543 85.78 283.243 85.94 282.896 86.06C282.563 86.18 282.183 86.24 281.756 86.24C281.076 86.24 280.469 86.08 279.936 85.76C279.416 85.44 278.976 84.9733 278.616 84.36C278.256 83.7467 277.983 83 277.796 82.12C277.623 81.24 277.536 80.2467 277.536 79.14C277.536 76.7667 277.969 74.9533 278.836 73.7C279.703 72.4333 281.043 71.8 282.856 71.8C283.576 71.8 284.209 71.9 284.756 72.1C285.303 72.2867 285.769 72.56 286.156 72.92C286.556 73.2667 286.883 73.6867 287.136 74.18C287.389 74.6733 287.589 75.22 287.736 75.82L284.936 76.5C284.856 76.2067 284.763 75.9267 284.656 75.66C284.563 75.38 284.436 75.1333 284.276 74.92C284.116 74.7067 283.916 74.54 283.676 74.42C283.436 74.2867 283.143 74.22 282.796 74.22C282.036 74.22 281.496 74.5333 281.176 75.16C280.869 75.7867 280.716 76.6667 280.716 77.8V80.08C280.716 81.2133 280.883 82.12 281.216 82.8C281.563 83.48 282.169 83.82 283.036 83.82C283.716 83.82 284.223 83.62 284.556 83.22C284.889 82.82 285.056 82.3067 285.056 81.68V80.66H282.676V78.54H287.736V86H285.056V84.02ZM297.448 79.78L297.608 75.88H297.428L294.828 83.06L292.228 75.88H292.048L292.208 79.78V86H289.608V72.04H293.148L294.868 76.74H295.028L296.748 72.04H300.048V86H297.448V79.78ZM302.42 86V72.04H311.34V74.5H305.42V77.7H311.14V80.16H305.42V83.54H311.34V86H302.42ZM316.813 76.72H316.593V86H314.033V72.04H317.633L320.813 81.32H321.033V72.04H323.593V86H319.993L316.813 76.72ZM332.305 74.5V86H329.305V74.5H325.285V72.04H336.325V74.5H332.305Z" fill="#24252E"/>
<g clip-path="url(#clip0_80_6390)">
<path d="M240.041 147.054H235.446V142.033H230.452V137.021H226.578V132H217.744V137.021H208.049V142.033H200.034V147.054H190.676V152.075H177.417V157.095H246.217V152.075H240.041V147.054Z" fill="#F1F1F4"/>
</g>
<g clip-path="url(#clip1_80_6390)">
<path d="M253.797 207.482H258.391V202.461H263.385V197.449H267.26V192.428H276.093V197.449H285.788V202.461H293.804V207.482H303.161V212.503H316.42V217.524H247.621V212.503H253.797V207.482Z" fill="#F1F1F4"/>
</g>
<g clip-path="url(#clip2_80_6390)">
<path d="M83.1762 159.495H87.7705V154.474H92.7647V149.462H96.6392V144.441H105.472V149.462H115.168V154.474H123.183V159.495H132.541V164.516H145.799V169.537H77.0001V164.516H83.1762V159.495Z" fill="#F1F1F4"/>
</g>
<path d="M262.683 186.564V295.257H147.426V180H149.437V181.571V183.571H151.437H164.735H166.735V181.571V180H256.118L262.683 186.564ZM252.405 284.291C250.571 284.291 249.081 285.781 249.081 287.614V290.869C249.081 292.702 250.571 294.193 252.405 294.193H258.27C260.104 294.193 261.594 292.702 261.594 290.869V287.614C261.594 285.781 260.104 284.291 258.27 284.291H252.405Z" fill="#546FFD" stroke="#24252E" stroke-width="4"/>
<path fill-rule="evenodd" clip-rule="evenodd" d="M151.692 286.291H157.558C158.287 286.291 158.882 286.886 158.882 287.614V290.869C158.882 291.598 158.287 292.193 157.558 292.193H151.692C150.964 292.193 150.369 291.598 150.369 290.869V287.614C150.381 286.886 150.976 286.291 151.692 286.291Z" fill="#546FFD"/>
<path fill-rule="evenodd" clip-rule="evenodd" d="M166.8 293.078V238.512C166.8 235.515 169.241 233.078 172.216 233.078H237.88C240.868 233.078 243.297 235.527 243.297 238.512V293.078" fill="#F9F9FA"/>
<path d="M166.8 293.078V238.512C166.8 235.515 169.241 233.078 172.216 233.078H237.88C240.868 233.078 243.297 235.527 243.297 238.512V293.078" stroke="#24252E" stroke-width="4" stroke-miterlimit="22.9256"/>
<path d="M179.28 180H230.816V202.957C230.816 205.061 229.086 206.798 226.975 206.798H183.122C181.017 206.798 179.28 205.068 179.28 202.957V180Z" fill="#FC8896" stroke="#24252E" stroke-width="4"/>
<rect x="214.219" y="186.072" width="9.3587" height="13.002" fill="#FC8896" stroke="#24252E" stroke-width="4"/>
<path d="M151.872 242.23H132.728V237.246C132.728 235.739 131.511 234.522 130.004 234.522H94.7492C93.2424 234.522 92.0254 235.739 92.0254 237.246L95.7344 295.76H165.395L156.605 246.19C156.2 243.891 154.21 242.23 151.872 242.23Z" fill="#FB6376" stroke="#24252E" stroke-width="4" stroke-miterlimit="10"/>
<path d="M166.284 295.76H96.623L105.335 253.859C105.799 251.618 107.769 250.034 110.049 250.034H169.896C172.948 250.034 175.228 252.835 174.61 255.83L166.284 295.76Z" fill="#FB6376" stroke="#24252E" stroke-width="4" stroke-miterlimit="10"/>
<path d="M181.597 253.882C183.718 244.934 178.183 235.961 169.234 233.84C160.286 231.719 151.313 237.254 149.192 246.202C147.071 255.151 152.606 264.124 161.554 266.245C170.503 268.366 179.476 262.831 181.597 253.882Z" fill="white" stroke="#24252E" stroke-width="4" stroke-miterlimit="10"/>
<path d="M165.395 244.219V257.915" stroke="#24252E" stroke-width="4" stroke-miterlimit="10"/>
<path d="M172.253 251.058H158.556" stroke="#24252E" stroke-width="4" stroke-miterlimit="10"/>
<path d="M288.348 249.273L287.425 246.572L284.725 247.484L283.813 244.772L281.112 245.684L280.2 242.983L277.5 243.895L276.588 241.183L273.876 242.106L272.964 239.394L270.264 240.306L269.352 237.605L266.651 238.517L265.74 235.805L263.039 236.716L262.116 234.016L259.415 234.928L258.504 232.227L255.803 233.139L254.891 230.427L252.191 231.338L251.279 228.638L248.567 229.549L247.655 226.849L244.955 227.761L261.354 276.429L264.066 275.517L263.155 272.816L265.855 271.905L264.943 269.204L267.656 268.292L266.744 265.58L272.145 263.768L273.968 269.169L276.681 268.258L278.492 273.67L281.205 272.759L283.028 278.171L285.729 277.26L286.64 279.96L292.053 278.137L291.141 275.436L293.842 274.524L292.018 269.112L289.318 270.023L287.494 264.611L284.782 265.522L282.97 260.121L280.258 261.033L278.435 255.62L291.961 251.062L291.049 248.361L288.348 249.273Z" fill="#110151"/>
<path d="M282.901 242.071L281.989 239.37L279.289 240.271L278.377 237.57L275.676 238.482L274.765 235.781L272.064 236.693L271.152 233.981L268.44 234.893L267.529 232.192L264.828 233.104L263.916 230.403L261.216 231.315L260.292 228.603L257.592 229.515L256.692 226.814L253.979 227.726L253.068 225.025L250.367 225.937L263.12 263.791L265.832 262.879L264.92 260.179L267.621 259.267L266.709 256.555L269.41 255.655L268.498 252.943L271.21 252.031L273.034 257.444L275.734 256.532L277.558 261.944L280.258 261.033L282.082 266.434L284.782 265.522L286.606 270.935L292.018 269.111L290.195 263.699L287.494 264.61L285.671 259.209L282.97 260.121L281.147 254.708L278.435 255.62L275.699 247.507L286.525 243.86L285.613 241.159L282.901 242.071Z" fill="url(#paint0_linear_80_6390)"/>
<path d="M262.208 261.091L250.367 225.937L253.068 225.025L252.156 222.313L249.456 223.225L248.544 220.524L245.843 221.436L262.243 270.116L264.943 269.204L264.032 266.492L266.744 265.58L265.832 262.88L263.12 263.791L262.208 261.091Z" fill="#110151"/>
<path d="M265.832 262.879L268.533 261.968L267.621 259.267L264.92 260.179L265.832 262.879Z" fill="#110151"/>
<path d="M271.21 252.031L268.498 252.943L269.41 255.655L266.709 256.555L267.621 259.267L273.033 257.444L271.21 252.031Z" fill="#110151"/>
<path d="M275.734 256.532L273.034 257.443L274.857 262.856L277.558 261.944L275.734 256.532Z" fill="#110151"/>
<path d="M280.258 261.033L277.558 261.945L279.381 267.346L282.082 266.434L280.258 261.033Z" fill="#110151"/>
<path d="M284.783 265.522L282.082 266.434L283.906 271.847L286.606 270.935L284.783 265.522Z" fill="#110151"/>
<path d="M289.226 242.948L288.314 240.248L285.613 241.16L286.525 243.86L275.7 247.507L278.435 255.62L281.147 254.709L279.324 249.296L292.838 244.737L291.926 242.037L289.226 242.948Z" fill="#110151"/>
<path d="M282.97 260.121L285.671 259.21L283.848 253.797L281.147 254.709L282.97 260.121Z" fill="#110151"/>
<path d="M287.494 264.61L290.195 263.699L288.371 258.298L285.671 259.209L287.494 264.61Z" fill="#110151"/>
<path d="M292.018 269.112L294.719 268.2L292.895 262.787L290.195 263.699L292.018 269.112Z" fill="#110151"/>
<path d="M286.606 270.935L287.518 273.635L292.93 271.812L292.019 269.111L286.606 270.935Z" fill="#110151"/>
<path d="M256.692 226.814L255.768 224.114L253.068 225.025L253.98 227.726L256.692 226.814Z" fill="#110151"/>
<path d="M260.293 228.603L259.392 225.902L256.692 226.814L257.592 229.515L260.293 228.603Z" fill="#110151"/>
<path d="M263.916 230.403L263.005 227.691L260.292 228.603L261.216 231.315L263.916 230.403Z" fill="#110151"/>
<path d="M267.529 232.192L266.617 229.492L263.917 230.403L264.828 233.104L267.529 232.192Z" fill="#110151"/>
<path d="M271.153 233.981L270.241 231.281L267.529 232.192L268.441 234.893L271.153 233.981Z" fill="#110151"/>
<path d="M274.765 235.781L273.853 233.069L271.152 233.981L272.064 236.693L274.765 235.781Z" fill="#110151"/>
<path d="M278.377 237.57L277.466 234.87L274.765 235.781L275.677 238.482L278.377 237.57Z" fill="#110151"/>
<path d="M281.989 239.371L281.078 236.658L278.377 237.57L279.289 240.271L281.989 239.371Z" fill="#110151"/>
<path d="M285.614 241.16L284.702 238.459L281.99 239.371L282.901 242.071L285.614 241.16Z" fill="#110151"/>
<path d="M1 1V0H0V1H1ZM393 1H394V0H393V1ZM393 363V364H394V363H393ZM1 363H0V364H1V363ZM1 2H393V0H1V2ZM392 1V363H394V1H392ZM393 362H1V364H393V362ZM2 363V1H0V363H2Z" fill="white"/>
</g>
<defs>
<filter id="filter0_d_80_6390" x="0" y="0" width="402" height="372" filterUnits="userSpaceOnUse" color-interpolation-filters="sRGB">
<feFlood flood-opacity="0" result="BackgroundImageFix"/>
<feColorMatrix in="SourceAlpha" type="matrix" values="0 0 0 0 0 0 0 0 0 0 0 0 0 0 0 0 0 0 127 0" result="hardAlpha"/>
<feOffset dx="8" dy="8"/>
<feColorMatrix type="matrix" values="0 0 0 0 0.466667 0 0 0 0 0.54902 0 0 0 0 0.992157 0 0 0 1 0"/>
<feBlend mode="normal" in2="BackgroundImageFix" result="effect1_dropShadow_80_6390"/>
<feBlend mode="normal" in="SourceGraphic" in2="effect1_dropShadow_80_6390" result="shape"/>
</filter>
<linearGradient id="paint0_linear_80_6390" x1="258.902" y1="232.361" x2="289.791" y2="272.536" gradientUnits="userSpaceOnUse">
<stop stop-color="#FFEDB2"/>
<stop offset="1" stop-color="#FFA1D5"/>
</linearGradient>
<clipPath id="clip0_80_6390">
<rect width="68.7993" height="25.0955" fill="white" transform="translate(177.417 132)"/>
</clipPath>
<clipPath id="clip1_80_6390">
<rect width="68.7993" height="25.0955" fill="white" transform="matrix(-1 0 0 1 316.42 192.428)"/>
</clipPath>
<clipPath id="clip2_80_6390">
<rect width="68.7993" height="25.0955" fill="white" transform="matrix(-1 0 0 1 145.799 144.441)"/>
</clipPath>
</defs>
</svg>
