<svg width="402" height="372" viewBox="0 0 402 372" fill="none" xmlns="http://www.w3.org/2000/svg">
<g filter="url(#filter0_d_80_6389)">
<path d="M1 1H393V363H1V1Z" fill="white"/>
<path d="M31 86.24C29.1333 86.24 27.7533 85.6067 26.86 84.34C25.98 83.0733 25.54 81.3 25.54 79.02C25.54 76.74 25.98 74.9667 26.86 73.7C27.7533 72.4333 29.1333 71.8 31 71.8C32.8667 71.8 34.24 72.4333 35.12 73.7C36.0133 74.9667 36.46 76.74 36.46 79.02C36.46 81.3 36.0133 83.0733 35.12 84.34C34.24 85.6067 32.8667 86.24 31 86.24ZM31 83.88C31.8933 83.88 32.5133 83.5667 32.86 82.94C33.22 82.3133 33.4 81.44 33.4 80.32V77.72C33.4 76.6 33.22 75.7267 32.86 75.1C32.5133 74.4733 31.8933 74.16 31 74.16C30.1067 74.16 29.48 74.4733 29.12 75.1C28.7733 75.7267 28.6 76.6 28.6 77.72V80.32C28.6 81.44 28.7733 82.3133 29.12 82.94C29.48 83.5667 30.1067 83.88 31 83.88ZM31 80.2C30.5333 80.2 30.2067 80.1067 30.02 79.92C29.8467 79.7333 29.76 79.5067 29.76 79.24V78.8C29.76 78.5333 29.8467 78.3067 30.02 78.12C30.2067 77.9333 30.5333 77.84 31 77.84C31.4667 77.84 31.7867 77.9333 31.96 78.12C32.1467 78.3067 32.24 78.5333 32.24 78.8V79.24C32.24 79.5067 32.1467 79.7333 31.96 79.92C31.7867 80.1067 31.4667 80.2 31 80.2ZM48.0922 86H38.0522V83.26L42.4522 79.6C43.2122 78.9467 43.7589 78.38 44.0922 77.9C44.4255 77.42 44.5922 76.9133 44.5922 76.38V76.18C44.5922 75.5933 44.4189 75.1533 44.0722 74.86C43.7255 74.5533 43.2589 74.4 42.6722 74.4C42.0055 74.4 41.4922 74.5933 41.1322 74.98C40.7722 75.3667 40.5189 75.8267 40.3722 76.36L37.7522 75.36C37.9122 74.88 38.1322 74.4267 38.4122 74C38.6922 73.56 39.0455 73.18 39.4722 72.86C39.9122 72.54 40.4189 72.2867 40.9922 72.1C41.5655 71.9 42.2255 71.8 42.9722 71.8C43.7322 71.8 44.4122 71.9067 45.0122 72.12C45.6122 72.3333 46.1189 72.6267 46.5322 73C46.9455 73.3733 47.2589 73.82 47.4722 74.34C47.6855 74.8467 47.7922 75.4 47.7922 76C47.7922 76.5867 47.6922 77.1267 47.4922 77.62C47.3055 78.1 47.0389 78.5533 46.6922 78.98C46.3589 79.4067 45.9589 79.82 45.4922 80.22C45.0389 80.62 44.5522 81.02 44.0322 81.42L41.3722 83.48H48.0922V86ZM54.9844 86.24C54.2377 86.24 53.6977 86.08 53.3644 85.76C53.0444 85.4267 52.8844 85.0333 52.8844 84.58V83.88C52.8844 83.4267 53.0444 83.04 53.3644 82.72C53.6977 82.3867 54.2377 82.22 54.9844 82.22C55.731 82.22 56.2644 82.3867 56.5844 82.72C56.9177 83.04 57.0844 83.4267 57.0844 83.88V84.58C57.0844 85.0333 56.9177 85.4267 56.5844 85.76C56.2644 86.08 55.731 86.24 54.9844 86.24ZM81.6688 86L80.7888 82.64H76.9688L76.1088 86H73.0688L76.8488 72.04H81.0888L84.8688 86H81.6688ZM78.9688 74.94H78.8088L77.4488 80.22H80.3288L78.9688 74.94ZM86.4809 86V72.04H91.8809C92.5609 72.04 93.1676 72.1467 93.7009 72.36C94.2343 72.56 94.6809 72.8533 95.0409 73.24C95.4143 73.6267 95.6943 74.0933 95.8809 74.64C96.0676 75.1867 96.1609 75.8 96.1609 76.48C96.1609 77.16 96.0676 77.7733 95.8809 78.32C95.6943 78.8667 95.4143 79.3333 95.0409 79.72C94.6809 80.1067 94.2343 80.4067 93.7009 80.62C93.1676 80.82 92.5609 80.92 91.8809 80.92H89.5009V86H86.4809ZM89.5009 78.5H91.1209C91.8276 78.5 92.3143 78.3667 92.5809 78.1C92.8609 77.8333 93.0009 77.3933 93.0009 76.78V76.18C93.0009 75.5667 92.8609 75.1267 92.5809 74.86C92.3143 74.5933 91.8276 74.46 91.1209 74.46H89.5009V78.5ZM98.4731 86V72.04H103.873C104.553 72.04 105.16 72.1467 105.693 72.36C106.226 72.56 106.673 72.8533 107.033 73.24C107.406 73.6267 107.686 74.0933 107.873 74.64C108.06 75.1867 108.153 75.8 108.153 76.48C108.153 77.16 108.06 77.7733 107.873 78.32C107.686 78.8667 107.406 79.3333 107.033 79.72C106.673 80.1067 106.226 80.4067 105.693 80.62C105.16 80.82 104.553 80.92 103.873 80.92H101.493V86H98.4731ZM101.493 78.5H103.113C103.82 78.5 104.306 78.3667 104.573 78.1C104.853 77.8333 104.993 77.3933 104.993 76.78V76.18C104.993 75.5667 104.853 75.1267 104.573 74.86C104.306 74.5933 103.82 74.46 103.113 74.46H101.493V78.5ZM129.558 79.78L129.718 75.88H129.538L126.938 83.06L124.338 75.88H124.158L124.318 79.78V86H121.718V72.04H125.258L126.978 76.74H127.138L128.858 72.04H132.158V86H129.558V79.78ZM138.93 86.24C137.063 86.24 135.683 85.6067 134.79 84.34C133.91 83.0733 133.47 81.3 133.47 79.02C133.47 76.74 133.91 74.9667 134.79 73.7C135.683 72.4333 137.063 71.8 138.93 71.8C140.796 71.8 142.17 72.4333 143.05 73.7C143.943 74.9667 144.39 76.74 144.39 79.02C144.39 81.3 143.943 83.0733 143.05 84.34C142.17 85.6067 140.796 86.24 138.93 86.24ZM138.93 83.82C139.783 83.82 140.37 83.5067 140.69 82.88C141.023 82.24 141.19 81.3533 141.19 80.22V77.8C141.19 76.68 141.023 75.8067 140.69 75.18C140.37 74.54 139.783 74.22 138.93 74.22C138.076 74.22 137.483 74.54 137.15 75.18C136.83 75.8067 136.67 76.68 136.67 77.8V80.24C136.67 81.36 136.83 82.24 137.15 82.88C137.483 83.5067 138.076 83.82 138.93 83.82ZM146.462 72.04H151.362C152.735 72.04 153.782 72.3733 154.502 73.04C155.235 73.7067 155.602 74.6133 155.602 75.76C155.602 76.56 155.402 77.2 155.002 77.68C154.615 78.1467 154.055 78.4867 153.322 78.7V78.82C154.189 79.0333 154.855 79.4067 155.322 79.94C155.802 80.4733 156.042 81.2133 156.042 82.16C156.042 83.3333 155.669 84.2667 154.922 84.96C154.189 85.6533 153.155 86 151.822 86H146.462V72.04ZM150.902 83.9C151.622 83.9 152.149 83.78 152.482 83.54C152.815 83.3 152.982 82.86 152.982 82.22V81.64C152.982 81 152.815 80.56 152.482 80.32C152.149 80.08 151.622 79.96 150.902 79.96H149.382V83.9H150.902ZM150.522 77.96C151.229 77.96 151.742 77.8467 152.062 77.62C152.382 77.38 152.542 76.9533 152.542 76.34V75.74C152.542 75.1267 152.382 74.7067 152.062 74.48C151.742 74.2533 151.229 74.14 150.522 74.14H149.382V77.96H150.522ZM158.414 86V83.78H161.414V74.26H158.414V72.04H167.414V74.26H164.414V83.78H167.414V86H158.414ZM170.746 86V72.04H173.766V83.54H179.766V86H170.746ZM182.498 86V72.04H191.418V74.5H185.498V77.7H191.218V80.16H185.498V83.54H191.418V86H182.498Z" fill="#24252E"/>
<rect x="132" y="129" width="89" height="153" rx="10" fill="#546FFD" stroke="#24252E" stroke-width="2"/>
<path d="M138 149C138 145.134 141.134 142 145 142H208C211.866 142 215 145.134 215 149V258C215 261.866 211.866 265 208 265H145C141.134 265 138 261.866 138 258V149Z" fill="#DCE1FE" stroke="#24252E" stroke-width="2"/>
<rect x="162" y="272" width="29" height="2" rx="1" fill="white" stroke="#24252E" stroke-width="2"/>
<path fill-rule="evenodd" clip-rule="evenodd" d="M201.466 171.897C201.559 172.089 201.762 172.416 201.884 172.77C202.387 174.214 203.177 175.505 203.94 176.815C204.778 178.254 205.506 179.763 206.374 181.184C206.952 182.133 207.399 183.123 207.735 184.173C207.849 184.531 207.922 184.909 207.969 185.283C208.107 186.434 207.617 187.264 206.623 187.806C205.846 188.227 205.016 188.451 204.129 188.466C202.313 188.498 200.505 188.442 198.711 188.139C196.625 187.79 194.536 187.515 192.411 187.479C191.207 187.459 190.006 187.275 188.805 187.152C188.199 187.09 187.632 186.915 187.089 186.617C186.222 186.143 185.614 184.914 186.084 183.774C186.408 182.989 186.869 182.313 187.487 181.735C189.092 180.235 190.725 178.767 192.277 177.215C193.999 175.498 195.895 173.999 197.775 172.472C198.436 171.935 199.236 171.718 199.96 171.328C200.436 171.068 200.985 171.303 201.466 171.897ZM199.546 174.292C199.285 174.469 199.056 174.594 198.863 174.76C197.341 176.069 195.781 177.33 194.362 178.762C192.789 180.352 191.127 181.849 189.503 183.385C189.207 183.665 188.896 183.929 188.778 184.432C189.067 184.491 189.316 184.567 189.568 184.587C190.885 184.694 192.206 184.782 193.523 184.889C194.689 184.983 195.857 185.082 197.021 185.207C197.695 185.281 198.364 185.415 199.036 185.523C200.647 185.782 202.269 185.852 203.895 185.825C204.376 185.816 204.872 185.814 205.281 185.437C205.108 184.332 204.62 183.398 204.064 182.492C203.826 182.104 203.588 181.717 203.368 181.319C202.689 180.09 202.017 178.858 201.346 177.625C200.856 176.727 200.369 175.828 199.882 174.928C199.777 174.735 199.677 174.54 199.546 174.292Z" fill="#FC8896"/>
<path fill-rule="evenodd" clip-rule="evenodd" d="M184.27 198.922C184.27 199.366 184.264 199.809 184.273 200.254C184.302 201.785 183.928 203.225 183.332 204.624C182.907 205.622 182.451 206.601 181.852 207.507C180.909 208.931 179.674 210.03 178.197 210.86C178.112 210.907 178.025 210.957 177.932 210.99C176.773 211.398 175.694 211.984 174.588 212.512C172.668 213.43 170.628 213.932 168.541 214.261C168.063 214.337 167.565 214.308 167.075 214.301C165.774 214.288 164.483 214.142 163.208 213.9C161.658 213.605 160.201 213.025 158.83 212.242C158.407 212 158.009 211.704 157.622 211.407C156.961 210.896 156.329 210.35 155.662 209.849C154.852 209.24 154.209 208.458 153.475 207.776C153.333 207.641 153.224 207.465 153.07 207.35C152.578 206.986 152.296 206.48 152.038 205.94C151.742 205.318 151.417 204.713 151.248 204.037C151.184 203.78 151.077 203.511 150.921 203.301C150.452 202.665 150.249 201.94 150.125 201.181C149.915 199.892 149.764 198.596 149.806 197.284C149.82 196.841 149.871 196.413 150.044 195.988C150.22 195.56 150.345 195.101 150.336 194.624C150.327 194.224 150.425 193.843 150.574 193.476C150.946 192.565 151.324 191.656 151.695 190.747C151.742 190.633 151.793 190.521 151.824 190.403C152.14 189.207 152.843 188.22 153.555 187.253C153.958 186.705 154.472 186.221 155.006 185.796C155.602 185.319 156.174 184.824 156.717 184.289C157.845 183.174 159.144 182.31 160.57 181.63C161.509 181.182 162.508 180.943 163.522 180.768C164.414 180.616 165.309 180.455 166.207 180.352C167.233 180.235 168.248 180.284 169.267 180.544C172.528 181.375 175.405 182.96 178.079 184.961C178.255 185.093 178.422 185.243 178.562 185.413C179.543 186.611 180.533 187.801 181.483 189.024C182.304 190.08 182.871 191.289 183.345 192.531C183.59 193.169 183.679 193.868 183.866 194.53C184.188 195.679 184.328 196.845 184.277 198.038C184.262 198.329 184.273 198.627 184.27 198.922ZM174.935 204.422C175.253 204.422 175.449 204.413 175.645 204.425C175.959 204.443 176.215 204.304 176.459 204.134C176.666 203.99 176.671 203.704 176.45 203.583C176.174 203.431 175.879 203.319 175.578 203.185C175.534 203.028 175.498 202.858 175.436 202.701C175.327 202.421 175.149 202.312 174.871 202.327C174.584 202.343 174.439 202.448 174.39 202.775C174.337 203.138 174.159 203.42 173.925 203.675C173.627 203.999 173.313 204.311 172.997 204.617C172.875 204.736 172.731 204.832 172.586 204.922C172.252 205.128 171.914 205.329 171.571 205.517C170.599 206.052 169.594 206.498 168.483 206.65C166.946 206.862 165.407 206.907 163.887 206.538C162.472 206.195 161.273 205.488 160.303 204.36C159.664 203.617 159.153 202.833 158.917 201.877C158.899 201.806 158.872 201.736 158.848 201.667C158.652 201.13 158.563 200.574 158.561 200.001C158.559 199.263 158.548 198.522 158.525 197.783C158.503 197.008 158.665 196.27 158.881 195.544C158.988 195.489 159.073 195.437 159.162 195.401C159.369 195.323 159.582 195.267 159.785 195.18C159.954 195.106 160.047 194.965 160.047 194.77C160.047 194.58 159.963 194.434 159.793 194.356C159.569 194.253 159.34 194.168 159.086 194.269C158.973 194.313 158.85 194.338 158.737 194.38C158.492 194.474 158.263 194.488 158.049 194.298C157.976 194.233 157.887 194.186 157.8 194.143C157.569 194.029 157.362 194.072 157.208 194.257C157.075 194.418 157.046 194.613 157.19 194.801C157.411 195.088 157.662 195.35 157.929 195.652C157.889 195.797 157.833 195.983 157.782 196.171C157.644 196.695 157.518 197.221 157.504 197.77C157.489 198.459 157.462 199.148 157.442 199.84C157.42 200.635 157.529 201.405 157.782 202.166C158.347 203.863 158.338 203.863 159.478 205.226C160.646 206.627 162.156 207.413 163.903 207.807C165.113 208.08 166.337 208.047 167.56 208.006C168.824 207.966 170.034 207.666 171.169 207.104C171.936 206.724 172.684 206.298 173.425 205.866C173.652 205.734 173.834 205.522 174.028 205.334C174.341 205.031 174.646 204.716 174.935 204.422ZM174.286 193.113C174.283 193.064 174.283 193.015 174.281 192.966C174.366 192.937 174.448 192.887 174.533 192.878C174.995 192.829 175.458 192.78 175.921 192.749C176.212 192.728 176.495 192.731 176.768 192.905C176.984 193.042 177.225 192.943 177.329 192.744C177.431 192.552 177.358 192.325 177.153 192.164C176.931 191.987 176.671 191.927 176.399 191.914C175.885 191.889 175.371 191.86 174.857 191.858C174.263 191.853 173.683 191.979 173.158 192.258C172.221 192.758 172.021 193.232 172.428 194.329C172.486 194.486 172.584 194.642 172.702 194.763C173.167 195.236 173.64 195.699 174.123 196.151C174.246 196.265 174.408 196.346 174.564 196.404C174.699 196.456 174.855 196.451 174.969 196.323C175.08 196.198 175.091 196.048 175.009 195.914C174.817 195.6 174.628 195.285 174.404 194.998C174.208 194.748 173.959 194.542 173.741 194.307C173.689 194.251 173.667 194.166 173.627 194.08C173.936 194.004 174.159 194.13 174.39 194.195C174.626 194.262 174.857 194.333 175.095 194.396C175.471 194.495 175.861 194.535 176.221 194.714C176.379 194.792 176.604 194.765 176.791 194.741C176.969 194.718 177.098 194.591 177.133 194.401C177.169 194.21 177.062 194.013 176.853 193.937C176.441 193.787 176.023 193.653 175.605 193.519C175.169 193.378 174.726 193.248 174.286 193.113ZM162.906 189.98C162.91 190.078 162.91 190.177 162.921 190.273C162.966 190.656 163.14 190.846 163.502 190.924C163.865 191.003 164.185 190.893 164.461 190.676C164.844 190.376 165.22 190.06 165.569 189.722C165.985 189.324 166.13 188.809 166.056 188.242C165.989 187.73 165.607 187.488 165.115 187.631C164.953 187.678 164.79 187.757 164.626 187.77C164.281 187.797 164.036 187.981 163.814 188.216C163.662 188.374 163.533 188.556 163.378 188.71C163.026 189.064 162.886 189.489 162.906 189.98Z" fill="#FFB600"/>
<path fill-rule="evenodd" clip-rule="evenodd" d="M185.447 202.748C185.447 203.265 185.463 203.782 185.441 204.297C185.43 204.539 185.367 204.783 185.292 205.016C185.06 205.716 184.811 206.412 184.573 207.111C184.406 207.603 184.19 208.071 183.89 208.496C183.496 209.058 183.091 209.613 182.702 210.18C182.382 210.645 182.099 211.138 181.759 211.586C181.494 211.935 181.171 212.242 180.867 212.562C180.715 212.721 180.533 212.853 180.386 213.018C180.186 213.244 179.939 213.376 179.676 213.52C178.989 213.894 178.33 214.323 177.658 214.726C177.322 214.928 176.986 215.129 176.642 215.315C176.455 215.416 176.279 215.534 176.025 215.398C175.907 215.333 175.696 215.429 175.534 215.472C174.659 215.704 173.792 215.966 172.913 216.172C171.914 216.405 170.911 216.68 169.896 216.772C168.857 216.864 167.794 216.922 166.753 216.674C166.47 216.607 166.172 216.589 165.88 216.578C165.489 216.562 165.095 216.557 164.706 216.58C163.093 216.665 161.54 216.316 159.996 215.922C159.6 215.821 159.228 215.606 158.855 215.422C158.37 215.185 157.871 214.995 157.355 214.834C156.512 214.572 155.702 214.214 155.048 213.585C154.605 213.159 154.154 212.741 153.735 212.293C153.184 211.7 152.641 211.095 152.127 210.469C151.473 209.669 150.941 208.792 150.46 207.87C149.955 206.9 149.673 205.855 149.266 204.857C149.097 204.44 149.017 204.01 149.032 203.558C149.048 203.149 149.034 202.737 149.034 202.17C149.161 202.381 149.217 202.452 149.25 202.535C149.419 202.943 149.582 203.355 149.749 203.762C149.851 204.013 149.989 204.252 150.056 204.512C150.307 205.504 150.834 206.37 151.277 207.274C151.362 207.449 151.475 207.619 151.611 207.758C152.091 208.248 152.585 208.725 153.075 209.206C153.144 209.275 153.226 209.331 153.29 209.405C154.456 210.724 155.9 211.715 157.277 212.774C158.61 213.8 160.167 214.413 161.771 214.901C163.073 215.297 164.412 215.411 165.751 215.543C166.85 215.651 167.956 215.691 169.048 215.508C171.18 215.152 173.262 214.617 175.222 213.667C176.279 213.155 177.329 212.624 178.43 212.203C179.187 211.912 179.852 211.422 180.479 210.914C181.398 210.171 182.217 209.322 182.864 208.32C183.912 206.697 184.704 204.96 185.196 203.084C185.227 202.97 185.28 202.86 185.325 202.748C185.369 202.746 185.407 202.748 185.447 202.748Z" fill="#778CFD"/>
<path fill-rule="evenodd" clip-rule="evenodd" d="M148.009 202.235C148.009 201.964 148.018 201.694 148.006 201.423C147.971 200.579 148.087 199.762 148.305 198.942C148.518 198.137 148.665 197.315 148.754 196.478C148.836 195.701 148.988 194.92 149.295 194.186C149.522 193.642 149.706 193.091 149.789 192.495C149.851 192.039 150.044 191.598 150.209 191.161C150.416 190.608 150.656 190.069 150.876 189.52C151.106 188.947 151.415 188.419 151.737 187.893C152.427 186.772 153.264 185.787 154.258 184.932C154.425 184.788 154.556 184.607 154.699 184.439C154.972 184.123 155.241 183.806 155.513 183.485C155.947 182.971 156.447 182.559 157.088 182.31C157.379 182.198 157.638 181.992 157.902 181.816C159.339 180.848 160.868 180.083 162.581 179.758C163.591 179.568 164.61 179.427 165.622 179.246C166.301 179.123 166.986 179.087 167.671 179.116C168.11 179.134 168.555 179.163 168.982 179.259C170.368 179.575 171.716 179.984 173.024 180.571C175.026 181.469 176.902 182.565 178.657 183.877C178.951 184.097 179.238 184.336 179.478 184.609C180.53 185.809 181.569 187.025 182.511 188.318C183.369 189.5 184.017 190.799 184.544 192.153C184.758 192.699 184.858 193.29 185.002 193.863C185.271 194.935 185.59 196.001 185.788 197.089C185.988 198.201 186.348 199.285 186.393 200.427C186.404 200.727 186.393 201.004 186.29 201.293C186.204 201.539 186.19 201.821 186.199 202.085C186.235 203.424 186.07 204.745 185.77 206.041C185.592 206.806 185.336 207.554 185.089 208.299C185.022 208.501 184.862 208.676 184.729 208.85C183.921 209.904 183.107 210.952 182.299 212.006C182.195 212.143 182.077 212.284 182.028 212.441C181.836 213.052 181.456 213.502 180.94 213.862C180.682 214.043 180.448 214.27 180.237 214.505C179.903 214.874 179.536 215.183 179.078 215.389C178.813 215.507 178.575 215.689 178.321 215.837C176.955 216.627 175.474 217.126 173.965 217.547C173.732 217.612 173.482 217.625 173.242 217.661C173.049 217.69 172.844 217.688 172.664 217.753C172.303 217.878 171.941 217.889 171.576 217.833C171.204 217.777 170.848 217.806 170.483 217.883C170.174 217.947 169.856 217.979 169.54 217.988C168.953 218.003 168.363 218.001 167.776 217.985C167.484 217.979 167.186 217.959 166.904 217.889C166.399 217.764 165.891 217.721 165.375 217.735C165.106 217.742 164.837 217.724 164.568 217.735C162.879 217.804 161.259 217.417 159.653 216.974C159.233 216.86 158.841 216.636 158.447 216.441C157.987 216.213 157.524 216 157.028 215.845C156.298 215.617 155.655 215.199 155.012 214.798C154.514 214.489 154.047 214.124 153.593 213.75C153.333 213.535 153.128 213.253 152.901 212.998C152.638 212.705 152.385 212.405 152.118 212.118C151.206 211.147 150.409 210.079 149.784 208.906C149.395 208.174 149.01 207.426 148.776 206.614C148.634 206.119 148.445 205.636 148.267 205.15C148.078 204.635 147.978 204.111 148.004 203.558C148.024 203.115 148.009 202.672 148.009 202.226C148.002 202.235 148.004 202.235 148.009 202.235ZM184.27 198.922C184.273 198.627 184.261 198.331 184.275 198.036C184.328 196.845 184.186 195.676 183.863 194.528C183.676 193.865 183.587 193.169 183.343 192.529C182.869 191.287 182.301 190.076 181.48 189.021C180.53 187.799 179.538 186.608 178.559 185.411C178.421 185.24 178.252 185.09 178.077 184.958C175.402 182.957 172.526 181.37 169.264 180.542C168.245 180.282 167.231 180.233 166.205 180.349C165.306 180.452 164.412 180.611 163.52 180.766C162.503 180.94 161.506 181.18 160.568 181.627C159.141 182.306 157.842 183.172 156.714 184.287C156.171 184.822 155.6 185.319 155.003 185.793C154.469 186.219 153.958 186.702 153.553 187.251C152.841 188.218 152.138 189.207 151.822 190.4C151.791 190.519 151.74 190.631 151.693 190.745C151.319 191.654 150.943 192.563 150.572 193.474C150.423 193.841 150.325 194.221 150.334 194.622C150.345 195.099 150.218 195.558 150.042 195.985C149.869 196.411 149.817 196.836 149.804 197.281C149.762 198.593 149.913 199.889 150.122 201.179C150.247 201.938 150.449 202.665 150.919 203.299C151.074 203.511 151.181 203.778 151.246 204.035C151.415 204.711 151.74 205.318 152.036 205.938C152.294 206.477 152.578 206.983 153.068 207.348C153.224 207.462 153.33 207.641 153.473 207.773C154.207 208.458 154.852 209.237 155.66 209.846C156.327 210.348 156.957 210.896 157.62 211.404C158.007 211.702 158.405 211.997 158.828 212.239C160.198 213.023 161.655 213.602 163.206 213.898C164.481 214.14 165.774 214.285 167.073 214.299C167.562 214.303 168.061 214.334 168.539 214.258C170.624 213.927 172.666 213.428 174.586 212.51C175.692 211.982 176.768 211.395 177.93 210.988C178.021 210.957 178.108 210.907 178.194 210.858C179.672 210.025 180.909 208.928 181.85 207.505C182.45 206.598 182.904 205.62 183.329 204.622C183.926 203.222 184.299 201.783 184.27 200.252C184.264 199.809 184.27 199.366 184.27 198.922ZM185.447 202.748C185.409 202.746 185.369 202.746 185.329 202.743C185.287 202.855 185.231 202.963 185.2 203.079C184.709 204.953 183.917 206.69 182.869 208.315C182.221 209.318 181.403 210.166 180.484 210.91C179.854 211.418 179.191 211.908 178.435 212.199C177.333 212.622 176.286 213.15 175.227 213.663C173.267 214.612 171.186 215.147 169.053 215.503C167.958 215.684 166.855 215.646 165.756 215.539C164.416 215.409 163.077 215.293 161.776 214.896C160.172 214.408 158.612 213.797 157.282 212.77C155.904 211.709 154.461 210.719 153.295 209.401C153.23 209.327 153.148 209.271 153.079 209.202C152.59 208.72 152.093 208.243 151.615 207.753C151.479 207.614 151.366 207.444 151.281 207.27C150.839 206.365 150.311 205.499 150.06 204.507C149.995 204.248 149.855 204.008 149.753 203.757C149.586 203.348 149.424 202.938 149.255 202.531C149.221 202.45 149.166 202.376 149.039 202.166C149.039 202.732 149.05 203.144 149.037 203.554C149.021 204.006 149.099 204.436 149.27 204.852C149.677 205.853 149.96 206.898 150.465 207.865C150.945 208.787 151.479 209.663 152.131 210.464C152.645 211.091 153.186 211.695 153.74 212.288C154.158 212.736 154.61 213.155 155.052 213.58C155.706 214.209 156.516 214.565 157.359 214.829C157.878 214.99 158.374 215.181 158.859 215.418C159.233 215.599 159.604 215.816 160 215.917C161.544 216.311 163.097 216.66 164.71 216.575C165.102 216.555 165.495 216.557 165.885 216.573C166.176 216.584 166.474 216.602 166.757 216.669C167.8 216.918 168.862 216.86 169.901 216.768C170.917 216.678 171.918 216.403 172.917 216.168C173.798 215.962 174.664 215.7 175.538 215.467C175.701 215.425 175.914 215.328 176.03 215.393C176.281 215.53 176.459 215.411 176.646 215.31C176.991 215.125 177.327 214.923 177.663 214.722C178.335 214.319 178.993 213.889 179.681 213.515C179.943 213.372 180.19 213.24 180.39 213.014C180.535 212.848 180.717 212.718 180.871 212.557C181.176 212.239 181.498 211.933 181.763 211.581C182.103 211.131 182.386 210.639 182.706 210.175C183.096 209.609 183.501 209.054 183.894 208.492C184.195 208.067 184.411 207.599 184.577 207.106C184.815 206.408 185.065 205.712 185.296 205.011C185.372 204.78 185.434 204.534 185.445 204.292C185.463 203.782 185.447 203.265 185.447 202.748Z" fill="#24252E"/>
<path fill-rule="evenodd" clip-rule="evenodd" d="M174.935 204.422C174.646 204.716 174.341 205.031 174.028 205.338C173.836 205.526 173.652 205.739 173.425 205.871C172.684 206.303 171.936 206.728 171.169 207.109C170.036 207.671 168.826 207.97 167.56 208.011C166.337 208.051 165.113 208.082 163.903 207.812C162.156 207.418 160.646 206.632 159.478 205.231C158.339 203.865 158.347 203.865 157.782 202.17C157.529 201.409 157.42 200.642 157.442 199.845C157.462 199.155 157.489 198.466 157.504 197.774C157.518 197.226 157.642 196.7 157.782 196.176C157.831 195.988 157.887 195.802 157.929 195.656C157.662 195.354 157.409 195.092 157.191 194.806C157.046 194.62 157.077 194.423 157.208 194.262C157.362 194.076 157.569 194.033 157.8 194.148C157.887 194.19 157.976 194.239 158.049 194.302C158.263 194.492 158.492 194.479 158.737 194.385C158.85 194.34 158.973 194.318 159.086 194.273C159.34 194.172 159.569 194.257 159.794 194.36C159.963 194.439 160.047 194.584 160.047 194.774C160.047 194.969 159.954 195.11 159.785 195.184C159.582 195.271 159.369 195.327 159.162 195.406C159.071 195.439 158.986 195.493 158.881 195.549C158.666 196.272 158.503 197.013 158.525 197.787C158.548 198.526 158.559 199.267 158.561 200.006C158.563 200.579 158.652 201.134 158.848 201.671C158.873 201.741 158.899 201.81 158.917 201.882C159.153 202.838 159.667 203.621 160.303 204.364C161.271 205.492 162.47 206.2 163.887 206.542C165.407 206.909 166.946 206.865 168.484 206.654C169.591 206.502 170.599 206.057 171.572 205.522C171.914 205.334 172.252 205.13 172.586 204.926C172.731 204.837 172.875 204.738 172.998 204.622C173.314 204.315 173.627 204.004 173.925 203.679C174.159 203.426 174.337 203.142 174.39 202.779C174.439 202.453 174.584 202.347 174.871 202.332C175.149 202.316 175.325 202.426 175.436 202.705C175.498 202.864 175.534 203.035 175.578 203.189C175.879 203.323 176.175 203.435 176.45 203.587C176.671 203.708 176.666 203.995 176.459 204.138C176.215 204.306 175.959 204.445 175.645 204.429C175.449 204.413 175.254 204.422 174.935 204.422Z" fill="#24252E"/>
<path fill-rule="evenodd" clip-rule="evenodd" d="M174.286 193.113C174.726 193.248 175.169 193.378 175.607 193.516C176.025 193.648 176.441 193.785 176.855 193.935C177.064 194.011 177.171 194.208 177.135 194.398C177.1 194.589 176.971 194.716 176.793 194.739C176.606 194.763 176.381 194.788 176.223 194.712C175.863 194.533 175.474 194.495 175.098 194.394C174.862 194.331 174.628 194.26 174.392 194.192C174.161 194.127 173.938 194.002 173.629 194.078C173.671 194.163 173.691 194.248 173.743 194.304C173.961 194.537 174.208 194.745 174.406 194.996C174.63 195.283 174.819 195.6 175.011 195.912C175.093 196.046 175.082 196.196 174.971 196.321C174.857 196.449 174.702 196.453 174.566 196.402C174.408 196.341 174.245 196.261 174.125 196.149C173.643 195.697 173.169 195.233 172.704 194.761C172.586 194.642 172.488 194.486 172.43 194.327C172.023 193.23 172.223 192.755 173.16 192.256C173.685 191.976 174.263 191.853 174.86 191.855C175.373 191.858 175.887 191.887 176.401 191.911C176.673 191.925 176.933 191.985 177.155 192.162C177.36 192.323 177.431 192.549 177.331 192.742C177.227 192.939 176.986 193.04 176.771 192.903C176.497 192.728 176.214 192.726 175.923 192.746C175.46 192.778 174.997 192.825 174.535 192.876C174.448 192.885 174.366 192.934 174.283 192.963C174.281 193.015 174.283 193.064 174.286 193.113Z" fill="#24252E"/>
<path fill-rule="evenodd" clip-rule="evenodd" d="M162.906 189.979C162.888 189.489 163.026 189.064 163.377 188.712C163.533 188.556 163.662 188.377 163.814 188.218C164.036 187.983 164.281 187.797 164.626 187.772C164.792 187.759 164.953 187.68 165.115 187.633C165.607 187.49 165.989 187.73 166.056 188.245C166.13 188.811 165.985 189.326 165.569 189.724C165.217 190.062 164.844 190.378 164.461 190.678C164.185 190.893 163.865 191.002 163.502 190.926C163.139 190.848 162.964 190.66 162.921 190.275C162.91 190.176 162.91 190.078 162.906 189.979Z" fill="#24252E"/>
<path fill-rule="evenodd" clip-rule="evenodd" d="M164.917 164.975C165.164 164.738 165.344 164.456 165.482 164.14C165.778 163.455 165.571 162.871 165.151 162.32C164.984 162.103 164.764 161.96 164.51 161.868C164.345 161.808 164.185 161.814 164.021 161.888C163.246 162.224 162.732 162.802 162.376 163.751C162.392 163.699 162.35 163.813 162.321 163.93C162.174 164.568 162.394 165.011 162.986 165.289C163.694 165.62 164.359 165.512 164.917 164.975ZM163.549 164.131C163.578 164.16 163.605 164.194 163.638 164.219C163.607 164.194 163.578 164.163 163.549 164.131Z" fill="#3051FD"/>
<path fill-rule="evenodd" clip-rule="evenodd" d="M178.079 182.543C177.761 182.174 177.351 181.831 176.777 181.907C176.706 181.916 176.633 181.914 176.561 181.91C175.87 181.869 175.429 182.223 175.095 182.939C175.064 183.273 175.022 183.723 174.986 184.173C174.982 184.217 175.011 184.264 175.031 184.309C175.227 184.782 175.745 185.019 176.221 184.82C176.461 184.719 176.704 184.587 176.897 184.412C177.151 184.184 177.425 184.038 177.736 183.895C178.408 183.584 178.486 183.018 178.079 182.543Z" fill="#3051FD"/>
<path fill-rule="evenodd" clip-rule="evenodd" d="M166.855 178.113C166.759 178.113 166.661 178.12 166.568 178.135C166.19 178.2 165.811 178.263 165.438 178.341C165.351 178.359 165.246 178.417 165.2 178.491C164.957 178.876 164.643 179.219 164.534 179.682C164.439 180.09 164.554 180.329 164.93 180.488C165.373 180.674 165.825 180.625 166.276 180.54C166.948 180.414 167.398 180.022 167.66 179.32C167.654 179.338 167.669 179.293 167.682 179.246C167.905 178.527 167.609 178.122 166.855 178.113Z" fill="#3051FD"/>
<path fill-rule="evenodd" clip-rule="evenodd" d="M160.632 178.158C160.287 177.99 159.925 177.873 159.529 177.878C159.246 177.882 159.012 177.972 158.828 178.18C158.556 178.482 158.289 178.789 158.002 179.114C158.045 179.431 158.067 179.696 158.12 179.953C158.185 180.278 158.365 180.542 158.683 180.649C159.015 180.761 159.351 180.777 159.578 180.423C159.662 180.291 159.773 180.222 159.927 180.206C160.572 180.139 160.877 179.709 161.039 179.134C161.148 178.735 160.997 178.335 160.632 178.158Z" fill="#3051FD"/>
<path fill-rule="evenodd" clip-rule="evenodd" d="M173.418 177.153C173.316 177.115 173.249 177.086 173.18 177.063C172.161 176.723 171.313 177.444 171.48 178.507C171.509 178.697 171.545 178.888 171.576 179.078C171.656 179.573 171.976 179.835 172.477 179.812C173.16 179.785 173.825 179.268 174.05 178.603C174.297 177.869 173.945 177.327 173.418 177.153Z" fill="#3051FD"/>
<path fill-rule="evenodd" clip-rule="evenodd" d="M165.438 171.568C165.56 171.308 165.629 171.205 165.66 171.091C165.8 170.572 165.576 170.247 165.037 170.193C164.893 170.18 164.748 170.162 164.606 170.166C163.754 170.198 163.03 170.856 162.924 171.693C162.893 171.926 162.955 172.127 163.139 172.277C163.642 172.687 164.492 172.716 165.037 172.349C165.226 172.221 165.355 172.062 165.38 171.823C165.393 171.684 165.442 171.545 165.438 171.568Z" fill="#3051FD"/>
<path fill-rule="evenodd" clip-rule="evenodd" d="M179.126 168.089C178.806 167.731 178.406 167.505 177.918 167.576C177.282 167.67 176.688 168.42 176.673 169.083C176.655 169.797 177.004 170.115 177.7 170.012C177.865 169.987 178.027 169.918 178.19 169.922C178.733 169.942 179.022 169.631 179.224 169.159C179.349 168.799 179.429 168.423 179.126 168.089Z" fill="#3051FD"/>
<path fill-rule="evenodd" clip-rule="evenodd" d="M170.966 167.874C171.921 168.329 172.655 167.838 173.042 167.039C173.058 166.988 173.082 166.921 173.1 166.849C173.296 166.097 172.831 165.544 172.063 165.638C171.856 165.665 171.629 165.732 171.463 165.851C171.173 166.056 170.891 166.294 170.659 166.565C170.252 167.046 170.388 167.599 170.966 167.874Z" fill="#3051FD"/>
<path fill-rule="evenodd" clip-rule="evenodd" d="M181.476 175.543C181.459 175.375 181.434 175.21 181.401 175.044C181.345 174.755 181.16 174.581 180.949 174.511C180.533 174.35 180.177 174.424 179.832 174.516C179.383 174.634 179.089 174.952 178.931 175.38C178.673 176.069 179.109 176.727 179.841 176.748C180.228 176.759 180.604 176.669 180.949 176.483C181.321 176.284 181.521 175.98 181.476 175.543Z" fill="#3051FD"/>
<path fill-rule="evenodd" clip-rule="evenodd" d="M158.138 170.209C157.962 170.247 157.771 170.35 157.646 170.482C157.448 170.695 157.248 170.883 156.983 171.01C156.803 171.098 156.667 171.279 156.703 171.478C156.759 171.803 156.759 172.15 156.99 172.43C157.17 172.647 157.37 172.77 157.666 172.761C158.296 172.741 158.73 172.418 159.039 171.61C159.055 171.554 159.124 171.371 159.15 171.183C159.23 170.569 158.732 170.081 158.138 170.209Z" fill="#3051FD"/>
<path fill-rule="evenodd" clip-rule="evenodd" d="M183.274 164.716C183.416 164.707 183.563 164.72 183.703 164.698C183.819 164.68 183.952 164.655 184.037 164.584C184.377 164.301 184.657 163.975 184.691 163.502C184.706 163.285 184.724 163.07 184.74 162.853C184.753 162.647 184.7 162.461 184.502 162.363C184.257 162.24 183.979 162.132 183.77 162.372C183.61 162.558 183.432 162.609 183.218 162.654C182.8 162.743 182.464 162.958 182.357 163.205C182.003 164.091 182.495 164.76 183.274 164.716Z" fill="#3051FD"/>
<path fill-rule="evenodd" clip-rule="evenodd" d="M169.573 160.089C169.013 159.86 168.254 160.089 167.898 160.601C167.847 160.675 167.823 160.778 167.814 160.872C167.798 161.015 167.807 161.161 167.805 161.306C167.796 161.685 167.985 161.953 168.288 162.143C168.922 162.544 169.743 162.412 170.081 161.423C170.092 161.364 170.152 161.176 170.163 160.986C170.181 160.534 169.992 160.259 169.573 160.089Z" fill="#3051FD"/>
<path fill-rule="evenodd" clip-rule="evenodd" d="M170.466 185.285C170.234 184.952 169.892 184.813 169.527 184.909C169.189 185.001 168.853 185.171 168.568 185.377C168.099 185.715 168.061 186.293 168.455 186.689C168.584 186.819 168.773 186.89 168.935 186.987C169.509 187.291 170.294 186.944 170.593 186.366C170.793 185.981 170.699 185.623 170.466 185.285Z" fill="#3051FD"/>
<path fill-rule="evenodd" clip-rule="evenodd" d="M170.96 171.532C170.459 171.333 169.967 171.366 169.482 171.556C169.187 171.673 168.906 172.082 168.935 172.349C168.977 172.732 169.14 173.043 169.496 173.166C170.079 173.385 170.575 173.199 171.058 172.971C171.345 172.837 171.5 172.593 171.46 172.266C171.42 171.941 171.302 171.668 170.96 171.532Z" fill="#3051FD"/>
<path d="M151.423 241.889C151.423 242.059 151.407 242.207 151.375 242.333H150.9C150.931 242.452 150.947 242.6 150.947 242.778C150.947 242.948 150.931 243.096 150.9 243.222H148.285C148.254 243.096 148.238 242.948 148.238 242.778C148.238 242.6 148.254 242.452 148.285 242.333H150.424C150.393 242.207 150.377 242.059 150.377 241.889C150.377 241.711 150.393 241.563 150.424 241.444H148.523C148.491 241.319 148.475 241.17 148.475 241C148.475 240.822 148.491 240.674 148.523 240.556H148.048C148.016 240.43 148 240.281 148 240.111C148 239.933 148.016 239.785 148.048 239.667H148.523C148.491 239.541 148.475 239.393 148.475 239.222C148.475 239.044 148.491 238.896 148.523 238.778H151.137C151.169 238.896 151.185 239.044 151.185 239.222C151.185 239.393 151.169 239.541 151.137 239.667H148.998C149.03 239.785 149.046 239.933 149.046 240.111C149.046 240.281 149.03 240.43 148.998 240.556H150.9C150.931 240.674 150.947 240.822 150.947 241C150.947 241.17 150.931 241.319 150.9 241.444H151.375C151.407 241.563 151.423 241.711 151.423 241.889Z" fill="#24252E"/>
<path d="M153.923 241.889C153.923 242.059 153.907 242.207 153.875 242.333H155.064C155.095 242.452 155.111 242.6 155.111 242.778C155.111 242.948 155.095 243.096 155.064 243.222H153.162C153.131 243.096 153.115 242.948 153.115 242.778C153.115 242.6 153.131 242.452 153.162 242.333H152.568C152.536 242.207 152.52 242.059 152.52 241.889C152.52 241.711 152.536 241.563 152.568 241.444C152.536 241.319 152.52 241.17 152.52 241C152.52 240.822 152.536 240.674 152.568 240.556C152.536 240.43 152.52 240.281 152.52 240.111C152.52 239.933 152.536 239.785 152.568 239.667C152.536 239.541 152.52 239.393 152.52 239.222C152.52 239.044 152.536 238.896 152.568 238.778H153.519C153.55 238.896 153.566 239.044 153.566 239.222C153.566 239.393 153.55 239.541 153.519 239.667C153.55 239.785 153.566 239.933 153.566 240.111C153.566 240.281 153.55 240.43 153.519 240.556C153.55 240.674 153.566 240.822 153.566 241C153.566 241.17 153.55 241.319 153.519 241.444H153.875C153.907 241.563 153.923 241.711 153.923 241.889ZM156.371 239.667C156.403 239.785 156.418 239.933 156.418 240.111C156.418 240.281 156.403 240.43 156.371 240.556C156.403 240.674 156.418 240.822 156.418 241C156.418 241.17 156.403 241.319 156.371 241.444C156.403 241.563 156.418 241.711 156.418 241.889C156.418 242.059 156.403 242.207 156.371 242.333C156.403 242.452 156.418 242.6 156.418 242.778C156.418 242.948 156.403 243.096 156.371 243.222H155.42C155.388 243.096 155.373 242.948 155.373 242.778C155.373 242.6 155.388 242.452 155.42 242.333H155.064C155.032 242.207 155.016 242.059 155.016 241.889C155.016 241.711 155.032 241.563 155.064 241.444H155.42C155.388 241.319 155.373 241.17 155.373 241C155.373 240.822 155.388 240.674 155.42 240.556C155.388 240.43 155.373 240.281 155.373 240.111C155.373 239.933 155.388 239.785 155.42 239.667C155.388 239.541 155.373 239.393 155.373 239.222C155.373 239.044 155.388 238.896 155.42 238.778H156.371C156.403 238.896 156.418 239.044 156.418 239.222C156.418 239.393 156.403 239.541 156.371 239.667Z" fill="#24252E"/>
<path d="M161.129 241.444C161.161 241.563 161.177 241.711 161.177 241.889C161.177 242.059 161.161 242.207 161.129 242.333H160.654C160.685 242.452 160.701 242.6 160.701 242.778C160.701 242.948 160.685 243.096 160.654 243.222H158.277C158.245 243.096 158.229 242.948 158.229 242.778C158.229 242.6 158.245 242.452 158.277 242.333H157.802C157.77 242.207 157.754 242.059 157.754 241.889C157.754 241.711 157.77 241.563 157.802 241.444H157.326C157.294 241.319 157.279 241.17 157.279 241C157.279 240.822 157.294 240.674 157.326 240.556H157.802C157.77 240.43 157.754 240.281 157.754 240.111C157.754 239.933 157.77 239.785 157.802 239.667H158.277C158.245 239.541 158.229 239.393 158.229 239.222C158.229 239.044 158.245 238.896 158.277 238.778H160.654C160.685 238.896 160.701 239.044 160.701 239.222C160.701 239.393 160.685 239.541 160.654 239.667H161.129C161.161 239.785 161.177 239.933 161.177 240.111C161.177 240.281 161.161 240.43 161.129 240.556H160.178C160.147 240.43 160.131 240.281 160.131 240.111C160.131 239.933 160.147 239.785 160.178 239.667H158.752C158.784 239.785 158.8 239.933 158.8 240.111C158.8 240.281 158.784 240.43 158.752 240.556H158.277C158.309 240.674 158.324 240.822 158.324 241C158.324 241.17 158.309 241.319 158.277 241.444H158.752C158.784 241.563 158.8 241.711 158.8 241.889C158.8 242.059 158.784 242.207 158.752 242.333H160.178C160.147 242.207 160.131 242.059 160.131 241.889C160.131 241.711 160.147 241.563 160.178 241.444H161.129Z" fill="#24252E"/>
<path d="M165.887 241.444C165.919 241.563 165.935 241.711 165.935 241.889C165.935 242.059 165.919 242.207 165.887 242.333H165.412C165.444 242.452 165.459 242.6 165.459 242.778C165.459 242.948 165.444 243.096 165.412 243.222H163.035C163.003 243.096 162.988 242.948 162.988 242.778C162.988 242.6 163.003 242.452 163.035 242.333H162.56C162.528 242.207 162.512 242.059 162.512 241.889C162.512 241.711 162.528 241.563 162.56 241.444H162.084C162.053 241.319 162.037 241.17 162.037 241C162.037 240.822 162.053 240.674 162.084 240.556H162.56C162.528 240.43 162.512 240.281 162.512 240.111C162.512 239.933 162.528 239.785 162.56 239.667H163.035C163.003 239.541 162.988 239.393 162.988 239.222C162.988 239.044 163.003 238.896 163.035 238.778H165.412C165.444 238.896 165.459 239.044 165.459 239.222C165.459 239.393 165.444 239.541 165.412 239.667H165.887C165.919 239.785 165.935 239.933 165.935 240.111C165.935 240.281 165.919 240.43 165.887 240.556H164.936C164.905 240.43 164.889 240.281 164.889 240.111C164.889 239.933 164.905 239.785 164.936 239.667H163.51C163.542 239.785 163.558 239.933 163.558 240.111C163.558 240.281 163.542 240.43 163.51 240.556H163.035C163.067 240.674 163.083 240.822 163.083 241C163.083 241.17 163.067 241.319 163.035 241.444H163.51C163.542 241.563 163.558 241.711 163.558 241.889C163.558 242.059 163.542 242.207 163.51 242.333H164.936C164.905 242.207 164.889 242.059 164.889 241.889C164.889 241.711 164.905 241.563 164.936 241.444H165.887Z" fill="#24252E"/>
<path d="M170.693 240.111C170.693 240.281 170.677 240.43 170.645 240.556C170.677 240.674 170.693 240.822 170.693 241C170.693 241.17 170.677 241.319 170.645 241.444H168.15C168.181 241.563 168.197 241.711 168.197 241.889C168.197 242.059 168.181 242.207 168.15 242.333H170.17C170.202 242.452 170.218 242.6 170.218 242.778C170.218 242.948 170.202 243.096 170.17 243.222H167.793C167.762 243.096 167.746 242.948 167.746 242.778C167.746 242.6 167.762 242.452 167.793 242.333H167.199C167.167 242.207 167.151 242.059 167.151 241.889C167.151 241.711 167.167 241.563 167.199 241.444H166.843C166.811 241.319 166.795 241.17 166.795 241C166.795 240.822 166.811 240.674 166.843 240.556H167.199C167.167 240.43 167.151 240.281 167.151 240.111C167.151 239.933 167.167 239.785 167.199 239.667H167.793C167.762 239.541 167.746 239.393 167.746 239.222C167.746 239.044 167.762 238.896 167.793 238.778H170.17C170.202 238.896 170.218 239.044 170.218 239.222C170.218 239.393 170.202 239.541 170.17 239.667H170.645C170.677 239.785 170.693 239.933 170.693 240.111ZM169.695 240.556C169.663 240.43 169.647 240.281 169.647 240.111C169.647 239.933 169.663 239.785 169.695 239.667H168.15C168.181 239.785 168.197 239.933 168.197 240.111C168.197 240.281 168.181 240.43 168.15 240.556H169.695Z" fill="#24252E"/>
<path d="M175.213 241.889C175.213 242.059 175.198 242.207 175.166 242.333H174.69C174.722 242.452 174.738 242.6 174.738 242.778C174.738 242.948 174.722 243.096 174.69 243.222H172.076C172.044 243.096 172.028 242.948 172.028 242.778C172.028 242.6 172.044 242.452 172.076 242.333H174.215C174.183 242.207 174.168 242.059 174.168 241.889C174.168 241.711 174.183 241.563 174.215 241.444H172.314C172.282 241.319 172.266 241.17 172.266 241C172.266 240.822 172.282 240.674 172.314 240.556H171.838C171.807 240.43 171.791 240.281 171.791 240.111C171.791 239.933 171.807 239.785 171.838 239.667H172.314C172.282 239.541 172.266 239.393 172.266 239.222C172.266 239.044 172.282 238.896 172.314 238.778H174.928C174.96 238.896 174.976 239.044 174.976 239.222C174.976 239.393 174.96 239.541 174.928 239.667H172.789C172.821 239.785 172.837 239.933 172.837 240.111C172.837 240.281 172.821 240.43 172.789 240.556H174.69C174.722 240.674 174.738 240.822 174.738 241C174.738 241.17 174.722 241.319 174.69 241.444H175.166C175.198 241.563 175.213 241.711 175.213 241.889Z" fill="#24252E"/>
<path d="M179.972 241.889C179.972 242.059 179.956 242.207 179.924 242.333H179.449C179.48 242.452 179.496 242.6 179.496 242.778C179.496 242.948 179.48 243.096 179.449 243.222H176.834C176.802 243.096 176.787 242.948 176.787 242.778C176.787 242.6 176.802 242.452 176.834 242.333H178.973C178.942 242.207 178.926 242.059 178.926 241.889C178.926 241.711 178.942 241.563 178.973 241.444H177.072C177.04 241.319 177.024 241.17 177.024 241C177.024 240.822 177.04 240.674 177.072 240.556H176.597C176.565 240.43 176.549 240.281 176.549 240.111C176.549 239.933 176.565 239.785 176.597 239.667H177.072C177.04 239.541 177.024 239.393 177.024 239.222C177.024 239.044 177.04 238.896 177.072 238.778H179.686C179.718 238.896 179.734 239.044 179.734 239.222C179.734 239.393 179.718 239.541 179.686 239.667H177.547C177.579 239.785 177.595 239.933 177.595 240.111C177.595 240.281 177.579 240.43 177.547 240.556H179.449C179.48 240.674 179.496 240.822 179.496 241C179.496 241.17 179.48 241.319 179.449 241.444H179.924C179.956 241.563 179.972 241.711 179.972 241.889Z" fill="#24252E"/>
<path d="M184.444 238.778C184.476 238.896 184.492 239.044 184.492 239.222C184.492 239.393 184.476 239.541 184.444 239.667H183.018C183.05 239.785 183.066 239.933 183.066 240.111C183.066 240.281 183.05 240.43 183.018 240.556C183.05 240.674 183.066 240.822 183.066 241C183.066 241.17 183.05 241.319 183.018 241.444C183.05 241.563 183.066 241.711 183.066 241.889C183.066 242.059 183.05 242.207 183.018 242.333H183.969C184.001 242.452 184.017 242.6 184.017 242.778C184.017 242.948 184.001 243.096 183.969 243.222H181.592C181.561 243.096 181.545 242.948 181.545 242.778C181.545 242.6 181.561 242.452 181.592 242.333H182.068C182.036 242.207 182.02 242.059 182.02 241.889C182.02 241.711 182.036 241.563 182.068 241.444C182.036 241.319 182.02 241.17 182.02 241C182.02 240.822 182.036 240.674 182.068 240.556C182.036 240.43 182.02 240.281 182.02 240.111C182.02 239.933 182.036 239.785 182.068 239.667H181.592C181.561 239.541 181.545 239.393 181.545 239.222C181.545 239.044 181.561 238.896 181.592 238.778H182.068C182.036 238.652 182.02 238.504 182.02 238.333C182.02 238.156 182.036 238.007 182.068 237.889H182.543C182.511 237.763 182.496 237.615 182.496 237.444C182.496 237.267 182.511 237.119 182.543 237H184.444C184.476 237.119 184.492 237.267 184.492 237.444C184.492 237.615 184.476 237.763 184.444 237.889H183.018C183.05 238.007 183.066 238.156 183.066 238.333C183.066 238.504 183.05 238.652 183.018 238.778H184.444Z" fill="#24252E"/>
<path d="M187.23 241.889C187.23 242.059 187.214 242.207 187.182 242.333H188.371C188.402 242.452 188.418 242.6 188.418 242.778C188.418 242.948 188.402 243.096 188.371 243.222H186.469C186.438 243.096 186.422 242.948 186.422 242.778C186.422 242.6 186.438 242.452 186.469 242.333H185.875C185.843 242.207 185.828 242.059 185.828 241.889C185.828 241.711 185.843 241.563 185.875 241.444C185.843 241.319 185.828 241.17 185.828 241C185.828 240.822 185.843 240.674 185.875 240.556C185.843 240.43 185.828 240.281 185.828 240.111C185.828 239.933 185.843 239.785 185.875 239.667C185.843 239.541 185.828 239.393 185.828 239.222C185.828 239.044 185.843 238.896 185.875 238.778H186.826C186.858 238.896 186.873 239.044 186.873 239.222C186.873 239.393 186.858 239.541 186.826 239.667C186.858 239.785 186.873 239.933 186.873 240.111C186.873 240.281 186.858 240.43 186.826 240.556C186.858 240.674 186.873 240.822 186.873 241C186.873 241.17 186.858 241.319 186.826 241.444H187.182C187.214 241.563 187.23 241.711 187.23 241.889ZM189.678 239.667C189.71 239.785 189.726 239.933 189.726 240.111C189.726 240.281 189.71 240.43 189.678 240.556C189.71 240.674 189.726 240.822 189.726 241C189.726 241.17 189.71 241.319 189.678 241.444C189.71 241.563 189.726 241.711 189.726 241.889C189.726 242.059 189.71 242.207 189.678 242.333C189.71 242.452 189.726 242.6 189.726 242.778C189.726 242.948 189.71 243.096 189.678 243.222H188.727C188.696 243.096 188.68 242.948 188.68 242.778C188.68 242.6 188.696 242.452 188.727 242.333H188.371C188.339 242.207 188.323 242.059 188.323 241.889C188.323 241.711 188.339 241.563 188.371 241.444H188.727C188.696 241.319 188.68 241.17 188.68 241C188.68 240.822 188.696 240.674 188.727 240.556C188.696 240.43 188.68 240.281 188.68 240.111C188.68 239.933 188.696 239.785 188.727 239.667C188.696 239.541 188.68 239.393 188.68 239.222C188.68 239.044 188.696 238.896 188.727 238.778H189.678C189.71 238.896 189.726 239.044 189.726 239.222C189.726 239.393 189.71 239.541 189.678 239.667Z" fill="#24252E"/>
<path d="M193.961 242.333C193.992 242.452 194.008 242.6 194.008 242.778C194.008 242.948 193.992 243.096 193.961 243.222H191.109C191.077 243.096 191.061 242.948 191.061 242.778C191.061 242.6 191.077 242.452 191.109 242.333H192.059C192.028 242.207 192.012 242.059 192.012 241.889C192.012 241.711 192.028 241.563 192.059 241.444C192.028 241.319 192.012 241.17 192.012 241C192.012 240.822 192.028 240.674 192.059 240.556C192.028 240.43 192.012 240.281 192.012 240.111C192.012 239.933 192.028 239.785 192.059 239.667C192.028 239.541 192.012 239.393 192.012 239.222C192.012 239.044 192.028 238.896 192.059 238.778C192.028 238.652 192.012 238.504 192.012 238.333C192.012 238.156 192.028 238.007 192.059 237.889H191.346C191.315 237.763 191.299 237.615 191.299 237.444C191.299 237.267 191.315 237.119 191.346 237H193.01C193.042 237.119 193.058 237.267 193.058 237.444C193.058 237.615 193.042 237.763 193.01 237.889C193.042 238.007 193.058 238.156 193.058 238.333C193.058 238.504 193.042 238.652 193.01 238.778C193.042 238.896 193.058 239.044 193.058 239.222C193.058 239.393 193.042 239.541 193.01 239.667C193.042 239.785 193.058 239.933 193.058 240.111C193.058 240.281 193.042 240.43 193.01 240.556C193.042 240.674 193.058 240.822 193.058 241C193.058 241.17 193.042 241.319 193.01 241.444C193.042 241.563 193.058 241.711 193.058 241.889C193.058 242.059 193.042 242.207 193.01 242.333H193.961Z" fill="#24252E"/>
<path d="M198.719 242.333C198.751 242.452 198.766 242.6 198.766 242.778C198.766 242.948 198.751 243.096 198.719 243.222H195.867C195.835 243.096 195.819 242.948 195.819 242.778C195.819 242.6 195.835 242.452 195.867 242.333H196.818C196.786 242.207 196.77 242.059 196.77 241.889C196.77 241.711 196.786 241.563 196.818 241.444C196.786 241.319 196.77 241.17 196.77 241C196.77 240.822 196.786 240.674 196.818 240.556C196.786 240.43 196.77 240.281 196.77 240.111C196.77 239.933 196.786 239.785 196.818 239.667C196.786 239.541 196.77 239.393 196.77 239.222C196.77 239.044 196.786 238.896 196.818 238.778C196.786 238.652 196.77 238.504 196.77 238.333C196.77 238.156 196.786 238.007 196.818 237.889H196.105C196.073 237.763 196.057 237.615 196.057 237.444C196.057 237.267 196.073 237.119 196.105 237H197.768C197.8 237.119 197.816 237.267 197.816 237.444C197.816 237.615 197.8 237.763 197.768 237.889C197.8 238.007 197.816 238.156 197.816 238.333C197.816 238.504 197.8 238.652 197.768 238.778C197.8 238.896 197.816 239.044 197.816 239.222C197.816 239.393 197.8 239.541 197.768 239.667C197.8 239.785 197.816 239.933 197.816 240.111C197.816 240.281 197.8 240.43 197.768 240.556C197.8 240.674 197.816 240.822 197.816 241C197.816 241.17 197.8 241.319 197.768 241.444C197.8 241.563 197.816 241.711 197.816 241.889C197.816 242.059 197.8 242.207 197.768 242.333H198.719Z" fill="#24252E"/>
<path d="M204 239.222C204 239.393 203.984 239.541 203.952 239.667H203.596C203.628 239.785 203.643 239.933 203.643 240.111C203.643 240.281 203.628 240.43 203.596 240.556H203.239C203.271 240.674 203.287 240.822 203.287 241C203.287 241.17 203.271 241.319 203.239 241.444H203.002C203.033 241.563 203.049 241.711 203.049 241.889C203.049 242.059 203.033 242.207 203.002 242.333H202.645C202.677 242.452 202.693 242.6 202.693 242.778C202.693 242.948 202.677 243.096 202.645 243.222H202.408C202.439 243.341 202.455 243.489 202.455 243.667C202.455 243.837 202.439 243.985 202.408 244.111H201.932C201.964 244.23 201.98 244.378 201.98 244.556C201.98 244.726 201.964 244.874 201.932 245H200.506C200.474 244.874 200.459 244.726 200.459 244.556C200.459 244.378 200.474 244.23 200.506 244.111H201.457C201.425 243.985 201.409 243.837 201.409 243.667C201.409 243.489 201.425 243.341 201.457 243.222C201.425 243.096 201.409 242.948 201.409 242.778C201.409 242.6 201.425 242.452 201.457 242.333H200.982C200.95 242.207 200.934 242.059 200.934 241.889C200.934 241.711 200.95 241.563 200.982 241.444H200.744C200.712 241.319 200.696 241.17 200.696 241C200.696 240.822 200.712 240.674 200.744 240.556H200.387C200.356 240.43 200.34 240.281 200.34 240.111C200.34 239.933 200.356 239.785 200.387 239.667H200.031C199.999 239.541 199.983 239.393 199.983 239.222C199.983 239.044 199.999 238.896 200.031 238.778H200.982C201.013 238.896 201.029 239.044 201.029 239.222C201.029 239.393 201.013 239.541 200.982 239.667H201.338C201.37 239.785 201.386 239.933 201.386 240.111C201.386 240.281 201.37 240.43 201.338 240.556H201.695C201.726 240.674 201.742 240.822 201.742 241C201.742 241.17 201.726 241.319 201.695 241.444C201.726 241.563 201.742 241.711 201.742 241.889C201.742 242.059 201.726 242.207 201.695 242.333H202.051C202.019 242.207 202.004 242.059 202.004 241.889C202.004 241.711 202.019 241.563 202.051 241.444H202.289C202.257 241.319 202.241 241.17 202.241 241C202.241 240.822 202.257 240.674 202.289 240.556H202.645C202.614 240.43 202.598 240.281 202.598 240.111C202.598 239.933 202.614 239.785 202.645 239.667H203.002C202.97 239.541 202.954 239.393 202.954 239.222C202.954 239.044 202.97 238.896 203.002 238.778H203.952C203.984 238.896 204 239.044 204 239.222Z" fill="#24252E"/>
<path d="M257.6 166.871C252.41 162.778 240.668 163.002 233.617 163.002C226.567 163.002 214.832 162.778 209.642 166.871C204.452 170.971 204 211.245 204 229.908C204 248.571 206.342 299.084 212.053 302.273C217.764 305.454 227.141 305.23 233.617 305.23C240.093 305.23 249.471 305.454 255.181 302.273C260.892 299.084 263.235 248.571 263.235 229.908C263.235 211.245 262.783 170.971 257.6 166.871Z" fill="#3051FD" stroke="#24252E" stroke-width="1.5" stroke-miterlimit="10"/>
<path d="M235.057 178.46C235.057 172.43 234.413 167.535 233.617 167.535C232.821 167.535 232.178 172.422 232.178 178.46C232.178 184.499 232.821 189.386 233.617 189.386C234.413 189.386 235.057 184.499 235.057 178.46Z" fill="#BEC8FE" stroke="#24252E" stroke-width="1.5" stroke-miterlimit="10"/>
<path d="M239.963 262.052C239.963 260.199 237.146 258.925 234.222 258.925C231.298 258.925 228.48 260.199 228.48 262.052C228.48 263.905 231.298 265.635 234.222 265.635C237.146 265.635 239.963 263.905 239.963 262.052Z" fill="white" stroke="#24252E" stroke-width="1.5" stroke-miterlimit="10"/>
<path d="M239.963 272.213C239.963 270.36 237.146 269.086 234.222 269.086C231.298 269.086 228.48 270.36 228.48 272.213C228.48 274.067 231.298 275.796 234.222 275.796C237.146 275.804 239.963 274.067 239.963 272.213Z" fill="white" stroke="#24252E" stroke-width="1.5" stroke-miterlimit="10"/>
<path d="M239.963 282.383C239.963 280.529 237.146 279.255 234.222 279.255C231.298 279.255 228.48 280.529 228.48 282.383C228.48 284.236 231.298 285.965 234.222 285.965C237.146 285.965 239.963 284.236 239.963 282.383Z" fill="white" stroke="#24252E" stroke-width="1.5" stroke-miterlimit="10"/>
<path d="M239.963 292.544C239.963 290.691 237.146 289.417 234.222 289.417C231.298 289.417 228.48 290.691 228.48 292.544C228.48 294.397 231.298 296.127 234.222 296.127C237.146 296.134 239.963 294.397 239.963 292.544Z" fill="white" stroke="#24252E" stroke-width="1.5" stroke-miterlimit="10"/>
<path d="M214.173 256.454C217.258 256.415 222.448 259.489 222.448 261.458C222.448 263.434 220.496 263.658 218.766 263.658C217.036 263.658 211.249 262.901 211.249 258.917C211.234 256.91 213.216 256.47 214.173 256.454Z" fill="white" stroke="#24252E" stroke-width="1.5" stroke-miterlimit="10"/>
<path d="M214.854 266.507C217.939 266.469 223.129 269.542 223.129 271.511C223.129 273.48 221.177 273.711 219.447 273.711C217.717 273.711 211.93 272.955 211.93 268.97C211.923 266.963 213.898 266.523 214.854 266.507Z" fill="white" stroke="#24252E" stroke-width="1.5" stroke-miterlimit="10"/>
<path d="M215.536 276.561C218.621 276.522 223.811 279.595 223.811 281.572C223.811 283.541 221.859 283.772 220.129 283.772C218.399 283.772 212.612 283.016 212.612 279.031C212.604 277.016 214.587 276.568 215.536 276.561Z" fill="white" stroke="#24252E" stroke-width="1.5" stroke-miterlimit="10"/>
<path d="M216.225 286.614C219.31 286.575 224.5 289.648 224.5 291.617C224.5 293.586 222.548 293.818 220.818 293.818C219.088 293.818 213.301 293.061 213.301 289.077C213.293 287.062 215.268 286.621 216.225 286.614Z" fill="white" stroke="#24252E" stroke-width="1.5" stroke-miterlimit="10"/>
<path d="M254.278 256.454C251.193 256.415 246.003 259.489 246.003 261.458C246.003 263.434 247.955 263.658 249.685 263.658C251.415 263.658 257.202 262.901 257.202 258.917C257.21 256.91 255.227 256.47 254.278 256.454Z" fill="white" stroke="#24252E" stroke-width="1.5" stroke-miterlimit="10"/>
<path d="M253.589 266.507C250.504 266.469 245.314 269.542 245.314 271.511C245.314 273.48 247.266 273.711 248.996 273.711C250.726 273.711 256.513 272.955 256.513 268.97C256.521 266.963 254.546 266.523 253.589 266.507Z" fill="white" stroke="#24252E" stroke-width="1.5" stroke-miterlimit="10"/>
<path d="M252.908 276.561C249.823 276.522 244.633 279.595 244.633 281.572C244.633 283.541 246.585 283.772 248.315 283.772C250.045 283.772 255.832 283.016 255.832 279.031C255.84 277.016 253.865 276.568 252.908 276.561Z" fill="white" stroke="#24252E" stroke-width="1.5" stroke-miterlimit="10"/>
<path d="M252.226 286.614C249.141 286.575 243.951 289.648 243.951 291.617C243.951 293.586 245.903 293.818 247.633 293.818C249.363 293.818 255.158 293.061 255.158 289.077C255.158 287.062 253.175 286.621 252.226 286.614Z" fill="white" stroke="#24252E" stroke-width="1.5" stroke-miterlimit="10"/>
<path d="M254.01 222.858C253.918 227.445 250.114 231.197 245.567 231.197H221.66C217.113 231.197 213.316 227.445 213.217 222.858L212.887 206.836C212.796 202.25 216.432 198.497 220.979 198.497H246.24C250.787 198.497 254.431 202.25 254.332 206.836L254.01 222.858Z" fill="#FDB4BD" stroke="#24252E" stroke-width="1.5" stroke-miterlimit="10"/>
<path d="M256.345 168.515C251.277 164.446 244.985 164.446 233.617 164.446C222.25 164.446 215.957 164.446 210.897 168.515C205.83 172.584 204.291 228.147 210.124 241.235C215.957 254.331 230.303 256.454 233.617 256.454C236.932 256.454 251.277 254.331 257.111 241.235C262.951 228.147 261.413 172.584 256.345 168.515ZM253.842 231.653C248.82 242.88 236.465 244.702 233.617 244.702C230.77 244.702 218.422 242.88 213.393 231.653C208.371 220.426 209.695 172.793 214.059 169.303C218.422 165.813 223.834 165.813 233.617 165.813C243.4 165.813 248.82 165.813 253.176 169.303C257.539 172.793 258.864 220.426 253.842 231.653Z" fill="white" stroke="#24252E" stroke-width="1.5" stroke-miterlimit="10"/>
<path d="M1 1V0H0V1H1ZM393 1H394V0H393V1ZM393 363V364H394V363H393ZM1 363H0V364H1V363ZM1 2H393V0H1V2ZM392 1V363H394V1H392ZM393 362H1V364H393V362ZM2 363V1H0V363H2Z" fill="white"/>
</g>
<defs>
<filter id="filter0_d_80_6389" x="0" y="0" width="402" height="372" filterUnits="userSpaceOnUse" color-interpolation-filters="sRGB">
<feFlood flood-opacity="0" result="BackgroundImageFix"/>
<feColorMatrix in="SourceAlpha" type="matrix" values="0 0 0 0 0 0 0 0 0 0 0 0 0 0 0 0 0 0 127 0" result="hardAlpha"/>
<feOffset dx="8" dy="8"/>
<feColorMatrix type="matrix" values="0 0 0 0 0.466243 0 0 0 0 0.55052 0 0 0 0 0.993757 0 0 0 1 0"/>
<feBlend mode="normal" in2="BackgroundImageFix" result="effect1_dropShadow_80_6389"/>
<feBlend mode="normal" in="SourceGraphic" in2="effect1_dropShadow_80_6389" result="shape"/>
</filter>
</defs>
</svg>
