<svg width="402" height="372" viewBox="0 0 402 372" fill="none" xmlns="http://www.w3.org/2000/svg">
<g filter="url(#filter0_d_80_6391)">
<path d="M1 1H393V363H1V1Z" fill="white"/>
<path d="M31 86.24C29.1333 86.24 27.7533 85.6067 26.86 84.34C25.98 83.0733 25.54 81.3 25.54 79.02C25.54 76.74 25.98 74.9667 26.86 73.7C27.7533 72.4333 29.1333 71.8 31 71.8C32.8667 71.8 34.24 72.4333 35.12 73.7C36.0133 74.9667 36.46 76.74 36.46 79.02C36.46 81.3 36.0133 83.0733 35.12 84.34C34.24 85.6067 32.8667 86.24 31 86.24ZM31 83.88C31.8933 83.88 32.5133 83.5667 32.86 82.94C33.22 82.3133 33.4 81.44 33.4 80.32V77.72C33.4 76.6 33.22 75.7267 32.86 75.1C32.5133 74.4733 31.8933 74.16 31 74.16C30.1067 74.16 29.48 74.4733 29.12 75.1C28.7733 75.7267 28.6 76.6 28.6 77.72V80.32C28.6 81.44 28.7733 82.3133 29.12 82.94C29.48 83.5667 30.1067 83.88 31 83.88ZM31 80.2C30.5333 80.2 30.2067 80.1067 30.02 79.92C29.8467 79.7333 29.76 79.5067 29.76 79.24V78.8C29.76 78.5333 29.8467 78.3067 30.02 78.12C30.2067 77.9333 30.5333 77.84 31 77.84C31.4667 77.84 31.7867 77.9333 31.96 78.12C32.1467 78.3067 32.24 78.5333 32.24 78.8V79.24C32.24 79.5067 32.1467 79.7333 31.96 79.92C31.7867 80.1067 31.4667 80.2 31 80.2ZM42.4522 77.56C43.2255 77.56 43.7855 77.4133 44.1322 77.12C44.4922 76.8267 44.6722 76.4667 44.6722 76.04V75.9C44.6722 75.3933 44.4989 74.9933 44.1522 74.7C43.8189 74.3933 43.3389 74.24 42.7122 74.24C42.1389 74.24 41.5989 74.3867 41.0922 74.68C40.5989 74.96 40.1789 75.3667 39.8322 75.9L37.9322 74.14C38.1989 73.7933 38.4922 73.48 38.8122 73.2C39.1322 72.9067 39.4855 72.66 39.8722 72.46C40.2589 72.2467 40.6922 72.0867 41.1722 71.98C41.6655 71.86 42.2189 71.8 42.8322 71.8C43.5922 71.8 44.2789 71.8867 44.8922 72.06C45.5055 72.2333 46.0255 72.4867 46.4522 72.82C46.8922 73.14 47.2322 73.5267 47.4722 73.98C47.7122 74.4333 47.8322 74.94 47.8322 75.5C47.8322 75.94 47.7589 76.34 47.6122 76.7C47.4655 77.06 47.2655 77.3733 47.0122 77.64C46.7722 77.9067 46.4855 78.1267 46.1522 78.3C45.8322 78.46 45.4855 78.5733 45.1122 78.64V78.76C45.9655 78.9067 46.6722 79.2667 47.2322 79.84C47.8055 80.4 48.0922 81.16 48.0922 82.12C48.0922 82.7467 47.9589 83.3133 47.6922 83.82C47.4389 84.3267 47.0722 84.76 46.5922 85.12C46.1255 85.48 45.5522 85.76 44.8722 85.96C44.2055 86.1467 43.4589 86.24 42.6322 86.24C41.9255 86.24 41.2989 86.1667 40.7522 86.02C40.2189 85.8733 39.7455 85.68 39.3322 85.44C38.9189 85.1867 38.5589 84.9 38.2522 84.58C37.9589 84.2467 37.6989 83.9067 37.4722 83.56L39.6922 81.84C39.9989 82.4133 40.3789 82.8867 40.8322 83.26C41.2989 83.62 41.9189 83.8 42.6922 83.8C43.4122 83.8 43.9655 83.6333 44.3522 83.3C44.7389 82.9667 44.9322 82.5067 44.9322 81.92V81.78C44.9322 81.2067 44.7122 80.78 44.2722 80.5C43.8322 80.2067 43.2189 80.06 42.4322 80.06H41.1322V77.56H42.4522ZM54.9844 86.24C54.2377 86.24 53.6977 86.08 53.3644 85.76C53.0444 85.4267 52.8844 85.0333 52.8844 84.58V83.88C52.8844 83.4267 53.0444 83.04 53.3644 82.72C53.6977 82.3867 54.2377 82.22 54.9844 82.22C55.731 82.22 56.2644 82.3867 56.5844 82.72C56.9177 83.04 57.0844 83.4267 57.0844 83.88V84.58C57.0844 85.0333 56.9177 85.4267 56.5844 85.76C56.2644 86.08 55.731 86.24 54.9844 86.24ZM74.2488 72.04H78.7488C80.6288 72.04 82.0221 72.64 82.9288 73.84C83.8354 75.04 84.2888 76.7667 84.2888 79.02C84.2888 81.2733 83.8354 83 82.9288 84.2C82.0221 85.4 80.6288 86 78.7488 86H74.2488V72.04ZM78.5488 83.64C79.4421 83.64 80.0954 83.3533 80.5088 82.78C80.9221 82.2067 81.1288 81.3733 81.1288 80.28V77.74C81.1288 76.66 80.9221 75.8333 80.5088 75.26C80.0954 74.6867 79.4421 74.4 78.5488 74.4H77.2088V83.64H78.5488ZM86.5609 86V72.04H95.4809V74.5H89.5609V77.7H95.2809V80.16H89.5609V83.54H95.4809V86H86.5609ZM102.733 86.24C101.56 86.24 100.54 86.0467 99.6731 85.66C98.8065 85.2733 98.1065 84.7467 97.5731 84.08L99.3131 82.16C99.8198 82.72 100.373 83.1333 100.973 83.4C101.586 83.6667 102.206 83.8 102.833 83.8C103.553 83.8 104.1 83.64 104.473 83.32C104.846 83 105.033 82.54 105.033 81.94C105.033 81.4467 104.886 81.0733 104.593 80.82C104.313 80.5667 103.833 80.3867 103.153 80.28L101.693 80.04C100.44 79.8267 99.5331 79.3667 98.9731 78.66C98.4131 77.94 98.1331 77.0667 98.1331 76.04C98.1331 74.6933 98.5731 73.6533 99.4531 72.92C100.333 72.1733 101.566 71.8 103.153 71.8C104.233 71.8 105.173 71.9667 105.973 72.3C106.773 72.6333 107.42 73.0867 107.913 73.66L106.213 75.56C105.84 75.1467 105.4 74.8267 104.893 74.6C104.386 74.36 103.813 74.24 103.173 74.24C101.826 74.24 101.153 74.7933 101.153 75.9C101.153 76.38 101.3 76.74 101.593 76.98C101.9 77.22 102.393 77.4 103.073 77.52L104.533 77.78C105.666 77.98 106.54 78.4067 107.153 79.06C107.766 79.7133 108.073 80.5933 108.073 81.7C108.073 82.3533 107.96 82.96 107.733 83.52C107.506 84.0667 107.166 84.5467 106.713 84.96C106.26 85.36 105.7 85.6733 105.033 85.9C104.38 86.1267 103.613 86.24 102.733 86.24ZM117.645 86L116.765 82.64H112.945L112.085 86H109.045L112.825 72.04H117.065L120.845 86H117.645ZM114.945 74.94H114.785L113.425 80.22H116.305L114.945 74.94ZM125.418 86H122.458V72.04H127.858C128.538 72.04 129.144 72.1467 129.678 72.36C130.211 72.56 130.658 72.8533 131.018 73.24C131.391 73.6267 131.671 74.0933 131.858 74.64C132.044 75.1867 132.138 75.8 132.138 76.48C132.138 77.4667 131.924 78.3133 131.497 79.02C131.071 79.7267 130.464 80.1933 129.678 80.42L132.418 86H129.138L126.798 80.82H125.418V86ZM127.138 78.5C127.844 78.5 128.331 78.3667 128.598 78.1C128.878 77.8333 129.018 77.3933 129.018 76.78V76.18C129.018 75.5667 128.878 75.1267 128.598 74.86C128.331 74.5933 127.844 74.46 127.138 74.46H125.418V78.5H127.138ZM137.41 86H134.45V72.04H139.85C140.53 72.04 141.136 72.1467 141.67 72.36C142.203 72.56 142.65 72.8533 143.01 73.24C143.383 73.6267 143.663 74.0933 143.85 74.64C144.036 75.1867 144.13 75.8 144.13 76.48C144.13 77.4667 143.916 78.3133 143.49 79.02C143.063 79.7267 142.456 80.1933 141.67 80.42L144.41 86H141.13L138.79 80.82H137.41V86ZM139.13 78.5C139.836 78.5 140.323 78.3667 140.59 78.1C140.87 77.8333 141.01 77.3933 141.01 76.78V76.18C141.01 75.5667 140.87 75.1267 140.59 74.86C140.323 74.5933 139.836 74.46 139.13 74.46H137.41V78.5H139.13ZM150.922 86.24C149.055 86.24 147.675 85.6067 146.782 84.34C145.902 83.0733 145.462 81.3 145.462 79.02C145.462 76.74 145.902 74.9667 146.782 73.7C147.675 72.4333 149.055 71.8 150.922 71.8C152.789 71.8 154.162 72.4333 155.042 73.7C155.935 74.9667 156.382 76.74 156.382 79.02C156.382 81.3 155.935 83.0733 155.042 84.34C154.162 85.6067 152.789 86.24 150.922 86.24ZM150.922 83.82C151.775 83.82 152.362 83.5067 152.682 82.88C153.015 82.24 153.182 81.3533 153.182 80.22V77.8C153.182 76.68 153.015 75.8067 152.682 75.18C152.362 74.54 151.775 74.22 150.922 74.22C150.069 74.22 149.475 74.54 149.142 75.18C148.822 75.8067 148.662 76.68 148.662 77.8V80.24C148.662 81.36 148.822 82.24 149.142 82.88C149.475 83.5067 150.069 83.82 150.922 83.82ZM158.754 86V72.04H161.774V83.54H167.774V86H158.754ZM170.746 86V72.04H173.766V83.54H179.766V86H170.746ZM186.898 86.24C185.032 86.24 183.652 85.6067 182.758 84.34C181.878 83.0733 181.438 81.3 181.438 79.02C181.438 76.74 181.878 74.9667 182.758 73.7C183.652 72.4333 185.032 71.8 186.898 71.8C188.765 71.8 190.138 72.4333 191.018 73.7C191.912 74.9667 192.358 76.74 192.358 79.02C192.358 81.3 191.912 83.0733 191.018 84.34C190.138 85.6067 188.765 86.24 186.898 86.24ZM186.898 83.82C187.752 83.82 188.338 83.5067 188.658 82.88C188.992 82.24 189.158 81.3533 189.158 80.22V77.8C189.158 76.68 188.992 75.8067 188.658 75.18C188.338 74.54 187.752 74.22 186.898 74.22C186.045 74.22 185.452 74.54 185.118 75.18C184.798 75.8067 184.638 76.68 184.638 77.8V80.24C184.638 81.36 184.798 82.24 185.118 82.88C185.452 83.5067 186.045 83.82 186.898 83.82ZM206.163 72.04H210.663C212.543 72.04 213.936 72.64 214.843 73.84C215.749 75.04 216.203 76.7667 216.203 79.02C216.203 81.2733 215.749 83 214.843 84.2C213.936 85.4 212.543 86 210.663 86H206.163V72.04ZM210.463 83.64C211.356 83.64 212.009 83.3533 212.423 82.78C212.836 82.2067 213.043 81.3733 213.043 80.28V77.74C213.043 76.66 212.836 75.8333 212.423 75.26C212.009 74.6867 211.356 74.4 210.463 74.4H209.123V83.64H210.463ZM218.475 86V72.04H227.395V74.5H221.475V77.7H227.195V80.16H221.475V83.54H227.395V86H218.475ZM246.639 86.24C245.466 86.24 244.446 86.0467 243.579 85.66C242.713 85.2733 242.013 84.7467 241.479 84.08L243.219 82.16C243.726 82.72 244.279 83.1333 244.879 83.4C245.493 83.6667 246.113 83.8 246.739 83.8C247.459 83.8 248.006 83.64 248.379 83.32C248.753 83 248.939 82.54 248.939 81.94C248.939 81.4467 248.793 81.0733 248.499 80.82C248.219 80.5667 247.739 80.3867 247.059 80.28L245.599 80.04C244.346 79.8267 243.439 79.3667 242.879 78.66C242.319 77.94 242.039 77.0667 242.039 76.04C242.039 74.6933 242.479 73.6533 243.359 72.92C244.239 72.1733 245.473 71.8 247.059 71.8C248.139 71.8 249.079 71.9667 249.879 72.3C250.679 72.6333 251.326 73.0867 251.819 73.66L250.119 75.56C249.746 75.1467 249.306 74.8267 248.799 74.6C248.293 74.36 247.719 74.24 247.079 74.24C245.733 74.24 245.059 74.7933 245.059 75.9C245.059 76.38 245.206 76.74 245.499 76.98C245.806 77.22 246.299 77.4 246.979 77.52L248.439 77.78C249.573 77.98 250.446 78.4067 251.059 79.06C251.673 79.7133 251.979 80.5933 251.979 81.7C251.979 82.3533 251.866 82.96 251.639 83.52C251.413 84.0667 251.073 84.5467 250.619 84.96C250.166 85.36 249.606 85.6733 248.939 85.9C248.286 86.1267 247.519 86.24 246.639 86.24ZM258.852 86.24C256.985 86.24 255.605 85.6067 254.712 84.34C253.832 83.0733 253.392 81.3 253.392 79.02C253.392 76.74 253.832 74.9667 254.712 73.7C255.605 72.4333 256.985 71.8 258.852 71.8C260.718 71.8 262.092 72.4333 262.972 73.7C263.865 74.9667 264.312 76.74 264.312 79.02C264.312 81.3 263.865 83.0733 262.972 84.34C262.092 85.6067 260.718 86.24 258.852 86.24ZM258.852 83.82C259.705 83.82 260.292 83.5067 260.612 82.88C260.945 82.24 261.112 81.3533 261.112 80.22V77.8C261.112 76.68 260.945 75.8067 260.612 75.18C260.292 74.54 259.705 74.22 258.852 74.22C257.998 74.22 257.405 74.54 257.072 75.18C256.752 75.8067 256.592 76.68 256.592 77.8V80.24C256.592 81.36 256.752 82.24 257.072 82.88C257.405 83.5067 257.998 83.82 258.852 83.82ZM266.444 86V72.04H275.704V74.5H269.444V77.7H275.044V80.16H269.444V86H266.444ZM284.336 74.5V86H281.336V74.5H277.316V72.04H288.356V74.5H284.336ZM289.908 86L289.048 72.04H291.628L292.028 80.4L292.148 83.04H292.328L293.528 75.08H296.228L297.428 83.04H297.608L297.728 80.48L298.128 72.04H300.608L299.748 86H295.948L294.928 78.3H294.728L293.708 86H289.908ZM309.52 86L308.64 82.64H304.82L303.96 86H300.92L304.7 72.04H308.94L312.72 86H309.52ZM306.82 74.94H306.66L305.3 80.22H308.18L306.82 74.94ZM317.293 86H314.333V72.04H319.733C320.413 72.04 321.019 72.1467 321.553 72.36C322.086 72.56 322.533 72.8533 322.893 73.24C323.266 73.6267 323.546 74.0933 323.733 74.64C323.919 75.1867 324.013 75.8 324.013 76.48C324.013 77.4667 323.799 78.3133 323.372 79.02C322.946 79.7267 322.339 80.1933 321.553 80.42L324.293 86H321.013L318.673 80.82H317.293V86ZM319.013 78.5C319.719 78.5 320.206 78.3667 320.473 78.1C320.753 77.8333 320.893 77.3933 320.893 76.78V76.18C320.893 75.5667 320.753 75.1267 320.473 74.86C320.206 74.5933 319.719 74.46 319.013 74.46H317.293V78.5H319.013ZM326.405 86V72.04H335.325V74.5H329.405V77.7H335.125V80.16H329.405V83.54H335.325V86H326.405Z" fill="#24252E"/>
<path d="M284.753 189.782H64.4189V299.159H284.753V189.782Z" fill="#F9E2E2" stroke="#24252E" stroke-width="3" stroke-miterlimit="10"/>
<path d="M284.753 189.782H64.4189V209.764H284.753V189.782Z" fill="#FFB600" stroke="#24252E" stroke-width="3" stroke-miterlimit="10"/>
<path d="M274.421 194.633H264.189V204.906H274.421V194.633Z" fill="#D1D2DB" stroke="#24252E" stroke-width="3" stroke-miterlimit="10"/>
<path d="M271.331 197.743L267.279 201.812" stroke="#24252E" stroke-width="3" stroke-miterlimit="10"/>
<path d="M267.279 197.743L271.331 201.812" stroke="#24252E" stroke-width="3" stroke-miterlimit="10"/>
<path d="M293.109 180.014H72.7749V289.391H293.109V180.014Z" fill="#F9E2E2" stroke="#24252E" stroke-width="3" stroke-miterlimit="10"/>
<path d="M293.109 180.014H72.7749V199.996H293.109V180.014Z" fill="#FFB600" stroke="#24252E" stroke-width="3" stroke-miterlimit="10"/>
<path d="M282.777 184.865H272.545V195.137H282.777V184.865Z" fill="#D1D2DB" stroke="#24252E" stroke-width="3" stroke-miterlimit="10"/>
<path d="M279.687 187.966L275.635 192.035" stroke="#24252E" stroke-width="3" stroke-miterlimit="10"/>
<path d="M275.635 187.966L279.687 192.035" stroke="#24252E" stroke-width="3" stroke-miterlimit="10"/>
<path d="M301.474 170.237H81.1396V279.614H301.474V170.237Z" fill="#F9E2E2" stroke="#24252E" stroke-width="3" stroke-miterlimit="10"/>
<path d="M301.474 170.237H81.1396V190.219H301.474V170.237Z" fill="#FFB600" stroke="#24252E" stroke-width="3" stroke-miterlimit="10"/>
<path d="M291.141 175.088H280.91V185.36H291.141V175.088Z" fill="#D1D2DB" stroke="#24252E" stroke-width="3" stroke-miterlimit="10"/>
<path d="M288.052 178.198L284 182.267" stroke="#24252E" stroke-width="3" stroke-miterlimit="10"/>
<path d="M284 178.198L288.052 182.267" stroke="#24252E" stroke-width="3" stroke-miterlimit="10"/>
<path d="M308.833 157.123H88.4995V266.5H308.833V157.123Z" fill="#F9E2E2" stroke="#24252E" stroke-width="3" stroke-miterlimit="10"/>
<path d="M308.833 157.123H88.4995V177.105H308.833V157.123Z" fill="#FFB600" stroke="#24252E" stroke-width="3" stroke-miterlimit="10"/>
<path d="M298.501 161.974H288.27V172.246H298.501V161.974Z" fill="#D1D2DB" stroke="#24252E" stroke-width="3" stroke-miterlimit="10"/>
<path d="M295.412 165.084L291.359 169.153" stroke="#24252E" stroke-width="3" stroke-miterlimit="10"/>
<path d="M291.359 165.084L295.412 169.153" stroke="#24252E" stroke-width="3" stroke-miterlimit="10"/>
<path d="M316.185 143H95.8511V252.377H316.185V143Z" fill="#F9E2E2" stroke="#24252E" stroke-width="3" stroke-miterlimit="10"/>
<path d="M316.185 143H95.8511V162.982H316.185V143Z" fill="#FFB600" stroke="#24252E" stroke-width="3" stroke-miterlimit="10"/>
<path d="M305.853 147.851H295.621V158.123H305.853V147.851Z" fill="#D1D2DB" stroke="#24252E" stroke-miterlimit="10"/>
<path d="M302.763 150.961L298.711 155.03" stroke="#24252E" stroke-miterlimit="10"/>
<path d="M298.711 150.961L302.763 155.03" stroke="#24252E" stroke-miterlimit="10"/>
<path d="M163.22 185.561C162.443 185.368 161.871 185.092 161.504 184.733C161.146 184.365 160.967 183.834 160.967 183.142C160.967 182.449 161.203 181.91 161.675 181.524C162.155 181.139 162.77 180.946 163.521 180.946C164.272 180.946 165.036 181.082 165.813 181.353L165.63 182.024C164.905 181.761 164.237 181.629 163.626 181.629C163.023 181.629 162.561 181.761 162.238 182.024C161.915 182.278 161.753 182.651 161.753 183.142C161.753 183.633 161.884 184.005 162.146 184.259C162.408 184.514 162.927 184.746 163.704 184.956C164.49 185.158 165.058 185.43 165.407 185.771C165.756 186.105 165.931 186.648 165.931 187.402C165.931 188.147 165.678 188.739 165.171 189.177C164.674 189.607 164.028 189.821 163.233 189.821C162.639 189.821 161.888 189.694 160.98 189.44L161.151 188.769C162.041 189.015 162.757 189.138 163.298 189.138C163.84 189.138 164.285 188.989 164.634 188.691C164.984 188.384 165.158 187.959 165.158 187.415C165.158 186.872 165.032 186.473 164.778 186.219C164.525 185.964 164.006 185.745 163.22 185.561Z" fill="#24252E"/>
<path d="M167.529 183.444H168.314L170.161 188.756H170.266L171.916 183.444H172.702L170.292 190.755C170.065 191.448 169.825 191.89 169.572 192.083C169.327 192.276 168.825 192.381 168.066 192.399V191.728C168.555 191.719 168.882 191.649 169.048 191.518C169.214 191.386 169.367 191.11 169.506 190.689L169.808 189.782L167.529 183.444Z" fill="#24252E"/>
<path d="M174.378 189.387L174.548 188.704C175.413 188.993 176.081 189.138 176.552 189.138C177.024 189.138 177.386 189.037 177.639 188.835C177.901 188.625 178.032 188.349 178.032 188.007C178.032 187.665 177.927 187.415 177.718 187.257C177.517 187.091 177.094 186.933 176.447 186.784C175.801 186.635 175.317 186.42 174.994 186.14C174.671 185.877 174.509 185.482 174.509 184.956C174.509 184.43 174.706 184.031 175.099 183.76C175.5 183.479 176.015 183.339 176.644 183.339C177.273 183.339 177.954 183.479 178.687 183.76L178.504 184.378C177.762 184.132 177.163 184.009 176.709 184.009C176.255 184.009 175.897 184.088 175.635 184.246C175.374 184.421 175.243 184.658 175.243 184.956C175.243 185.254 175.356 185.487 175.583 185.653C175.819 185.82 176.269 185.986 176.932 186.153C177.596 186.319 178.067 186.534 178.347 186.797C178.626 187.051 178.766 187.455 178.766 188.007C178.766 188.559 178.578 188.997 178.202 189.322C177.836 189.646 177.312 189.808 176.631 189.808C175.95 189.808 175.199 189.668 174.378 189.387Z" fill="#24252E"/>
<path d="M180.638 184.272V183.615H181.909V182.024L182.603 181.892V183.615H185.602V184.272H182.603V187.27C182.603 187.937 182.699 188.419 182.891 188.717C183.092 189.006 183.445 189.151 183.952 189.151C184.144 189.151 184.441 189.12 184.842 189.059C185.244 188.989 185.519 188.927 185.668 188.875L185.825 189.519C185.659 189.58 185.353 189.646 184.908 189.716C184.471 189.786 184.153 189.821 183.952 189.821C183.166 189.821 182.629 189.615 182.341 189.203C182.053 188.783 181.909 188.147 181.909 187.297V184.272H180.638Z" fill="#24252E"/>
<path d="M187.331 186.574C187.331 185.565 187.536 184.781 187.946 184.22C188.365 183.65 188.972 183.365 189.767 183.365C190.561 183.365 191.151 183.628 191.535 184.154C191.928 184.68 192.124 185.381 192.124 186.258L192.085 186.915H188.077C188.121 187.573 188.296 188.108 188.601 188.52C188.907 188.923 189.326 189.124 189.858 189.124C190.4 189.124 191.033 188.997 191.757 188.743L191.954 189.401C191.247 189.672 190.583 189.808 189.963 189.808C189.108 189.808 188.453 189.523 187.999 188.954C187.553 188.375 187.331 187.582 187.331 186.574ZM189.819 184.036C188.719 184.036 188.138 184.777 188.077 186.258H191.378C191.378 184.777 190.858 184.036 189.819 184.036Z" fill="#24252E"/>
<path d="M194.115 183.444L194.154 183.839C194.591 183.523 194.927 183.365 195.163 183.365C195.739 183.365 196.136 183.554 196.354 183.931C196.843 183.554 197.271 183.365 197.638 183.365C198.205 183.365 198.594 183.541 198.803 183.891C199.013 184.242 199.118 184.781 199.118 185.508V189.69H198.424V185.508C198.424 185.009 198.371 184.641 198.266 184.404C198.162 184.159 197.961 184.036 197.664 184.036C197.367 184.036 197 184.176 196.564 184.457C196.616 184.755 196.642 185.105 196.642 185.508V187.691H195.948V185.508C195.948 185.009 195.896 184.641 195.791 184.404C195.678 184.159 195.473 184.036 195.176 184.036C194.879 184.036 194.538 184.176 194.154 184.457V189.69H193.46V183.444H194.115Z" fill="#24252E"/>
<path d="M211.507 183.444H212.188L211.442 189.69H210.053L209.385 186.968H209.333L208.652 189.69H207.277L206.557 183.444H207.238L207.919 189.059H208.154L209.032 185.89H209.713L210.59 189.059H210.826L211.507 183.444Z" fill="#24252E"/>
<path d="M215.502 189.124C215.825 189.124 216.174 189.024 216.549 188.822C216.934 188.612 217.213 188.419 217.388 188.244V186.679C216.811 186.635 216.261 186.613 215.737 186.613C215.213 186.613 214.821 186.727 214.559 186.955C214.297 187.174 214.166 187.472 214.166 187.849C214.166 188.699 214.611 189.124 215.502 189.124ZM215.489 189.808C214.851 189.808 214.349 189.646 213.982 189.322C213.616 188.989 213.432 188.52 213.432 187.915C213.432 187.31 213.633 186.841 214.035 186.508C214.436 186.166 214.969 185.995 215.633 185.995C216.296 185.995 216.881 186.021 217.388 186.074C217.388 185.294 217.291 184.763 217.099 184.483C216.907 184.194 216.519 184.049 215.934 184.049C215.349 184.049 214.659 184.189 213.865 184.47L213.668 183.812C214.48 183.514 215.213 183.365 215.868 183.365C216.733 183.365 217.318 183.558 217.623 183.944C217.929 184.329 218.082 185.004 218.082 185.969V188.73L218.186 189.729L217.518 189.795L217.388 189.006C217.187 189.181 216.903 189.361 216.536 189.545C216.17 189.721 215.82 189.808 215.489 189.808Z" fill="#24252E"/>
<path d="M220.256 189.69V189.032H221.749V184.102H220.256V183.444H222.443L222.469 184.207C222.748 184.031 223.141 183.856 223.648 183.681C224.154 183.505 224.599 183.4 224.984 183.365H225.128V184.141H224.984C224.626 184.167 224.18 184.255 223.648 184.404C223.124 184.553 222.731 184.706 222.469 184.864V189.032H224.564V189.69H220.256Z" fill="#24252E"/>
<path d="M227.406 183.444L227.433 183.97C228.28 183.567 228.982 183.365 229.541 183.365C230.1 183.365 230.537 183.558 230.851 183.944C231.174 184.329 231.335 184.855 231.335 185.522V189.69H230.641V185.522C230.641 185.092 230.537 184.737 230.327 184.457C230.117 184.185 229.803 184.049 229.384 184.049C228.965 184.049 228.314 184.242 227.433 184.627V189.69H226.739V183.444H227.406Z" fill="#24252E"/>
<path d="M233.379 189.69V189.032H235.291V184.102H233.379V183.444H235.985V189.032H237.897V189.69H233.379ZM235.016 181.59C235.016 181.415 235.064 181.279 235.16 181.182C235.264 181.086 235.404 181.038 235.579 181.038C235.937 181.038 236.116 181.231 236.116 181.616C236.116 182.002 235.937 182.191 235.579 182.182C235.203 182.182 235.016 181.985 235.016 181.59Z" fill="#24252E"/>
<path d="M240.503 183.444L240.529 183.97C241.376 183.567 242.079 183.365 242.638 183.365C243.197 183.365 243.633 183.558 243.947 183.944C244.271 184.329 244.432 184.855 244.432 185.522V189.69H243.738V185.522C243.738 185.092 243.633 184.737 243.424 184.457C243.214 184.185 242.9 184.049 242.481 184.049C242.062 184.049 241.411 184.242 240.529 184.627V189.69H239.835V183.444H240.503Z" fill="#24252E"/>
<path d="M248.518 189.69C247.732 189.69 247.13 189.418 246.711 188.875C246.292 188.331 246.082 187.564 246.082 186.574C246.082 185.574 246.314 184.79 246.776 184.22C247.248 183.65 247.903 183.365 248.741 183.365C249.204 183.365 249.723 183.519 250.299 183.825L250.326 183.444H250.993V188.178C251.124 189.221 251.19 189.826 251.19 189.992C251.19 190.764 250.932 191.342 250.417 191.728C249.902 192.122 249.295 192.32 248.597 192.32C247.907 192.32 247.121 192.144 246.239 191.794L246.475 191.136C247.34 191.469 248.029 191.636 248.544 191.636C249.068 191.636 249.522 191.5 249.906 191.228C250.299 190.957 250.496 190.549 250.496 190.005L250.378 188.967C249.688 189.449 249.068 189.69 248.518 189.69ZM248.767 184.023C248.147 184.023 247.663 184.255 247.313 184.72C246.964 185.175 246.789 185.789 246.789 186.56C246.789 187.323 246.942 187.928 247.248 188.375C247.553 188.813 247.981 189.032 248.531 189.032C249.081 189.032 249.671 188.769 250.299 188.244V184.562C249.732 184.202 249.221 184.023 248.767 184.023Z" fill="#24252E"/>
<path d="M254.49 189.769V188.638H255.486V189.769H254.49ZM254.674 187.218L254.556 180.643H255.42L255.302 187.218H254.674Z" fill="#24252E"/>
<path d="M163.22 185.561C162.443 185.368 161.871 185.092 161.504 184.733C161.146 184.365 160.967 183.834 160.967 183.142C160.967 182.449 161.203 181.91 161.675 181.524C162.155 181.139 162.77 180.946 163.521 180.946C164.272 180.946 165.036 181.082 165.813 181.353L165.63 182.024C164.905 181.761 164.237 181.629 163.626 181.629C163.023 181.629 162.561 181.761 162.238 182.024C161.915 182.278 161.753 182.651 161.753 183.142C161.753 183.633 161.884 184.005 162.146 184.259C162.408 184.514 162.927 184.746 163.704 184.956C164.49 185.158 165.058 185.43 165.407 185.771C165.756 186.105 165.931 186.648 165.931 187.402C165.931 188.147 165.678 188.739 165.171 189.177C164.674 189.607 164.028 189.821 163.233 189.821C162.639 189.821 161.888 189.694 160.98 189.44L161.151 188.769C162.041 189.015 162.757 189.138 163.298 189.138C163.84 189.138 164.285 188.989 164.634 188.691C164.984 188.384 165.158 187.959 165.158 187.415C165.158 186.872 165.032 186.473 164.778 186.219C164.525 185.964 164.006 185.745 163.22 185.561Z" stroke="#24252E" stroke-miterlimit="10"/>
<path d="M167.529 183.444H168.314L170.161 188.756H170.266L171.916 183.444H172.702L170.292 190.755C170.065 191.448 169.825 191.89 169.572 192.083C169.327 192.276 168.825 192.381 168.066 192.399V191.728C168.555 191.719 168.882 191.649 169.048 191.518C169.214 191.386 169.367 191.11 169.506 190.689L169.808 189.782L167.529 183.444Z" stroke="#24252E" stroke-miterlimit="10"/>
<path d="M174.378 189.387L174.548 188.704C175.413 188.993 176.081 189.138 176.552 189.138C177.024 189.138 177.386 189.037 177.639 188.835C177.901 188.625 178.032 188.349 178.032 188.007C178.032 187.665 177.927 187.415 177.718 187.257C177.517 187.091 177.094 186.933 176.447 186.784C175.801 186.635 175.317 186.42 174.994 186.14C174.671 185.877 174.509 185.482 174.509 184.956C174.509 184.43 174.706 184.031 175.099 183.76C175.5 183.479 176.015 183.339 176.644 183.339C177.273 183.339 177.954 183.479 178.687 183.76L178.504 184.378C177.762 184.132 177.163 184.009 176.709 184.009C176.255 184.009 175.897 184.088 175.635 184.246C175.374 184.421 175.243 184.658 175.243 184.956C175.243 185.254 175.356 185.487 175.583 185.653C175.819 185.82 176.269 185.986 176.932 186.153C177.596 186.319 178.067 186.534 178.347 186.797C178.626 187.051 178.766 187.455 178.766 188.007C178.766 188.559 178.578 188.997 178.202 189.322C177.836 189.646 177.312 189.808 176.631 189.808C175.95 189.808 175.199 189.668 174.378 189.387Z" stroke="#24252E" stroke-miterlimit="10"/>
<path d="M180.638 184.272V183.615H181.909V182.024L182.603 181.892V183.615H185.602V184.272H182.603V187.27C182.603 187.937 182.699 188.419 182.891 188.717C183.092 189.006 183.445 189.151 183.952 189.151C184.144 189.151 184.441 189.12 184.842 189.059C185.244 188.989 185.519 188.927 185.668 188.875L185.825 189.519C185.659 189.58 185.353 189.646 184.908 189.716C184.471 189.786 184.153 189.821 183.952 189.821C183.166 189.821 182.629 189.615 182.341 189.203C182.053 188.783 181.909 188.147 181.909 187.297V184.272H180.638Z" stroke="#24252E" stroke-miterlimit="10"/>
<path d="M187.331 186.574C187.331 185.565 187.536 184.781 187.946 184.22C188.365 183.65 188.972 183.365 189.767 183.365C190.561 183.365 191.151 183.628 191.535 184.154C191.928 184.68 192.124 185.381 192.124 186.258L192.085 186.915H188.077C188.121 187.573 188.296 188.108 188.601 188.52C188.907 188.923 189.326 189.124 189.858 189.124C190.4 189.124 191.033 188.997 191.757 188.743L191.954 189.401C191.247 189.672 190.583 189.808 189.963 189.808C189.108 189.808 188.453 189.523 187.999 188.954C187.553 188.375 187.331 187.582 187.331 186.574ZM189.819 184.036C188.719 184.036 188.138 184.777 188.077 186.258H191.378C191.378 184.777 190.858 184.036 189.819 184.036Z" stroke="#24252E" stroke-miterlimit="10"/>
<path d="M194.115 183.444L194.154 183.839C194.591 183.523 194.927 183.365 195.163 183.365C195.739 183.365 196.136 183.554 196.354 183.931C196.843 183.554 197.271 183.365 197.638 183.365C198.205 183.365 198.594 183.541 198.803 183.891C199.013 184.242 199.118 184.781 199.118 185.508V189.69H198.424V185.508C198.424 185.009 198.371 184.641 198.266 184.404C198.162 184.159 197.961 184.036 197.664 184.036C197.367 184.036 197 184.176 196.564 184.457C196.616 184.755 196.642 185.105 196.642 185.508V187.691H195.948V185.508C195.948 185.009 195.896 184.641 195.791 184.404C195.678 184.159 195.473 184.036 195.176 184.036C194.879 184.036 194.538 184.176 194.154 184.457V189.69H193.46V183.444H194.115Z" stroke="#24252E" stroke-miterlimit="10"/>
<path d="M211.507 183.444H212.188L211.442 189.69H210.053L209.385 186.968H209.333L208.652 189.69H207.277L206.557 183.444H207.238L207.919 189.059H208.154L209.032 185.89H209.713L210.59 189.059H210.826L211.507 183.444Z" stroke="#24252E" stroke-miterlimit="10"/>
<path d="M215.502 189.124C215.825 189.124 216.174 189.024 216.549 188.822C216.934 188.612 217.213 188.419 217.388 188.244V186.679C216.811 186.635 216.261 186.613 215.737 186.613C215.213 186.613 214.821 186.727 214.559 186.955C214.297 187.174 214.166 187.472 214.166 187.849C214.166 188.699 214.611 189.124 215.502 189.124ZM215.489 189.808C214.851 189.808 214.349 189.646 213.982 189.322C213.616 188.989 213.432 188.52 213.432 187.915C213.432 187.31 213.633 186.841 214.035 186.508C214.436 186.166 214.969 185.995 215.633 185.995C216.296 185.995 216.881 186.021 217.388 186.074C217.388 185.294 217.291 184.763 217.099 184.483C216.907 184.194 216.519 184.049 215.934 184.049C215.349 184.049 214.659 184.189 213.865 184.47L213.668 183.812C214.48 183.514 215.213 183.365 215.868 183.365C216.733 183.365 217.318 183.558 217.623 183.944C217.929 184.329 218.082 185.004 218.082 185.969V188.73L218.186 189.729L217.518 189.795L217.388 189.006C217.187 189.181 216.903 189.361 216.536 189.545C216.17 189.721 215.82 189.808 215.489 189.808Z" stroke="#24252E" stroke-miterlimit="10"/>
<path d="M220.256 189.69V189.032H221.749V184.102H220.256V183.444H222.443L222.469 184.207C222.748 184.031 223.141 183.856 223.648 183.681C224.154 183.505 224.599 183.4 224.984 183.365H225.128V184.141H224.984C224.626 184.167 224.18 184.255 223.648 184.404C223.124 184.553 222.731 184.706 222.469 184.864V189.032H224.564V189.69H220.256Z" stroke="#24252E" stroke-miterlimit="10"/>
<path d="M227.406 183.444L227.433 183.97C228.28 183.567 228.982 183.365 229.541 183.365C230.1 183.365 230.537 183.558 230.851 183.944C231.174 184.329 231.335 184.855 231.335 185.522V189.69H230.641V185.522C230.641 185.092 230.537 184.737 230.327 184.457C230.117 184.185 229.803 184.049 229.384 184.049C228.965 184.049 228.314 184.242 227.433 184.627V189.69H226.739V183.444H227.406Z" stroke="#24252E" stroke-miterlimit="10"/>
<path d="M233.379 189.69V189.032H235.291V184.102H233.379V183.444H235.985V189.032H237.897V189.69H233.379ZM235.016 181.59C235.016 181.415 235.064 181.279 235.16 181.182C235.264 181.086 235.404 181.038 235.579 181.038C235.937 181.038 236.116 181.231 236.116 181.616C236.116 182.002 235.937 182.191 235.579 182.182C235.203 182.182 235.016 181.985 235.016 181.59Z" stroke="#24252E" stroke-miterlimit="10"/>
<path d="M240.503 183.444L240.529 183.97C241.376 183.567 242.079 183.365 242.638 183.365C243.197 183.365 243.633 183.558 243.947 183.944C244.271 184.329 244.432 184.855 244.432 185.522V189.69H243.738V185.522C243.738 185.092 243.633 184.737 243.424 184.457C243.214 184.185 242.9 184.049 242.481 184.049C242.062 184.049 241.411 184.242 240.529 184.627V189.69H239.835V183.444H240.503Z" stroke="#24252E" stroke-miterlimit="10"/>
<path d="M248.518 189.69C247.732 189.69 247.13 189.418 246.711 188.875C246.292 188.331 246.082 187.564 246.082 186.574C246.082 185.574 246.314 184.79 246.776 184.22C247.248 183.65 247.903 183.365 248.741 183.365C249.204 183.365 249.723 183.519 250.299 183.825L250.326 183.444H250.993V188.178C251.124 189.221 251.19 189.826 251.19 189.992C251.19 190.764 250.932 191.342 250.417 191.728C249.902 192.122 249.295 192.32 248.597 192.32C247.907 192.32 247.121 192.144 246.239 191.794L246.475 191.136C247.34 191.469 248.029 191.636 248.544 191.636C249.068 191.636 249.522 191.5 249.906 191.228C250.299 190.957 250.496 190.549 250.496 190.005L250.378 188.967C249.688 189.449 249.068 189.69 248.518 189.69ZM248.767 184.023C248.147 184.023 247.663 184.255 247.313 184.72C246.964 185.175 246.789 185.789 246.789 186.56C246.789 187.323 246.942 187.928 247.248 188.375C247.553 188.813 247.981 189.032 248.531 189.032C249.081 189.032 249.671 188.769 250.299 188.244V184.562C249.732 184.202 249.221 184.023 248.767 184.023Z" stroke="#24252E" stroke-miterlimit="10"/>
<path d="M254.49 189.769V188.638H255.486V189.769H254.49ZM254.674 187.218L254.556 180.643H255.42L255.302 187.218H254.674Z" stroke="#24252E" stroke-miterlimit="10"/>
<path d="M192.969 216.792H129.359V235.909H192.969V216.792Z" fill="#FED2D8"/>
<path d="M192.969 216.792H129.359V235.909H192.969V216.792Z" stroke="#24252E" stroke-width="3" stroke-miterlimit="10"/>
<path d="M156.496 226.321V229.312H155.928V226.321L153.896 222.389H154.591L156.201 225.718H156.222L157.833 222.389H158.528L156.496 226.321Z" fill="#24252E"/>
<path d="M159.56 226.807C159.56 225.997 159.724 225.366 160.054 224.915C160.391 224.457 160.879 224.228 161.518 224.228C162.156 224.228 162.63 224.439 162.939 224.862C163.255 225.285 163.412 225.849 163.412 226.553L163.381 227.082H160.16C160.195 227.61 160.335 228.04 160.581 228.371C160.826 228.695 161.163 228.857 161.591 228.857C162.026 228.857 162.535 228.755 163.118 228.551L163.276 229.079C162.707 229.298 162.174 229.407 161.675 229.407C160.988 229.407 160.461 229.178 160.096 228.72C159.739 228.255 159.56 227.617 159.56 226.807ZM161.56 224.767C160.675 224.767 160.209 225.362 160.16 226.553H162.812C162.812 225.362 162.395 224.767 161.56 224.767Z" fill="#24252E"/>
<path d="M164.939 229.069L165.076 228.519C165.771 228.752 166.307 228.868 166.686 228.868C167.065 228.868 167.357 228.787 167.56 228.625C167.771 228.456 167.876 228.234 167.876 227.959C167.876 227.684 167.792 227.483 167.623 227.356C167.462 227.223 167.121 227.096 166.602 226.976C166.083 226.856 165.693 226.684 165.434 226.458C165.174 226.247 165.044 225.93 165.044 225.507C165.044 225.084 165.202 224.763 165.518 224.545C165.841 224.32 166.255 224.207 166.76 224.207C167.265 224.207 167.813 224.32 168.402 224.545L168.255 225.042C167.658 224.845 167.178 224.746 166.813 224.746C166.448 224.746 166.16 224.809 165.949 224.936C165.739 225.077 165.634 225.267 165.634 225.507C165.634 225.746 165.725 225.933 165.907 226.067C166.097 226.201 166.458 226.335 166.992 226.469C167.525 226.603 167.904 226.775 168.129 226.987C168.353 227.191 168.465 227.515 168.465 227.959C168.465 228.403 168.315 228.755 168.013 229.016C167.718 229.277 167.297 229.407 166.75 229.407C166.202 229.407 165.599 229.294 164.939 229.069Z" fill="#24252E"/>
<path d="M156.496 226.321V229.312H155.928V226.321L153.896 222.389H154.591L156.201 225.718H156.222L157.833 222.389H158.528L156.496 226.321Z" stroke="#24252E" stroke-width="0.5" stroke-miterlimit="10"/>
<path d="M159.56 226.807C159.56 225.997 159.724 225.366 160.054 224.915C160.391 224.457 160.879 224.228 161.518 224.228C162.156 224.228 162.63 224.439 162.939 224.862C163.255 225.285 163.412 225.849 163.412 226.553L163.381 227.082H160.16C160.195 227.61 160.335 228.04 160.581 228.371C160.826 228.695 161.163 228.857 161.591 228.857C162.026 228.857 162.535 228.755 163.118 228.551L163.276 229.079C162.707 229.298 162.174 229.407 161.675 229.407C160.988 229.407 160.461 229.178 160.096 228.72C159.739 228.255 159.56 227.617 159.56 226.807ZM161.56 224.767C160.675 224.767 160.209 225.362 160.16 226.553H162.812C162.812 225.362 162.395 224.767 161.56 224.767Z" stroke="#24252E" stroke-width="0.5" stroke-miterlimit="10"/>
<path d="M164.939 229.069L165.076 228.519C165.771 228.752 166.307 228.868 166.686 228.868C167.065 228.868 167.357 228.787 167.56 228.625C167.771 228.456 167.876 228.234 167.876 227.959C167.876 227.684 167.792 227.483 167.623 227.356C167.462 227.223 167.121 227.096 166.602 226.976C166.083 226.856 165.693 226.684 165.434 226.458C165.174 226.247 165.044 225.93 165.044 225.507C165.044 225.084 165.202 224.763 165.518 224.545C165.841 224.32 166.255 224.207 166.76 224.207C167.265 224.207 167.813 224.32 168.402 224.545L168.255 225.042C167.658 224.845 167.178 224.746 166.813 224.746C166.448 224.746 166.16 224.809 165.949 224.936C165.739 225.077 165.634 225.267 165.634 225.507C165.634 225.746 165.725 225.933 165.907 226.067C166.097 226.201 166.458 226.335 166.992 226.469C167.525 226.603 167.904 226.775 168.129 226.987C168.353 227.191 168.465 227.515 168.465 227.959C168.465 228.403 168.315 228.755 168.013 229.016C167.718 229.277 167.297 229.407 166.75 229.407C166.202 229.407 165.599 229.294 164.939 229.069Z" stroke="#24252E" stroke-width="0.5" stroke-miterlimit="10"/>
<path d="M274.429 216.792H210.82V235.909H274.429V216.792Z" fill="#FED2D8"/>
<path d="M274.429 216.792H210.82V235.909H274.429V216.792Z" stroke="#24252E" stroke-width="3" stroke-miterlimit="10"/>
<path d="M231.757 228.448L231.894 228.987C231.276 229.17 230.722 229.262 230.231 229.262C229.424 229.262 228.824 228.984 228.431 228.427C228.045 227.863 227.852 226.958 227.852 225.711C227.852 224.464 228.041 223.558 228.42 222.994C228.799 222.424 229.406 222.138 230.241 222.138C230.754 222.138 231.287 222.248 231.841 222.466L231.673 222.994C231.168 222.783 230.69 222.677 230.241 222.677C229.617 222.677 229.164 222.917 228.883 223.396C228.61 223.868 228.473 224.633 228.473 225.69C228.473 226.747 228.62 227.515 228.915 227.994C229.21 228.473 229.652 228.712 230.241 228.712C230.634 228.712 231.14 228.624 231.757 228.448Z" fill="#24252E"/>
<path d="M234.831 228.712C235.091 228.712 235.371 228.631 235.673 228.469C235.982 228.3 236.207 228.145 236.347 228.004V226.747C235.884 226.711 235.442 226.694 235.02 226.694C234.599 226.694 234.284 226.785 234.073 226.968C233.863 227.145 233.757 227.384 233.757 227.687C233.757 228.371 234.115 228.712 234.831 228.712ZM234.82 229.262C234.308 229.262 233.905 229.132 233.61 228.871C233.315 228.603 233.168 228.226 233.168 227.74C233.168 227.254 233.329 226.877 233.652 226.609C233.975 226.334 234.403 226.197 234.936 226.197C235.47 226.197 235.94 226.218 236.347 226.26C236.347 225.633 236.27 225.207 236.115 224.981C235.961 224.749 235.649 224.633 235.178 224.633C234.708 224.633 234.154 224.745 233.515 224.971L233.357 224.442C234.01 224.203 234.599 224.083 235.126 224.083C235.821 224.083 236.291 224.238 236.536 224.548C236.782 224.858 236.905 225.401 236.905 226.176V228.395L236.989 229.199L236.452 229.251L236.347 228.617C236.185 228.758 235.957 228.903 235.663 229.051C235.368 229.192 235.087 229.262 234.82 229.262Z" fill="#24252E"/>
<path d="M239.137 224.146L239.158 224.569C239.838 224.245 240.403 224.083 240.852 224.083C241.302 224.083 241.653 224.238 241.905 224.548C242.165 224.858 242.295 225.281 242.295 225.816V229.167H241.737V225.816C241.737 225.471 241.653 225.186 241.484 224.96C241.316 224.742 241.063 224.633 240.726 224.633C240.389 224.633 239.866 224.788 239.158 225.098V229.167H238.6V224.146H239.137Z" fill="#24252E"/>
<path d="M247.358 224.316L247.232 224.865C246.797 224.71 246.393 224.633 246.021 224.633C245.516 224.633 245.137 224.812 244.884 225.172C244.639 225.524 244.516 226.017 244.516 226.651C244.516 227.286 244.642 227.789 244.895 228.163C245.148 228.529 245.523 228.712 246.021 228.712C246.358 228.712 246.779 228.621 247.284 228.438L247.453 228.966C246.941 229.163 246.467 229.262 246.032 229.262C245.344 229.262 244.818 229.033 244.453 228.575C244.088 228.11 243.905 227.465 243.905 226.641C243.905 225.816 244.084 225.186 244.442 224.749C244.8 224.305 245.326 224.083 246.021 224.083C246.463 224.083 246.909 224.161 247.358 224.316Z" fill="#24252E"/>
<path d="M249.032 226.662C249.032 225.852 249.197 225.221 249.527 224.77C249.864 224.312 250.351 224.083 250.99 224.083C251.629 224.083 252.102 224.294 252.411 224.717C252.727 225.14 252.885 225.704 252.885 226.408L252.853 226.937H249.632C249.667 227.465 249.807 227.895 250.053 228.226C250.299 228.55 250.636 228.712 251.064 228.712C251.499 228.712 252.008 228.61 252.59 228.406L252.748 228.934C252.18 229.153 251.646 229.262 251.148 229.262C250.46 229.262 249.934 229.033 249.569 228.575C249.211 228.11 249.032 227.472 249.032 226.662ZM251.032 224.622C250.148 224.622 249.681 225.217 249.632 226.408H252.285C252.285 225.217 251.867 224.622 251.032 224.622Z" fill="#24252E"/>
<path d="M254.59 229.167V228.638H256.201V222.656L254.632 222.667L254.622 222.149L256.759 222.138V228.638H258.422V229.167H254.59Z" fill="#24252E"/>
<path d="M231.757 228.448L231.894 228.987C231.276 229.17 230.722 229.262 230.231 229.262C229.424 229.262 228.824 228.984 228.431 228.427C228.045 227.863 227.852 226.958 227.852 225.711C227.852 224.464 228.041 223.558 228.42 222.994C228.799 222.424 229.406 222.138 230.241 222.138C230.754 222.138 231.287 222.248 231.841 222.466L231.673 222.994C231.168 222.783 230.69 222.677 230.241 222.677C229.617 222.677 229.164 222.917 228.883 223.396C228.61 223.868 228.473 224.633 228.473 225.69C228.473 226.747 228.62 227.515 228.915 227.994C229.21 228.473 229.652 228.712 230.241 228.712C230.634 228.712 231.14 228.624 231.757 228.448Z" stroke="#24252E" stroke-width="0.5" stroke-miterlimit="10"/>
<path d="M234.831 228.712C235.091 228.712 235.371 228.631 235.673 228.469C235.982 228.3 236.207 228.145 236.347 228.004V226.747C235.884 226.711 235.442 226.694 235.02 226.694C234.599 226.694 234.284 226.785 234.073 226.968C233.863 227.145 233.757 227.384 233.757 227.687C233.757 228.371 234.115 228.712 234.831 228.712ZM234.82 229.262C234.308 229.262 233.905 229.132 233.61 228.871C233.315 228.603 233.168 228.226 233.168 227.74C233.168 227.254 233.329 226.877 233.652 226.609C233.975 226.334 234.403 226.197 234.936 226.197C235.47 226.197 235.94 226.218 236.347 226.26C236.347 225.633 236.27 225.207 236.115 224.981C235.961 224.749 235.649 224.633 235.178 224.633C234.708 224.633 234.154 224.745 233.515 224.971L233.357 224.442C234.01 224.203 234.599 224.083 235.126 224.083C235.821 224.083 236.291 224.238 236.536 224.548C236.782 224.858 236.905 225.401 236.905 226.176V228.395L236.989 229.199L236.452 229.251L236.347 228.617C236.185 228.758 235.957 228.903 235.663 229.051C235.368 229.192 235.087 229.262 234.82 229.262Z" stroke="#24252E" stroke-width="0.5" stroke-miterlimit="10"/>
<path d="M239.137 224.146L239.158 224.569C239.838 224.245 240.403 224.083 240.852 224.083C241.302 224.083 241.653 224.238 241.905 224.548C242.165 224.858 242.295 225.281 242.295 225.816V229.167H241.737V225.816C241.737 225.471 241.653 225.186 241.484 224.96C241.316 224.742 241.063 224.633 240.726 224.633C240.389 224.633 239.866 224.788 239.158 225.098V229.167H238.6V224.146H239.137Z" stroke="#24252E" stroke-width="0.5" stroke-miterlimit="10"/>
<path d="M247.358 224.316L247.232 224.865C246.797 224.71 246.393 224.633 246.021 224.633C245.516 224.633 245.137 224.812 244.884 225.172C244.639 225.524 244.516 226.017 244.516 226.651C244.516 227.286 244.642 227.789 244.895 228.163C245.148 228.529 245.523 228.712 246.021 228.712C246.358 228.712 246.779 228.621 247.284 228.438L247.453 228.966C246.941 229.163 246.467 229.262 246.032 229.262C245.344 229.262 244.818 229.033 244.453 228.575C244.088 228.11 243.905 227.465 243.905 226.641C243.905 225.816 244.084 225.186 244.442 224.749C244.8 224.305 245.326 224.083 246.021 224.083C246.463 224.083 246.909 224.161 247.358 224.316Z" stroke="#24252E" stroke-width="0.5" stroke-miterlimit="10"/>
<path d="M249.032 226.662C249.032 225.852 249.197 225.221 249.527 224.77C249.864 224.312 250.351 224.083 250.99 224.083C251.629 224.083 252.102 224.294 252.411 224.717C252.727 225.14 252.885 225.704 252.885 226.408L252.853 226.937H249.632C249.667 227.465 249.807 227.895 250.053 228.226C250.299 228.55 250.636 228.712 251.064 228.712C251.499 228.712 252.008 228.61 252.59 228.406L252.748 228.934C252.18 229.153 251.646 229.262 251.148 229.262C250.46 229.262 249.934 229.033 249.569 228.575C249.211 228.11 249.032 227.472 249.032 226.662ZM251.032 224.622C250.148 224.622 249.681 225.217 249.632 226.408H252.285C252.285 225.217 251.867 224.622 251.032 224.622Z" stroke="#24252E" stroke-width="0.5" stroke-miterlimit="10"/>
<path d="M254.59 229.167V228.638H256.201V222.656L254.632 222.667L254.622 222.149L256.759 222.138V228.638H258.422V229.167H254.59Z" stroke="#24252E" stroke-width="0.5" stroke-miterlimit="10"/>
<path d="M1 1V0H0V1H1ZM393 1H394V0H393V1ZM393 363V364H394V363H393ZM1 363H0V364H1V363ZM1 2H393V0H1V2ZM392 1V363H394V1H392ZM393 362H1V364H393V362ZM2 363V1H0V363H2Z" fill="white"/>
</g>
<defs>
<filter id="filter0_d_80_6391" x="0" y="0" width="402" height="372" filterUnits="userSpaceOnUse" color-interpolation-filters="sRGB">
<feFlood flood-opacity="0" result="BackgroundImageFix"/>
<feColorMatrix in="SourceAlpha" type="matrix" values="0 0 0 0 0 0 0 0 0 0 0 0 0 0 0 0 0 0 127 0" result="hardAlpha"/>
<feOffset dx="8" dy="8"/>
<feColorMatrix type="matrix" values="0 0 0 0 0.466243 0 0 0 0 0.55052 0 0 0 0 0.993757 0 0 0 1 0"/>
<feBlend mode="normal" in2="BackgroundImageFix" result="effect1_dropShadow_80_6391"/>
<feBlend mode="normal" in="SourceGraphic" in2="effect1_dropShadow_80_6391" result="shape"/>
</filter>
</defs>
</svg>
