<svg width="76" height="191" viewBox="0 0 76 191" fill="none" xmlns="http://www.w3.org/2000/svg">
<path d="M14.6608 106.9L16.9168 105.826L14.6608 106.9ZM57.4074 190.552C58.4719 191.433 60.0478 191.285 60.9273 190.222L75.2598 172.9C76.1393 171.837 75.9893 170.261 74.9248 169.38C73.8604 168.499 72.2844 168.647 71.4049 169.71L58.665 185.107L43.2457 172.345C42.1812 171.464 40.6053 171.612 39.7258 172.675C38.8462 173.738 38.9962 175.313 40.0607 176.194L57.4074 190.552ZM0.195594 0.165386C0.107452 11.625 -0.297615 31.3007 1.02609 51.6615C2.34446 71.9401 5.39448 93.2886 12.4047 107.974L16.9168 105.826C10.3513 92.0724 7.3304 71.5632 6.01594 51.3449C4.70683 31.2087 5.1071 11.7483 5.19583 0.211562L0.195594 0.165386ZM12.4047 107.974C21.0206 126.024 31.5227 138.244 39.9615 149.817C48.4142 161.41 54.9559 172.517 56.5109 188.86L61.4888 188.394C59.8093 170.742 52.6662 158.761 44.0005 146.876C35.3207 134.972 25.2705 123.326 16.9168 105.826L12.4047 107.974Z" fill="#189FFB"/>
</svg>
